{
.appVersion = "1300";
classes = (
{
automatic = 1;

glyphs = (
{
glyphname = A;
layers = (
{
anchors = (
{
name = bottom;
position = "{286, 0}";
},
{
name = ogonek;
position = "{525, 0}";
},
{
name = top;
position = "{382, 686}";
}
);
layerId = "8F3315DA-A8CB-43B6-A496-83A18984EDD5";
paths = (
{
closed = 1;
nodes = (
"328 686 LINE",
"-36 0 LINE",
"58 0 LINE",
"136 149 LINE",
"464 149 LINE",
"501 0 LINE",
"607 0 LINE",
"436 686 LINE"
);
},
{
closed = 1;
nodes = (
"443 238 LINE",
"184 238 LINE",
"357 568 LINE",
"363 568 LINE"
);
}
);
width = 650;
},
{
anchors = (
{
name = bottom;
position = "{289, 0}";
},
{
name = ogonek;
position = "{551, 0}";
},
{
name = top;
position = "{385, 686}";
}
);
layerId = "4BBFD287-7A5F-4332-B846-65FFBCBF0D57";
paths = (
{
closed = 1;
nodes = (
"361 686 LINE",
"-19 0 LINE",
"36 0 LINE",
"130 170 LINE",
"492 170 LINE",
"539 0 LINE",
"598 0 LINE",
"411 686 LINE"
);
},
{
closed = 1;
nodes = (
"479 219 LINE",
"157 219 LINE",
"371 612 LINE",
"375 612 LINE"
);
}
);
width = 650;
},
{
anchors = (
{
name = bottom;
position = "{292, 0}";
},
{
name = ogonek;
position = "{532, 0}";
},
{
name = top;
position = "{388, 686}";
}
);
layerId = "B761BB45-E103-41B9-A767-1F2A3FFB8B31";
paths = (
{
closed = 1;
nodes = (
"299 686 LINE",
"-46 0 LINE",
"102 0 LINE",
"169 135 LINE",
"442 135 LINE",
"473 0 LINE",
"635 0 LINE",
"483 686 LINE"
);
},
{
closed = 1;
nodes = (
"418 252 LINE",
"228 252 LINE",
"359 521 LINE",
"364 521 LINE"
);
}
);
width = 686;
},
{
anchors = (
{
name = bottom;
position = "{313, 0}";
},
{
name = ogonek;
position = "{547, 0}";
},
{
name = top;
position = "{401, 686}";
}
);
layerId = "4FDE33F5-0064-4818-A7C2-FB87252213B5";
paths = (
{
closed = 1;
nodes = (
"281 686 LINE",
"-44 0 LINE",
"157 0 LINE",
"214 122 LINE",
"432 122 LINE",
"456 0 LINE",
"674 0 LINE",
"542 686 LINE"
);
},
{
closed = 1;
nodes = (
"405 267 LINE",
"283 267 LINE",
"371 475 LINE",
"376 475 LINE"
);
}
);
width = 709;
}
);
leftKerningGroup = A;
note = A;
rightKerningGroup = A;
unicode = 0041;
},
{
glyphname = AE;
layers = (
{
anchors = (
{
name = top;
position = "{519, 686}";
}
);
layerId = "8F3315DA-A8CB-43B6-A496-83A18984EDD5";
paths = (
{
closed = 1;
nodes = (
"426 686 LINE",
"-33 0 LINE",
"59 0 LINE",
"158 149 LINE",
"486 149 LINE",
"502 0 LINE",
"896 0 LINE",
"896 89 LINE",
"598 89 LINE",
"574 306 LINE",
"888 306 LINE",
"901 395 LINE",
"565 395 LINE",
"543 597 LINE",
"961 597 LINE",
"987 686 LINE"
);
},
{
closed = 1;
nodes = (
"478 238 LINE",
"219 238 LINE",
"438 568 LINE",
"444 568 LINE"
);
}
);
width = 981;
},
{
anchors = (
{
name = top;
position = "{447, 686}";
}
);
layerId = "4BBFD287-7A5F-4332-B846-65FFBCBF0D57";
paths = (
{
closed = 1;
nodes = (
"362 686 LINE",
"-19 0 LINE",
"43 0 LINE",
"137 170 LINE",
"491 170 LINE",
"538 0 LINE",
"887 0 LINE",
"878 48 LINE",
"582 48 LINE",
"506 326 LINE",
"826 326 LINE",
"826 374 LINE",
"493 374 LINE",
"421 638 LINE",
"865 638 LINE",
"877 686 LINE"
);
},
{
closed = 1;
nodes = (
"478 219 LINE",
"164 219 LINE",
"372 607 LINE",
"375 608 LINE"
);
}
);
width = 978;
},
{
anchors = (
{
name = top;
position = "{509, 686}";
}
);
layerId = "B761BB45-E103-41B9-A767-1F2A3FFB8B31";
paths = (
{
closed = 1;
nodes = (
"392 686 LINE",
"-48 0 LINE",
"98 0 LINE",
"185 135 LINE",
"458 135 LINE",
"469 0 LINE",
"915 0 LINE",
"915 123 LINE",
"622 123 LINE",
"607 290 LINE",
"914 290 LINE",
"931 411 LINE",
"598 411 LINE",
"585 563 LINE",
"974 563 LINE",
"1008 686 LINE"
);
},
{
closed = 1;
nodes = (
"451 252 LINE",
"260 252 LINE",
"429 521 LINE",
"434 521 LINE"
);
}
);
width = 1004;
},
{
anchors = (
{
name = top;
position = "{510, 686}";
}
);
layerId = "4FDE33F5-0064-4818-A7C2-FB87252213B5";
paths = (
{
closed = 1;
nodes = (
"368 686 LINE",
"-53 0 LINE",
"146 0 LINE",
"221 122 LINE",
"439 122 LINE",
"439 0 LINE",
"942 0 LINE",
"942 164 LINE",
"656 164 LINE",
"656 275 LINE",
"950 275 LINE",
"971 428 LINE",
"642 428 LINE",
"642 528 LINE",
"997 528 LINE",
"1039 686 LINE"
);
},
{
closed = 1;
nodes = (
"433 267 LINE",
"311 267 LINE",
"428 475 LINE",
"433 475 LINE"
);
}
);
width = 1011;
}
);
leftKerningGroup = A;
note = AE;
rightKerningGroup = E;
unicode = 00C6;
},
{
glyphname = B;
layers = (
{
layerId = "8F3315DA-A8CB-43B6-A496-83A18984EDD5";
paths = (
{
closed = 1;
nodes = (
"148 686 LINE",
"51 0 LINE",
"361 0 LINE SMOOTH",
"478 0 OFFCURVE",
"579 81 OFFCURVE",
"579 214 CURVE SMOOTH",
"579 314 OFFCURVE",
"507 345 OFFCURVE",
"465 353 CURVE",
"466 358 LINE",
"525 374 OFFCURVE",
"609 422 OFFCURVE",
"609 540 CURVE SMOOTH",
"609 631 OFFCURVE",
"536 686 OFFCURVE",
"440 686 CURVE SMOOTH"
);
},
{
closed = 1;
nodes = (
"205 394 LINE",
"233 597 LINE",
"419 597 LINE SMOOTH",
"470 597 OFFCURVE",
"508 573 OFFCURVE",
"508 509 CURVE SMOOTH",
"508 447 OFFCURVE",
"451 394 OFFCURVE",
"391 394 CURVE SMOOTH"
);
},
{
closed = 1;
nodes = (
"162 89 LINE",
"192 305 LINE",
"388 305 LINE SMOOTH",
"444 305 OFFCURVE",
"482 265 OFFCURVE",
"482 212 CURVE SMOOTH",
"482 129 OFFCURVE",
"423 89 OFFCURVE",
"358 89 CURVE SMOOTH"
);
}
);
width = 652;
},
{
layerId = "4BBFD287-7A5F-4332-B846-65FFBCBF0D57";
paths = (
{
closed = 1;
nodes = (
"168 686 LINE",
"71 0 LINE",
"351 0 LINE SMOOTH",
"470 0 OFFCURVE",
"569 100 OFFCURVE",
"569 216 CURVE SMOOTH",
"569 322 OFFCURVE",
"486 348 OFFCURVE",
"454 353 CURVE",
"455 359 LINE",
"510 372 OFFCURVE",
"599 423 OFFCURVE",
"599 540 CURVE SMOOTH",
"599 622 OFFCURVE",
"534 686 OFFCURVE",
"439 686 CURVE SMOOTH"
);
},
{
closed = 1;
nodes = (
"178 374 LINE",
"215 638 LINE",
"431 638 LINE SMOOTH",
"502 638 OFFCURVE",
"542 598 OFFCURVE",
"542 533 CURVE SMOOTH",
"542 442 OFFCURVE",
"469 374 OFFCURVE",
"388 374 CURVE SMOOTH"
);
},
{
closed = 1;
nodes = (
"132 48 LINE",
"171 326 LINE",
"391 326 LINE SMOOTH",
"462 326 OFFCURVE",
"514 274 OFFCURVE",
"514 206 CURVE SMOOTH",
"514 118 OFFCURVE",
"436 48 OFFCURVE",
"352 48 CURVE SMOOTH"
);
}
);
width = 652;
},
{
layerId = "B761BB45-E103-41B9-A767-1F2A3FFB8B31";
paths = (
{
closed = 1;
nodes = (
"120 686 LINE",
"23 0 LINE",
"369 0 LINE SMOOTH",
"495 0 OFFCURVE",
"587 95 OFFCURVE",
"587 216 CURVE SMOOTH",
"587 307 OFFCURVE",
"527 341 OFFCURVE",
"475 352 CURVE",
"476 359 LINE",
"537 375 OFFCURVE",
"617 424 OFFCURVE",
"617 540 CURVE SMOOTH",
"617 626 OFFCURVE",
"547 686 OFFCURVE",
"454 686 CURVE SMOOTH"
);
},
{
closed = 1;
nodes = (
"226 408 LINE",
"248 568 LINE",
"399 568 LINE SMOOTH",
"437 568 OFFCURVE",
"465 547 OFFCURVE",
"465 503 CURVE SMOOTH",
"465 454 OFFCURVE",
"426 408 OFFCURVE",
"377 408 CURVE SMOOTH"
);
},
{
closed = 1;
nodes = (
"186 124 LINE",
"209 291 LINE",
"371 291 LINE SMOOTH",
"411 291 OFFCURVE",
"439 258 OFFCURVE",
"439 221 CURVE SMOOTH",
"439 158 OFFCURVE",
"398 124 OFFCURVE",
"348 124 CURVE SMOOTH"
);
}
);
width = 645;
},
{
layerId = "4FDE33F5-0064-4818-A7C2-FB87252213B5";
paths = (
{
closed = 1;
nodes = (
"113 686 LINE",
"16 0 LINE",
"398 0 LINE SMOOTH",
"533 0 OFFCURVE",
"616 109 OFFCURVE",
"616 218 CURVE SMOOTH",
"616 302 OFFCURVE",
"568 339 OFFCURVE",
"507 354 CURVE",
"508 358 LINE",
"572 377 OFFCURVE",
"646 424 OFFCURVE",
"646 540 CURVE SMOOTH",
"646 622 OFFCURVE",
"581 686 OFFCURVE",
"489 686 CURVE SMOOTH"
);
},
{
closed = 1;
nodes = (
"269 423 LINE",
"285 540 LINE",
"400 540 LINE SMOOTH",
"425 540 OFFCURVE",
"443 522 OFFCURVE",
"443 497 CURVE SMOOTH",
"440 452 OFFCURVE",
"425 423 OFFCURVE",
"384 423 CURVE SMOOTH"
);
},
{
closed = 1;
nodes = (
"232 159 LINE",
"248 277 LINE",
"375 277 LINE SMOOTH",
"400 277 OFFCURVE",
"418 259 OFFCURVE",
"418 234 CURVE SMOOTH",
"415 188 OFFCURVE",
"401 159 OFFCURVE",
"359 159 CURVE SMOOTH"
);
}
);
width = 656;
}
);
leftKerningGroup = H;
note = B;
rightKerningGroup = B;
unicode = 0042;
},
{
glyphname = C;
layers = (
{
anchors = (
{
name = bottom;
position = "{297, 0}";
},
{
name = top;
position = "{390, 686}";
}
);
background = {
paths = (
{
closed = 1;
nodes = (
"225 696 OFFCURVE",
"105 597 OFFCURVE",
"75 388 CURVE SMOOTH",
"58 275 OFFCURVE",
"57 253 OFFCURVE",
"57 232 CURVE SMOOTH",
"57 69 OFFCURVE",
"156 -10 OFFCURVE",
"301 -10 CURVE SMOOTH",
"459 -10 OFFCURVE",
"577 74 OFFCURVE",
"604 261 CURVE",
"510 261 LINE",
"492 134 OFFCURVE",
"412 79 OFFCURVE",
"313 79 CURVE SMOOTH",
"217 79 OFFCURVE",
"156 126 OFFCURVE",
"156 241 CURVE SMOOTH",
"156 258 OFFCURVE",
"157 279 OFFCURVE",
"173 388 CURVE SMOOTH",
"195 544 OFFCURVE",
"279 607 OFFCURVE",
"388 607 CURVE SMOOTH",
"473 607 OFFCURVE",
"532 565 OFFCURVE",
"532 466 CURVE SMOOTH",
"532 452 OFFCURVE",
"531 438 OFFCURVE",
"529 423 CURVE",
"627 423 LINE",
"630 442 OFFCURVE",
"631 460 OFFCURVE",
"631 477 CURVE SMOOTH",
"631 624 OFFCURVE",
"533 696 OFFCURVE",
"400 696 CURVE SMOOTH"
);
}
);
};
layerId = "8F3315DA-A8CB-43B6-A496-83A18984EDD5";
paths = (
{
closed = 1;
nodes = (
"398 696 LINE SMOOTH",
"225 696 OFFCURVE",
"105 597 OFFCURVE",
"75 388 CURVE SMOOTH",
"58 275 OFFCURVE",
"57 253 OFFCURVE",
"57 232 CURVE SMOOTH",
"57 69 OFFCURVE",
"156 -10 OFFCURVE",
"299 -10 CURVE SMOOTH",
"306 -10 LINE SMOOTH",
"459 -10 OFFCURVE",
"577 77 OFFCURVE",
"604 261 CURVE",
"510 261 LINE",
"492 134 OFFCURVE",
"412 79 OFFCURVE",
"313 79 CURVE SMOOTH",
"217 79 OFFCURVE",
"156 126 OFFCURVE",
"156 241 CURVE SMOOTH",
"156 258 OFFCURVE",
"157 279 OFFCURVE",
"173 388 CURVE SMOOTH",
"195 544 OFFCURVE",
"279 607 OFFCURVE",
"388 607 CURVE SMOOTH",
"473 607 OFFCURVE",
"532 565 OFFCURVE",
"532 466 CURVE SMOOTH",
"532 452 OFFCURVE",
"531 438 OFFCURVE",
"529 423 CURVE",
"627 423 LINE",
"630 442 OFFCURVE",
"631 460 OFFCURVE",
"631 477 CURVE SMOOTH",
"631 622 OFFCURVE",
"534 696 OFFCURVE",
"404 696 CURVE SMOOTH"
);
}
);
width = 662;
},
{
anchors = (
{
name = bottom;
position = "{305, 0}";
},
{
name = top;
position = "{398, 686}";
}
);
background = {
paths = (
{
closed = 1;
nodes = (
"251 696 OFFCURVE",
"128 631 OFFCURVE",
"92 356 CURVE SMOOTH",
"83 289 OFFCURVE",
"81 254 OFFCURVE",
"81 223 CURVE SMOOTH",
"81 37 OFFCURVE",
"173 -10 OFFCURVE",
"299 -10 CURVE SMOOTH",
"431 -10 OFFCURVE",
"561 48 OFFCURVE",
"590 251 CURVE",
"537 251 LINE",
"513 81 OFFCURVE",
"411 38 OFFCURVE",
"306 38 CURVE SMOOTH",
"206 38 OFFCURVE",
"134 76 OFFCURVE",
"134 227 CURVE SMOOTH",
"134 254 OFFCURVE",
"135 284 OFFCURVE",
"147 368 CURVE SMOOTH",
"179 595 OFFCURVE",
"274 648 OFFCURVE",
"391 648 CURVE SMOOTH",
"484 648 OFFCURVE",
"566 615 OFFCURVE",
"566 486 CURVE SMOOTH",
"566 470 OFFCURVE",
"565 453 OFFCURVE",
"562 434 CURVE",
"615 434 LINE",
"618 456 OFFCURVE",
"620 477 OFFCURVE",
"620 496 CURVE SMOOTH",
"620 653 OFFCURVE",
"516 696 OFFCURVE",
"398 696 CURVE SMOOTH"
);
}
);
};
layerId = "4BBFD287-7A5F-4332-B846-65FFBCBF0D57";
paths = (
{
closed = 1;
nodes = (
"398 696 LINE SMOOTH",
"251 696 OFFCURVE",
"128 631 OFFCURVE",
"92 356 CURVE SMOOTH",
"83 289 OFFCURVE",
"81 254 OFFCURVE",
"81 223 CURVE SMOOTH",
"81 37 OFFCURVE",
"173 -10 OFFCURVE",
"299 -10 CURVE SMOOTH",
"304 -10 LINE SMOOTH",
"432 -10 OFFCURVE",
"561 51 OFFCURVE",
"590 251 CURVE",
"537 251 LINE",
"513 81 OFFCURVE",
"411 38 OFFCURVE",
"306 38 CURVE SMOOTH",
"206 38 OFFCURVE",
"134 76 OFFCURVE",
"134 227 CURVE SMOOTH",
"134 254 OFFCURVE",
"135 284 OFFCURVE",
"147 368 CURVE SMOOTH",
"179 595 OFFCURVE",
"274 648 OFFCURVE",
"391 648 CURVE SMOOTH",
"484 648 OFFCURVE",
"566 615 OFFCURVE",
"566 486 CURVE SMOOTH",
"566 470 OFFCURVE",
"565 453 OFFCURVE",
"562 434 CURVE",
"615 434 LINE",
"618 456 OFFCURVE",
"620 477 OFFCURVE",
"620 496 CURVE SMOOTH",
"620 651 OFFCURVE",
"517 696 OFFCURVE",
"402 696 CURVE SMOOTH"
);
}
);
width = 661;
},
{
anchors = (
{
name = bottom;
position = "{301, 0}";
},
{
name = top;
position = "{394, 686}";
}
);
layerId = "B761BB45-E103-41B9-A767-1F2A3FFB8B31";
paths = (
{
closed = 1;
nodes = (
"392 696 LINE SMOOTH",
"214 696 OFFCURVE",
"81 586 OFFCURVE",
"54 392 CURVE SMOOTH",
"38 277 OFFCURVE",
"35 255 OFFCURVE",
"35 237 CURVE SMOOTH",
"35 75 OFFCURVE",
"144 -10 OFFCURVE",
"297 -10 CURVE SMOOTH",
"311 -10 LINE SMOOTH",
"480 -10 OFFCURVE",
"598 88 OFFCURVE",
"624 270 CURVE",
"483 270 LINE",
"468 165 OFFCURVE",
"416 113 OFFCURVE",
"325 113 CURVE SMOOTH",
"247 113 OFFCURVE",
"196 151 OFFCURVE",
"196 240 CURVE SMOOTH",
"196 270 OFFCURVE",
"202 303 OFFCURVE",
"214 382 CURVE SMOOTH",
"231 498 OFFCURVE",
"269 573 OFFCURVE",
"384 573 CURVE SMOOTH",
"454 573 OFFCURVE",
"501 531 OFFCURVE",
"501 457 CURVE SMOOTH",
"500 440 OFFCURVE",
"499 429 OFFCURVE",
"497 414 CURVE",
"644 414 LINE",
"647 433 OFFCURVE",
"648 451 OFFCURVE",
"648 468 CURVE SMOOTH",
"648 620 OFFCURVE",
"546 696 OFFCURVE",
"406 696 CURVE SMOOTH"
);
}
);
width = 683;
},
{
anchors = (
{
name = bottom;
position = "{318, 0}";
},
{
name = top;
position = "{411, 686}";
}
);
layerId = "4FDE33F5-0064-4818-A7C2-FB87252213B5";
paths = (
{
closed = 1;
nodes = (
"398 696 LINE SMOOTH",
"217 696 OFFCURVE",
"70 576 OFFCURVE",
"46 396 CURVE SMOOTH",
"30 279 OFFCURVE",
"27 258 OFFCURVE",
"27 242 CURVE SMOOTH",
"27 81 OFFCURVE",
"146 -10 OFFCURVE",
"307 -10 CURVE SMOOTH",
"335 -10 LINE SMOOTH",
"515 -10 OFFCURVE",
"631 100 OFFCURVE",
"658 280 CURVE",
"470 280 LINE",
"454 182 OFFCURVE",
"434 147 OFFCURVE",
"341 147 CURVE SMOOTH",
"285 147 OFFCURVE",
"250 184 OFFCURVE",
"250 233 CURVE SMOOTH",
"250 244 OFFCURVE",
"259 306 OFFCURVE",
"278 440 CURVE SMOOTH",
"286 496 OFFCURVE",
"324 540 OFFCURVE",
"392 540 CURVE SMOOTH",
"450 540 OFFCURVE",
"484 509 OFFCURVE",
"484 457 CURVE SMOOTH",
"484 445 OFFCURVE",
"483 433 OFFCURVE",
"478 405 CURVE",
"675 405 LINE",
"678 424 OFFCURVE",
"679 441 OFFCURVE",
"679 460 CURVE SMOOTH",
"679 616 OFFCURVE",
"573 696 OFFCURVE",
"426 696 CURVE SMOOTH"
);
}
);
width = 684;
}
);
leftKerningGroup = O;
note = C;
rightKerningGroup = C;
unicode = 0043;
},
{
glyphname = D;
layers = (
{
anchors = (
{
name = center;
position = "{186, 348}";
},
{
name = top;
position = "{384, 686}";
}
);
layerId = "8F3315DA-A8CB-43B6-A496-83A18984EDD5";
paths = (
{
closed = 1;
nodes = (
"148 686 LINE",
"51 0 LINE",
"289 0 LINE SMOOTH",
"470 0 OFFCURVE",
"593 99 OFFCURVE",
"618 308 CURVE SMOOTH",
"629 402 OFFCURVE",
"631 421 OFFCURVE",
"631 442 CURVE SMOOTH",
"631 607 OFFCURVE",
"526 686 OFFCURVE",
"386 686 CURVE SMOOTH"
);
},
{
closed = 1;
nodes = (
"467 597 OFFCURVE",
"532 548 OFFCURVE",
"532 432 CURVE SMOOTH",
"532 415 OFFCURVE",
"530 397 OFFCURVE",
"519 308 CURVE SMOOTH",
"498 152 OFFCURVE",
"408 89 OFFCURVE",
"302 89 CURVE SMOOTH",
"162 89 LINE",
"233 597 LINE",
"373 597 LINE SMOOTH"
);
}
);
width = 677;
},
{
anchors = (
{
name = center;
position = "{188, 348}";
},
{
name = top;
position = "{381, 686}";
}
);
layerId = "4BBFD287-7A5F-4332-B846-65FFBCBF0D57";
paths = (
{
closed = 1;
nodes = (
"168 686 LINE",
"71 0 LINE",
"291 0 LINE SMOOTH",
"445 0 OFFCURVE",
"571 74 OFFCURVE",
"604 331 CURVE SMOOTH",
"612 391 OFFCURVE",
"614 421 OFFCURVE",
"614 450 CURVE SMOOTH",
"614 632 OFFCURVE",
"515 686 OFFCURVE",
"388 686 CURVE SMOOTH"
);
},
{
closed = 1;
nodes = (
"488 638 OFFCURVE",
"561 592 OFFCURVE",
"561 441 CURVE SMOOTH",
"561 418 OFFCURVE",
"559 393 OFFCURVE",
"549 322 CURVE SMOOTH",
"518 104 OFFCURVE",
"415 48 OFFCURVE",
"298 48 CURVE SMOOTH",
"132 48 LINE",
"215 638 LINE",
"381 638 LINE SMOOTH"
);
}
);
width = 671;
},
{
anchors = (
{
name = center;
position = "{181, 348}";
},
{
name = top;
position = "{384, 686}";
}
);
layerId = "B761BB45-E103-41B9-A767-1F2A3FFB8B31";
paths = (
{
closed = 1;
nodes = (
"120 686 LINE",
"23 0 LINE",
"268 0 LINE SMOOTH",
"478 0 OFFCURVE",
"602 98 OFFCURVE",
"630 294 CURVE SMOOTH",
"647 409 OFFCURVE",
"648 416 OFFCURVE",
"648 443 CURVE SMOOTH",
"648 593 OFFCURVE",
"541 686 OFFCURVE",
"395 686 CURVE SMOOTH"
);
},
{
closed = 1;
nodes = (
"437 563 OFFCURVE",
"488 520 OFFCURVE",
"488 449 CURVE SMOOTH",
"488 406 OFFCURVE",
"480 364 OFFCURVE",
"466 272 CURVE SMOOTH",
"451 174 OFFCURVE",
"388 123 OFFCURVE",
"301 123 CURVE SMOOTH",
"196 123 LINE",
"257 563 LINE",
"363 563 LINE SMOOTH"
);
}
);
width = 686;
},
{
anchors = (
{
name = center;
position = "{201, 348}";
},
{
name = top;
position = "{404, 686}";
}
);
layerId = "4FDE33F5-0064-4818-A7C2-FB87252213B5";
paths = (
{
closed = 1;
nodes = (
"113 686 LINE",
"16 0 LINE",
"325 0 LINE SMOOTH",
"520 0 OFFCURVE",
"642 134 OFFCURVE",
"667 300 CURVE SMOOTH",
"680 385 OFFCURVE",
"683 404 OFFCURVE",
"683 428 CURVE SMOOTH",
"683 574 OFFCURVE",
"574 686 OFFCURVE",
"422 686 CURVE SMOOTH"
);
},
{
closed = 1;
nodes = (
"431 530 OFFCURVE",
"467 492 OFFCURVE",
"467 443 CURVE SMOOTH",
"467 412 OFFCURVE",
"453 320 OFFCURVE",
"442 259 CURVE SMOOTH",
"432 203 OFFCURVE",
"396 159 OFFCURVE",
"328 159 CURVE SMOOTH",
"251 159 LINE",
"303 530 LINE",
"380 530 LINE SMOOTH"
);
}
);
width = 697;
}
);
leftKerningGroup = H;
note = D;
rightKerningGroup = O;
unicode = 0044;
},
{
glyphname = E;
layers = (
{
anchors = (
{
name = bottom;
position = "{284, 0}";
},
{
name = ogonek;
position = "{459, 0}";
},
{
name = top;
position = "{362, 686}";
}
);
layerId = "8F3315DA-A8CB-43B6-A496-83A18984EDD5";
paths = (
{
closed = 1;
nodes = (
"51 0 LINE",
"507 0 LINE",
"507 89 LINE",
"162 89 LINE",
"192 306 LINE",
"499 306 LINE",
"512 395 LINE",
"205 395 LINE",
"233 597 LINE",
"572 597 LINE",
"598 686 LINE",
"148 686 LINE"
);
}
);
width = 592;
},
{
anchors = (
{
name = bottom;
position = "{297, 0}";
},
{
name = ogonek;
position = "{436, 0}";
},
{
name = top;
position = "{373, 686}";
}
);
layerId = "4BBFD287-7A5F-4332-B846-65FFBCBF0D57";
paths = (
{
closed = 1;
nodes = (
"71 0 LINE",
"501 0 LINE",
"501 48 LINE",
"132 48 LINE",
"171 326 LINE",
"490 326 LINE",
"497 374 LINE",
"178 374 LINE",
"215 638 LINE",
"579 638 LINE",
"592 686 LINE",
"168 686 LINE"
);
}
);
width = 592;
},
{
anchors = (
{
name = bottom;
position = "{286, 0}";
},
{
name = ogonek;
position = "{450, 0}";
},
{
name = top;
position = "{359, 686}";
}
);
layerId = "B761BB45-E103-41B9-A767-1F2A3FFB8B31";
paths = (
{
closed = 1;
nodes = (
"23 0 LINE",
"509 0 LINE",
"509 123 LINE",
"193 123 LINE",
"216 290 LINE",
"509 290 LINE",
"526 413 LINE",
"233 413 LINE",
"254 563 LINE",
"568 563 LINE",
"603 686 LINE",
"120 686 LINE"
);
}
);
width = 598;
},
{
anchors = (
{
name = bottom;
position = "{277, 0}";
},
{
name = ogonek;
position = "{453, 0}";
},
{
name = top;
position = "{355, 686}";
}
);
layerId = "4FDE33F5-0064-4818-A7C2-FB87252213B5";
paths = (
{
closed = 1;
nodes = (
"16 0 LINE",
"531 0 LINE",
"531 164 LINE",
"245 164 LINE",
"261 275 LINE",
"539 275 LINE",
"560 428 LINE",
"282 428 LINE",
"297 528 LINE",
"586 528 LINE",
"628 686 LINE",
"113 686 LINE"
);
}
);
width = 600;
}
);
leftKerningGroup = H;
note = E;
rightKerningGroup = E;
unicode = 0045;
},
{
glyphname = Eogonek;
layers = (
{
background = {
paths = (
{
closed = 1;
nodes = (
"572 597 LINE",
"598 686 LINE",
"148 686 LINE",
"51 0 LINE",
"447 0 LINE",
"415 -19 OFFCURVE",
"382 -44 OFFCURVE",
"382 -83 CURVE SMOOTH",
"382 -128 OFFCURVE",
"426 -143 OFFCURVE",
"469 -143 CURVE SMOOTH",
"502 -143 OFFCURVE",
"533 -135 OFFCURVE",
"562 -119 CURVE",
"554 -82 LINE",
"531 -89 OFFCURVE",
"509 -96 OFFCURVE",
"485 -96 CURVE SMOOTH",
"466 -96 OFFCURVE",
"445 -88 OFFCURVE",
"445 -65 CURVE SMOOTH",
"445 -40 OFFCURVE",
"476 -11 OFFCURVE",
"501 0 CURVE",
"507 0 LINE",
"507 89 LINE",
"162 89 LINE",
"192 306 LINE",
"499 306 LINE",
"512 395 LINE",
"205 395 LINE",
"233 597 LINE"
);
}
);
};
components = (
{
name = E;
},
{
name = ogonekcomb;
transform = "{1, 0, 0, 1, 685, 0}";
}
);
layerId = "8F3315DA-A8CB-43B6-A496-83A18984EDD5";
width = 592;
},
{
background = {
paths = (
{
closed = 1;
nodes = (
"559 638 LINE",
"572 686 LINE",
"148 686 LINE",
"51 0 LINE",
"404 0 LINE",
"372 -19 OFFCURVE",
"339 -44 OFFCURVE",
"339 -83 CURVE SMOOTH",
"339 -129 OFFCURVE",
"383 -143 OFFCURVE",
"426 -143 CURVE SMOOTH",
"455 -143 OFFCURVE",
"486 -135 OFFCURVE",
"514 -119 CURVE",
"505 -86 LINE",
"483 -93 OFFCURVE",
"460 -100 OFFCURVE",
"436 -100 CURVE SMOOTH",
"417 -100 OFFCURVE",
"397 -93 OFFCURVE",
"397 -67 CURVE SMOOTH",
"397 -36 OFFCURVE",
"426 -17 OFFCURVE",
"450 -2 CURVE",
"454 0 LINE",
"481 0 LINE",
"481 48 LINE",
"112 48 LINE",
"151 326 LINE",
"470 326 LINE",
"477 374 LINE",
"158 374 LINE",
"195 638 LINE"
);
}
);
};
components = (
{
name = E;
},
{
name = ogonekcomb;
transform = "{1, 0, 0, 1, 657, 0}";
}
);
layerId = "4BBFD287-7A5F-4332-B846-65FFBCBF0D57";
width = 592;
},
{
background = {
paths = (
{
closed = 1;
nodes = (
"568 563 LINE",
"603 686 LINE",
"120 686 LINE",
"23 0 LINE",
"438 0 LINE",
"406 -19 OFFCURVE",
"373 -44 OFFCURVE",
"373 -83 CURVE SMOOTH",
"373 -129 OFFCURVE",
"417 -143 OFFCURVE",
"460 -143 CURVE SMOOTH",
"493 -143 OFFCURVE",
"529 -135 OFFCURVE",
"560 -119 CURVE",
"552 -79 LINE",
"530 -87 OFFCURVE",
"507 -93 OFFCURVE",
"483 -93 CURVE SMOOTH",
"464 -93 OFFCURVE",
"444 -86 OFFCURVE",
"444 -64 CURVE SMOOTH",
"444 -35 OFFCURVE",
"475 -13 OFFCURVE",
"500 0 CURVE",
"509 0 LINE",
"509 123 LINE",
"193 123 LINE",
"216 290 LINE",
"509 290 LINE",
"526 413 LINE",
"233 413 LINE",
"254 563 LINE"
);
}
);
};
components = (
{
name = E;
},
{
name = ogonekcomb;
transform = "{1, 0, 0, 1, 683, 0}";
}
);
layerId = "B761BB45-E103-41B9-A767-1F2A3FFB8B31";
width = 598;
},
{
background = {
paths = (
{
closed = 1;
nodes = (
"586 528 LINE",
"628 686 LINE",
"113 686 LINE",
"16 0 LINE",
"440 0 LINE",
"408 -19 OFFCURVE",
"375 -44 OFFCURVE",
"375 -83 CURVE SMOOTH",
"375 -128 OFFCURVE",
"419 -143 OFFCURVE",
"462 -143 CURVE SMOOTH",
"498 -143 OFFCURVE",
"535 -135 OFFCURVE",
"570 -119 CURVE",
"563 -76 LINE",
"540 -84 OFFCURVE",
"517 -90 OFFCURVE",
"494 -90 CURVE SMOOTH",
"475 -90 OFFCURVE",
"454 -83 OFFCURVE",
"454 -62 CURVE SMOOTH",
"454 -31 OFFCURVE",
"487 -13 OFFCURVE",
"510 0 CURVE",
"531 0 LINE",
"531 164 LINE",
"245 164 LINE",
"261 275 LINE",
"539 275 LINE",
"560 428 LINE",
"282 428 LINE",
"297 528 LINE"
);
}
);
};
components = (
{
name = E;
},
{
name = ogonekcomb;
transform = "{1, 0, 0, 1, 694, 0}";
}
);
layerId = "4FDE33F5-0064-4818-A7C2-FB87252213B5";
width = 600;
}
);
leftKerningGroup = H;
note = Eogonek;
rightKerningGroup = E;
unicode = 0118;
},
{
glyphname = F;
layers = (
{
layerId = "8F3315DA-A8CB-43B6-A496-83A18984EDD5";
paths = (
{
closed = 1;
nodes = (
"51 0 LINE",
"149 0 LINE",
"191 299 LINE",
"471 299 LINE",
"484 388 LINE",
"204 388 LINE",
"233 597 LINE",
"554 597 LINE",
"580 686 LINE",
"148 686 LINE"
);
}
);
width = 552;
},
{
layerId = "4BBFD287-7A5F-4332-B846-65FFBCBF0D57";
paths = (
{
closed = 1;
nodes = (
"71 0 LINE",
"125 0 LINE",
"171 326 LINE",
"464 326 LINE",
"471 374 LINE",
"178 374 LINE",
"215 638 LINE",
"561 638 LINE",
"574 686 LINE",
"168 686 LINE"
);
}
);
width = 552;
},
{
layerId = "B761BB45-E103-41B9-A767-1F2A3FFB8B31";
paths = (
{
closed = 1;
nodes = (
"23 0 LINE",
"175 0 LINE",
"214 276 LINE",
"480 276 LINE",
"497 399 LINE",
"231 399 LINE",
"254 563 LINE",
"550 563 LINE",
"584 686 LINE",
"120 686 LINE"
);
}
);
width = 563;
},
{
layerId = "4FDE33F5-0064-4818-A7C2-FB87252213B5";
paths = (
{
closed = 1;
nodes = (
"16 0 LINE",
"221 0 LINE",
"257 257 LINE",
"509 257 LINE",
"531 411 LINE",
"279 411 LINE",
"295 523 LINE",
"566 523 LINE",
"609 686 LINE",
"113 686 LINE"
);
}
);
width = 563;
}
);
leftKerningGroup = H;
note = F;
rightKerningGroup = F;
unicode = 0046;
},
{
glyphname = Fhook;
layers = (
{
layerId = "4BBFD287-7A5F-4332-B846-65FFBCBF0D57";
paths = (
{
closed = 1;
nodes = (
"-60 -179 OFFCURVE",
"-35 -186 OFFCURVE",
"-10 -186 CURVE SMOOTH",
"49 -186 OFFCURVE",
"98 -152 OFFCURVE",
"109 -75 CURVE SMOOTH",
"166 326 LINE",
"459 326 LINE",
"466 374 LINE",
"173 374 LINE",
"210 638 LINE",
"556 638 LINE",
"569 686 LINE",
"163 686 LINE",
"56 -73 LINE SMOOTH",
"48 -132 OFFCURVE",
"16 -140 OFFCURVE",
"-10 -140 CURVE SMOOTH",
"-25 -140 OFFCURVE",
"-54 -131 OFFCURVE",
"-69 -124 CURVE",
"-76 -169 LINE"
);
}
);
width = 547;
},
{
layerId = "B761BB45-E103-41B9-A767-1F2A3FFB8B31";
paths = (
{
closed = 1;
nodes = (
"-91 -179 OFFCURVE",
"-41 -186 OFFCURVE",
"-10 -186 CURVE SMOOTH",
"90 -186 OFFCURVE",
"156 -133 OFFCURVE",
"172 -20 CURVE SMOOTH",
"214 276 LINE",
"480 276 LINE",
"497 399 LINE",
"231 399 LINE",
"254 563 LINE",
"550 563 LINE",
"584 686 LINE",
"120 686 LINE",
"20 -18 LINE SMOOTH",
"12 -77 OFFCURVE",
"-16 -86 OFFCURVE",
"-44 -86 CURVE SMOOTH",
"-59 -86 OFFCURVE",
"-89 -80 OFFCURVE",
"-103 -73 CURVE",
"-116 -166 LINE"
);
}
);
width = 563;
},
{
layerId = "8F3315DA-A8CB-43B6-A496-83A18984EDD5";
paths = (
{
closed = 1;
nodes = (
"-68 -179 OFFCURVE",
"-33 -186 OFFCURVE",
"-5 -186 CURVE SMOOTH",
"87 -186 OFFCURVE",
"130 -134 OFFCURVE",
"147 -15 CURVE SMOOTH",
"191 299 LINE",
"471 299 LINE",
"484 388 LINE",
"204 388 LINE",
"233 597 LINE",
"554 597 LINE",
"580 686 LINE",
"148 686 LINE",
"45 -44 LINE SMOOTH",
"37 -103 OFFCURVE",
"6 -112 OFFCURVE",
"-20 -112 CURVE SMOOTH",
"-35 -112 OFFCURVE",
"-63 -104 OFFCURVE",
"-78 -97 CURVE",
"-87 -167 LINE"
);
}
);
width = 552;
},
{
layerId = "4FDE33F5-0064-4818-A7C2-FB87252213B5";
paths = (
{
closed = 1;
nodes = (
"-92 -178 OFFCURVE",
"-29 -187 OFFCURVE",
"6 -187 CURVE SMOOTH",
"115 -187 OFFCURVE",
"202 -134 OFFCURVE",
"217 -26 CURVE SMOOTH",
"257 257 LINE",
"509 257 LINE",
"531 411 LINE",
"279 411 LINE",
"295 523 LINE",
"566 523 LINE",
"609 686 LINE",
"113 686 LINE",
"16 0 LINE SMOOTH",
"8 -55 OFFCURVE",
"-21 -65 OFFCURVE",
"-48 -65 CURVE SMOOTH",
"-63 -65 OFFCURVE",
"-93 -60 OFFCURVE",
"-108 -53 CURVE",
"-124 -165 LINE"
);
}
);
width = 563;
}
);
leftKerningGroup = j;
rightKerningGroup = F;
unicode = 0191;
},
{
glyphname = G;
layers = (
{
anchors = (
{
name = bottom;
position = "{293, 0}";
},
{
name = top;
position = "{391, 686}";
}
);
background = {
paths = (
{
closed = 1;
nodes = (
"221 696 OFFCURVE",
"105 597 OFFCURVE",
"75 388 CURVE SMOOTH",
"58 275 OFFCURVE",
"57 253 OFFCURVE",
"57 232 CURVE SMOOTH",
"57 69 OFFCURVE",
"156 -10 OFFCURVE",
"301 -10 CURVE SMOOTH",
"382 -10 OFFCURVE",
"453 21 OFFCURVE",
"505 82 CURVE",
"506 35 OFFCURVE",
"510 8 OFFCURVE",
"513 0 CURVE",
"571 0 LINE",
"571 25 OFFCURVE",
"572 66 OFFCURVE",
"583 128 CURVE",
"616 362 LINE",
"326 362 LINE",
"314 274 LINE",
"508 274 LINE",
"506 261 LINE SMOOTH",
"486 133 OFFCURVE",
"429 79 OFFCURVE",
"313 79 CURVE SMOOTH",
"217 79 OFFCURVE",
"156 126 OFFCURVE",
"156 241 CURVE SMOOTH",
"156 258 OFFCURVE",
"157 279 OFFCURVE",
"173 388 CURVE SMOOTH",
"195 544 OFFCURVE",
"279 607 OFFCURVE",
"388 607 CURVE SMOOTH",
"471 607 OFFCURVE",
"532 569 OFFCURVE",
"532 478 CURVE SMOOTH",
"532 467 OFFCURVE",
"531 456 OFFCURVE",
"530 445 CURVE",
"628 445 LINE",
"630 460 OFFCURVE",
"631 474 OFFCURVE",
"631 489 CURVE SMOOTH",
"631 627 OFFCURVE",
"530 696 OFFCURVE",
"400 696 CURVE SMOOTH"
);
}
);
};
layerId = "8F3315DA-A8CB-43B6-A496-83A18984EDD5";
paths = (
{
closed = 1;
nodes = (
"398 696 LINE SMOOTH",
"222 696 OFFCURVE",
"105 597 OFFCURVE",
"75 388 CURVE SMOOTH",
"58 275 OFFCURVE",
"57 253 OFFCURVE",
"57 232 CURVE SMOOTH",
"57 72 OFFCURVE",
"156 -10 OFFCURVE",
"295 -10 CURVE SMOOTH",
"303 -10 LINE SMOOTH",
"382 -10 OFFCURVE",
"453 21 OFFCURVE",
"505 82 CURVE",
"513 0 LINE",
"571 0 LINE",
"571 25 OFFCURVE",
"572 66 OFFCURVE",
"583 128 CURVE",
"616 362 LINE",
"326 362 LINE",
"314 274 LINE",
"508 274 LINE",
"506 261 LINE SMOOTH",
"486 133 OFFCURVE",
"429 79 OFFCURVE",
"313 79 CURVE SMOOTH",
"217 79 OFFCURVE",
"156 126 OFFCURVE",
"156 241 CURVE SMOOTH",
"156 258 OFFCURVE",
"157 279 OFFCURVE",
"173 388 CURVE SMOOTH",
"195 544 OFFCURVE",
"279 607 OFFCURVE",
"388 607 CURVE SMOOTH",
"471 607 OFFCURVE",
"532 569 OFFCURVE",
"532 478 CURVE SMOOTH",
"532 467 OFFCURVE",
"531 456 OFFCURVE",
"530 445 CURVE",
"628 445 LINE",
"630 460 OFFCURVE",
"631 474 OFFCURVE",
"631 489 CURVE SMOOTH",
"631 625 OFFCURVE",
"529 696 OFFCURVE",
"405 696 CURVE SMOOTH"
);
}
);
width = 675;
},
{
anchors = (
{
name = bottom;
position = "{299, 0}";
},
{
name = top;
position = "{397, 686}";
}
);
background = {
paths = (
{
closed = 1;
nodes = (
"251 696 OFFCURVE",
"128 631 OFFCURVE",
"92 356 CURVE SMOOTH",
"83 289 OFFCURVE",
"81 254 OFFCURVE",
"81 223 CURVE SMOOTH",
"81 37 OFFCURVE",
"177 -10 OFFCURVE",
"309 -10 CURVE SMOOTH",
"386 -10 OFFCURVE",
"470 18 OFFCURVE",
"520 92 CURVE",
"520 30 OFFCURVE",
"523 0 OFFCURVE",
"523 0 CURVE",
"560 0 LINE",
"560 0 OFFCURVE",
"561 48 OFFCURVE",
"571 119 CURVE SMOOTH",
"603 350 LINE",
"321 350 LINE",
"315 303 LINE",
"547 303 LINE",
"540 251 LINE SMOOTH",
"518 79 OFFCURVE",
"408 38 OFFCURVE",
"316 38 CURVE SMOOTH",
"210 38 OFFCURVE",
"134 76 OFFCURVE",
"134 227 CURVE SMOOTH",
"134 254 OFFCURVE",
"135 284 OFFCURVE",
"147 368 CURVE SMOOTH",
"179 595 OFFCURVE",
"274 648 OFFCURVE",
"391 648 CURVE SMOOTH",
"482 648 OFFCURVE",
"567 616 OFFCURVE",
"567 494 CURVE SMOOTH",
"567 480 OFFCURVE",
"566 465 OFFCURVE",
"564 449 CURVE",
"617 449 LINE",
"620 469 OFFCURVE",
"621 487 OFFCURVE",
"621 504 CURVE SMOOTH",
"621 655 OFFCURVE",
"514 696 OFFCURVE",
"398 696 CURVE SMOOTH"
);
}
);
};
layerId = "4BBFD287-7A5F-4332-B846-65FFBCBF0D57";
paths = (
{
closed = 1;
nodes = (
"397 696 LINE SMOOTH",
"251 696 OFFCURVE",
"128 631 OFFCURVE",
"92 356 CURVE SMOOTH",
"83 289 OFFCURVE",
"81 254 OFFCURVE",
"81 223 CURVE SMOOTH",
"81 39 OFFCURVE",
"175 -10 OFFCURVE",
"305 -10 CURVE SMOOTH",
"310 -10 LINE SMOOTH",
"386 -10 OFFCURVE",
"470 18 OFFCURVE",
"520 92 CURVE",
"523 0 LINE",
"560 0 LINE",
"560 0 OFFCURVE",
"561 48 OFFCURVE",
"571 119 CURVE SMOOTH",
"603 350 LINE",
"321 350 LINE",
"315 303 LINE",
"547 303 LINE",
"540 251 LINE SMOOTH",
"518 79 OFFCURVE",
"408 38 OFFCURVE",
"316 38 CURVE SMOOTH",
"210 38 OFFCURVE",
"134 76 OFFCURVE",
"134 227 CURVE SMOOTH",
"134 254 OFFCURVE",
"135 284 OFFCURVE",
"147 368 CURVE SMOOTH",
"179 595 OFFCURVE",
"274 648 OFFCURVE",
"391 648 CURVE SMOOTH",
"482 648 OFFCURVE",
"567 616 OFFCURVE",
"567 494 CURVE SMOOTH",
"567 480 OFFCURVE",
"566 465 OFFCURVE",
"564 449 CURVE",
"617 449 LINE",
"620 469 OFFCURVE",
"621 487 OFFCURVE",
"621 504 CURVE SMOOTH",
"621 652 OFFCURVE",
"516 696 OFFCURVE",
"403 696 CURVE SMOOTH"
);
}
);
width = 674;
},
{
anchors = (
{
name = bottom;
position = "{301, 0}";
},
{
name = top;
position = "{399, 686}";
}
);
layerId = "B761BB45-E103-41B9-A767-1F2A3FFB8B31";
paths = (
{
closed = 1;
nodes = (
"397 696 LINE SMOOTH",
"205 696 OFFCURVE",
"80 579 OFFCURVE",
"54 392 CURVE SMOOTH",
"44 321 OFFCURVE",
"36 261 OFFCURVE",
"36 238 CURVE SMOOTH",
"36 84 OFFCURVE",
"134 -10 OFFCURVE",
"281 -10 CURVE SMOOTH",
"286 -10 LINE SMOOTH",
"377 -10 OFFCURVE",
"441 23 OFFCURVE",
"492 77 CURVE",
"505 0 LINE",
"590 0 LINE",
"590 47 OFFCURVE",
"597 92 OFFCURVE",
"603 136 CURVE SMOOTH",
"636 373 LINE",
"336 373 LINE",
"320 261 LINE",
"475 261 LINE",
"472 240 LINE SMOOTH",
"459 149 OFFCURVE",
"391 113 OFFCURVE",
"318 113 CURVE SMOOTH",
"243 113 OFFCURVE",
"196 160 OFFCURVE",
"196 240 CURVE SMOOTH",
"196 269 OFFCURVE",
"212 412 OFFCURVE",
"246 486 CURVE SMOOTH",
"270 539 OFFCURVE",
"318 573 OFFCURVE",
"383 573 CURVE SMOOTH",
"448 573 OFFCURVE",
"501 544 OFFCURVE",
"501 468 CURVE SMOOTH",
"501 460 OFFCURVE",
"501 451 OFFCURVE",
"500 442 CURVE",
"646 442 LINE",
"647 453 OFFCURVE",
"649 470 OFFCURVE",
"649 484 CURVE SMOOTH",
"649 617 OFFCURVE",
"545 696 OFFCURVE",
"411 696 CURVE SMOOTH"
);
}
);
width = 699;
},
{
anchors = (
{
name = bottom;
position = "{301, 0}";
},
{
name = top;
position = "{399, 686}";
}
);
layerId = "4FDE33F5-0064-4818-A7C2-FB87252213B5";
paths = (
{
closed = 1;
nodes = (
"407 696 LINE SMOOTH",
"199 696 OFFCURVE",
"69 562 OFFCURVE",
"46 396 CURVE SMOOTH",
"31 290 OFFCURVE",
"28 272 OFFCURVE",
"28 244 CURVE SMOOTH",
"28 100 OFFCURVE",
"125 -10 OFFCURVE",
"275 -10 CURVE SMOOTH",
"285 -10 LINE SMOOTH",
"385 -10 OFFCURVE",
"443 25 OFFCURVE",
"493 73 CURVE",
"510 0 LINE",
"622 0 LINE",
"622 29 OFFCURVE",
"624 74 OFFCURVE",
"636 144 CURVE SMOOTH",
"669 384 LINE",
"359 384 LINE",
"340 248 LINE",
"456 248 LINE",
"454 236 LINE SMOOTH",
"443 171 OFFCURVE",
"405 147 OFFCURVE",
"337 147 CURVE SMOOTH",
"286 147 OFFCURVE",
"250 184 OFFCURVE",
"250 233 CURVE SMOOTH",
"250 243 OFFCURVE",
"256 290 OFFCURVE",
"278 440 CURVE SMOOTH",
"286 496 OFFCURVE",
"328 540 OFFCURVE",
"392 540 CURVE SMOOTH",
"452 540 OFFCURVE",
"484 512 OFFCURVE",
"484 459 CURVE SMOOTH",
"484 446 OFFCURVE",
"484 442 OFFCURVE",
"483 439 CURVE",
"677 439 LINE",
"679 457 OFFCURVE",
"680 466 OFFCURVE",
"680 479 CURVE SMOOTH",
"680 607 OFFCURVE",
"573 696 OFFCURVE",
"435 696 CURVE SMOOTH"
);
}
);
width = 699;
}
);
leftKerningGroup = O;
note = G;
rightKerningGroup = G;
unicode = 0047;
},
{
glyphname = H;
layers = (
{
anchors = (
{
name = bottom;
position = "{298, 0}";
},
{
name = center;
position = "{379, 538}";
},
{
name = top;
position = "{396, 686}";
}
);
layerId = "8F3315DA-A8CB-43B6-A496-83A18984EDD5";
paths = (
{
closed = 1;
nodes = (
"148 686 LINE",
"51 0 LINE",
"149 0 LINE",
"192 306 LINE",
"505 306 LINE",
"462 0 LINE",
"560 0 LINE",
"657 686 LINE",
"559 686 LINE",
"518 395 LINE",
"205 395 LINE",
"246 686 LINE"
);
}
);
width = 693;
},
{
anchors = (
{
name = bottom;
position = "{301, 0}";
},
{
name = center;
position = "{380, 538}";
},
{
name = top;
position = "{399, 686}";
}
);
layerId = "4BBFD287-7A5F-4332-B846-65FFBCBF0D57";
paths = (
{
closed = 1;
nodes = (
"168 686 LINE",
"71 0 LINE",
"125 0 LINE",
"171 326 LINE",
"542 326 LINE",
"496 0 LINE",
"550 0 LINE",
"647 686 LINE",
"593 686 LINE",
"549 374 LINE",
"178 374 LINE",
"222 686 LINE"
);
}
);
width = 693;
},
{
anchors = (
{
name = bottom;
position = "{292, 0}";
},
{
name = center;
position = "{371, 538}";
},
{
name = top;
position = "{392, 686}";
}
);
layerId = "B761BB45-E103-41B9-A767-1F2A3FFB8B31";
paths = (
{
closed = 1;
nodes = (
"120 686 LINE",
"23 0 LINE",
"178 0 LINE",
"218 286 LINE",
"455 286 LINE",
"415 0 LINE",
"569 0 LINE",
"666 686 LINE",
"512 686 LINE",
"473 414 LINE",
"235 414 LINE",
"274 686 LINE"
);
}
);
width = 691;
},
{
anchors = (
{
name = bottom;
position = "{298, 0}";
},
{
name = center;
position = "{379, 547}";
},
{
name = top;
position = "{396, 686}";
}
);
layerId = "4FDE33F5-0064-4818-A7C2-FB87252213B5";
paths = (
{
closed = 1;
nodes = (
"113 686 LINE",
"16 0 LINE",
"227 0 LINE",
"265 267 LINE",
"427 267 LINE",
"389 0 LINE",
"599 0 LINE",
"696 686 LINE",
"485 686 LINE",
"449 433 LINE",
"287 433 LINE",
"323 686 LINE"
);
}
);
width = 697;
}
);
leftKerningGroup = H;
note = H;
rightKerningGroup = H;
unicode = 0048;
},
{
glyphname = I;
layers = (
{
anchors = (
{
name = bottom;
position = "{136, 0}";
},
{
name = ogonek;
position = "{214, 0}";
},
{
name = top;
position = "{233, 686}";
}
);
layerId = "8F3315DA-A8CB-43B6-A496-83A18984EDD5";
paths = (
{
closed = 1;
nodes = (
"109 686 LINE",
"96 597 LINE",
"176 597 LINE",
"105 89 LINE",
"25 89 LINE",
"12 0 LINE",
"270 0 LINE",
"283 89 LINE",
"203 89 LINE",
"274 597 LINE",
"354 597 LINE",
"367 686 LINE"
);
}
);
width = 365;
},
{
anchors = (
{
name = bottom;
position = "{144, 0}";
},
{
name = ogonek;
position = "{203, 0}";
},
{
name = top;
position = "{241, 686}";
}
);
layerId = "4BBFD287-7A5F-4332-B846-65FFBCBF0D57";
paths = (
{
closed = 1;
nodes = (
"137 686 LINE",
"130 637 LINE",
"209 637 LINE",
"126 49 LINE",
"47 49 LINE",
"40 0 LINE",
"252 0 LINE",
"259 49 LINE",
"180 49 LINE",
"263 637 LINE",
"342 637 LINE",
"349 686 LINE"
);
}
);
width = 364;
},
{
anchors = (
{
name = bottom;
position = "{177, 0}";
},
{
name = ogonek;
position = "{271, 0}";
},
{
name = top;
position = "{274, 686}";
}
);
layerId = "B761BB45-E103-41B9-A767-1F2A3FFB8B31";
paths = (
{
closed = 1;
nodes = (
"120 686 LINE",
"102 563 LINE",
"183 563 LINE",
"122 123 LINE",
"41 123 LINE",
"23 0 LINE",
"339 0 LINE",
"357 123 LINE",
"277 123 LINE",
"338 563 LINE",
"418 563 LINE",
"436 686 LINE"
);
}
);
width = 461;
},
{
anchors = (
{
name = bottom;
position = "{173, 0}";
},
{
name = ogonek;
position = "{301, 0}";
},
{
name = top;
position = "{270, 686}";
}
);
layerId = "4FDE33F5-0064-4818-A7C2-FB87252213B5";
paths = (
{
closed = 1;
nodes = (
"92 686 LINE",
"71 539 LINE",
"152 539 LINE",
"97 148 LINE",
"16 148 LINE",
"-5 0 LINE",
"369 0 LINE",
"390 148 LINE",
"309 148 LINE",
"364 539 LINE",
"445 539 LINE",
"466 686 LINE"
);
}
);
width = 446;
}
);
leftKerningGroup = H;
note = I;
rightKerningGroup = H;
unicode = 0049;
},
{
glyphname = J;
layers = (
{
anchors = (
{
name = top;
position = "{441, 686}";
}
);
layerId = "8F3315DA-A8CB-43B6-A496-83A18984EDD5";
paths = (
{
closed = 1;
nodes = (
"394 686 LINE",
"323 181 LINE SMOOTH",
"314 118 OFFCURVE",
"266 79 OFFCURVE",
"199 79 CURVE SMOOTH",
"147 79 OFFCURVE",
"108 114 OFFCURVE",
"108 166 CURVE SMOOTH",
"108 171 OFFCURVE",
"108 185 OFFCURVE",
"113 208 CURVE",
"16 208 LINE",
"9 176 OFFCURVE",
"10 161 OFFCURVE",
"10 149 CURVE SMOOTH",
"10 43 OFFCURVE",
"93 -10 OFFCURVE",
"183 -10 CURVE SMOOTH",
"192 -10 LINE SMOOTH",
"320 -10 OFFCURVE",
"403 55 OFFCURVE",
"422 187 CURVE SMOOTH",
"492 686 LINE"
);
}
);
width = 525;
},
{
anchors = (
{
name = top;
position = "{458, 686}";
}
);
layerId = "4BBFD287-7A5F-4332-B846-65FFBCBF0D57";
paths = (
{
closed = 1;
nodes = (
"433 686 LINE",
"361 172 LINE SMOOTH",
"348 78 OFFCURVE",
"280 38 OFFCURVE",
"203 38 CURVE SMOOTH",
"133 38 OFFCURVE",
"81 70 OFFCURVE",
"81 146 CURVE SMOOTH",
"81 154 OFFCURVE",
"81 163 OFFCURVE",
"85 185 CURVE",
"35 185 LINE",
"30 155 OFFCURVE",
"30 145 OFFCURVE",
"30 135 CURVE SMOOTH",
"30 41 OFFCURVE",
"100 -10 OFFCURVE",
"193 -10 CURVE SMOOTH",
"198 -10 LINE SMOOTH",
"312 -10 OFFCURVE",
"398 50 OFFCURVE",
"414 166 CURVE SMOOTH",
"487 686 LINE"
);
}
);
width = 525;
},
{
anchors = (
{
name = top;
position = "{424, 686}";
}
);
layerId = "B761BB45-E103-41B9-A767-1F2A3FFB8B31";
paths = (
{
closed = 1;
nodes = (
"352 686 LINE",
"282 187 LINE SMOOTH",
"276 142 OFFCURVE",
"242 113 OFFCURVE",
"200 113 CURVE SMOOTH",
"156 113 OFFCURVE",
"132 142 OFFCURVE",
"132 178 CURVE SMOOTH",
"132 198 OFFCURVE",
"139 228 OFFCURVE",
"139 228 CURVE SMOOTH",
"-5 228 LINE",
"-14 179 OFFCURVE",
"-14 158 OFFCURVE",
"-14 147 CURVE SMOOTH",
"-14 44 OFFCURVE",
"77 -10 OFFCURVE",
"178 -10 CURVE SMOOTH",
"198 -10 LINE SMOOTH",
"318 -10 OFFCURVE",
"416 56 OFFCURVE",
"433 183 CURVE SMOOTH",
"503 686 LINE"
);
}
);
width = 527;
},
{
anchors = (
{
name = top;
position = "{435, 686}";
}
);
layerId = "4FDE33F5-0064-4818-A7C2-FB87252213B5";
paths = (
{
closed = 1;
nodes = (
"339 686 LINE",
"269 186 LINE SMOOTH",
"265 158 OFFCURVE",
"244 140 OFFCURVE",
"221 140 CURVE SMOOTH",
"201 140 OFFCURVE",
"185 155 OFFCURVE",
"185 178 CURVE SMOOTH",
"185 182 OFFCURVE",
"189 210 OFFCURVE",
"195 248 CURVE",
"3 248 LINE",
"-7 189 OFFCURVE",
"-9 170 OFFCURVE",
"-9 158 CURVE SMOOTH",
"-9 46 OFFCURVE",
"58 -10 OFFCURVE",
"186 -10 CURVE SMOOTH",
"217 -10 LINE SMOOTH",
"350 -10 OFFCURVE",
"454 55 OFFCURVE",
"473 180 CURVE SMOOTH",
"544 686 LINE"
);
}
);
width = 543;
}
);
leftKerningGroup = J;
note = J;
rightKerningGroup = J;
unicode = 004A;
},
{
glyphname = K;
layers = (
{
anchors = (
{
name = bottom;
position = "{284, 0}";
}
);
layerId = "8F3315DA-A8CB-43B6-A496-83A18984EDD5";
paths = (
{
closed = 1;
nodes = (
"148 686 LINE",
"51 0 LINE",
"149 0 LINE",
"178 206 LINE",
"290 308 LINE",
"454 0 LINE",
"568 0 LINE",
"362 383 LINE",
"657 686 LINE",
"544 686 LINE",
"196 329 LINE",
"246 686 LINE"
);
}
);
width = 621;
},
{
anchors = (
{
name = bottom;
position = "{294, 0}";
}
);
layerId = "4BBFD287-7A5F-4332-B846-65FFBCBF0D57";
paths = (
{
closed = 1;
nodes = (
"168 686 LINE",
"71 0 LINE",
"125 0 LINE",
"155 208 LINE",
"297 346 LINE",
"492 0 LINE",
"560 0 LINE",
"340 387 LINE",
"649 686 LINE",
"585 686 LINE",
"165 279 LINE",
"222 686 LINE"
);
}
);
width = 621;
},
{
anchors = (
{
name = bottom;
position = "{284, 0}";
}
);
layerId = "B761BB45-E103-41B9-A767-1F2A3FFB8B31";
paths = (
{
closed = 1;
nodes = (
"120 686 LINE",
"23 0 LINE",
"174 0 LINE",
"199 179 LINE",
"302 278 LINE",
"426 0 LINE",
"601 0 LINE",
"419 397 LINE",
"691 686 LINE",
"518 686 LINE",
"227 372 LINE",
"271 686 LINE"
);
}
);
width = 660;
},
{
anchors = (
{
name = bottom;
position = "{306, 0}";
}
);
layerId = "4FDE33F5-0064-4818-A7C2-FB87252213B5";
paths = (
{
closed = 1;
nodes = (
"113 686 LINE",
"16 0 LINE",
"220 0 LINE",
"242 152 LINE",
"335 248 LINE",
"419 0 LINE",
"654 0 LINE",
"497 411 LINE",
"745 686 LINE",
"513 686 LINE",
"279 415 LINE",
"317 686 LINE"
);
}
);
width = 684;
}
);
leftKerningGroup = H;
note = K;
rightKerningGroup = K;
unicode = 004B;
},
{
glyphname = L;
layers = (
{
anchors = (
{
name = bottom;
position = "{273, 0}";
},
{
name = center;
position = "{155, 375}";
},
{
name = top;
position = "{192, 686}";
},
{
name = topright;
position = "{213, 397}";
}
);
layerId = "8F3315DA-A8CB-43B6-A496-83A18984EDD5";
paths = (
{
closed = 1;
nodes = (
"51 0 LINE",
"477 0 LINE",
"477 89 LINE",
"162 89 LINE",
"246 686 LINE",
"148 686 LINE"
);
}
);
width = 532;
},
{
anchors = (
{
name = bottom;
position = "{274, 0}";
},
{
name = center;
position = "{152, 355}";
},
{
name = top;
position = "{193, 686}";
},
{
name = topright;
position = "{253, 471}";
}
);
layerId = "4BBFD287-7A5F-4332-B846-65FFBCBF0D57";
paths = (
{
closed = 1;
nodes = (
"71 0 LINE",
"474 0 LINE",
"474 48 LINE",
"132 48 LINE",
"222 686 LINE",
"168 686 LINE"
);
}
);
width = 532;
},
{
anchors = (
{
name = bottom;
position = "{276, 0}";
},
{
name = center;
position = "{153, 375}";
},
{
name = top;
position = "{195, 686}";
},
{
name = topright;
position = "{165, 335}";
}
);
layerId = "B761BB45-E103-41B9-A767-1F2A3FFB8B31";
paths = (
{
closed = 1;
nodes = (
"23 0 LINE",
"477 0 LINE",
"477 128 LINE",
"196 128 LINE",
"275 686 LINE",
"120 686 LINE"
);
}
);
width = 533;
},
{
anchors = (
{
name = bottom;
position = "{294, 0}";
},
{
name = center;
position = "{177, 395}";
},
{
name = top;
position = "{213, 686}";
},
{
name = topright;
position = "{111, 290}";
}
);
layerId = "4FDE33F5-0064-4818-A7C2-FB87252213B5";
paths = (
{
closed = 1;
nodes = (
"16 0 LINE",
"497 0 LINE",
"497 168 LINE",
"252 168 LINE",
"325 686 LINE",
"113 686 LINE"
);
}
);
width = 540;
}
);
leftKerningGroup = H;
note = L;
rightKerningGroup = L;
unicode = 004C;
},
{
glyphname = M;
layers = (
{
layerId = "8F3315DA-A8CB-43B6-A496-83A18984EDD5";
paths = (
{
closed = 1;
nodes = (
"148 686 LINE",
"51 0 LINE",
"140 0 LINE",
"221 571 LINE",
"226 571 LINE",
"381 0 LINE",
"464 0 LINE",
"782 571 LINE",
"788 571 LINE",
"707 0 LINE",
"805 0 LINE",
"902 686 LINE",
"749 686 LINE",
"451 146 LINE",
"447 146 LINE",
"302 686 LINE"
);
}
);
width = 938;
},
{
layerId = "4BBFD287-7A5F-4332-B846-65FFBCBF0D57";
paths = (
{
closed = 1;
nodes = (
"168 686 LINE",
"71 0 LINE",
"119 0 LINE",
"207 625 LINE",
"212 625 LINE",
"397 0 LINE",
"448 0 LINE",
"811 625 LINE",
"816 625 LINE",
"728 0 LINE",
"782 0 LINE",
"879 686 LINE",
"794 686 LINE",
"438 70 LINE",
"434 70 LINE",
"254 686 LINE"
);
}
);
width = 925;
},
{
layerId = "B761BB45-E103-41B9-A767-1F2A3FFB8B31";
paths = (
{
closed = 1;
nodes = (
"120 686 LINE",
"23 0 LINE",
"163 0 LINE",
"234 505 LINE",
"239 505 LINE",
"346 0 LINE",
"508 0 LINE",
"757 505 LINE",
"762 505 LINE",
"691 0 LINE",
"845 0 LINE",
"942 686 LINE",
"693 686 LINE",
"469 233 LINE",
"465 233 LINE",
"369 686 LINE"
);
}
);
width = 967;
},
{
layerId = "4FDE33F5-0064-4818-A7C2-FB87252213B5";
paths = (
{
closed = 1;
nodes = (
"113 686 LINE",
"16 0 LINE",
"207 0 LINE",
"269 440 LINE",
"274 440 LINE",
"331 0 LINE",
"572 0 LINE",
"754 440 LINE",
"758 440 LINE",
"696 0 LINE",
"906 0 LINE",
"1003 686 LINE",
"657 686 LINE",
"508 320 LINE",
"504 320 LINE",
"457 686 LINE"
);
}
);
width = 1004;
}
);
leftKerningGroup = H;
note = M;
rightKerningGroup = H;
unicode = 004D;
},
{
glyphname = N;
layers = (
{
anchors = (
{
name = bottom;
position = "{301, 0}";
},
{
name = top;
position = "{400, 686}";
}
);
layerId = "8F3315DA-A8CB-43B6-A496-83A18984EDD5";
paths = (
{
closed = 1;
nodes = (
"148 686 LINE",
"51 0 LINE",
"140 0 LINE",
"211 504 LINE",
"214 505 LINE",
"240 453 LINE",
"478 0 LINE",
"561 0 LINE",
"658 686 LINE",
"569 686 LINE",
"499 188 LINE",
"496 187 LINE",
"471 237 LINE",
"234 686 LINE"
);
}
);
width = 694;
},
{
anchors = (
{
name = bottom;
position = "{304, 0}";
},
{
name = top;
position = "{403, 686}";
}
);
layerId = "4BBFD287-7A5F-4332-B846-65FFBCBF0D57";
paths = (
{
closed = 1;
nodes = (
"168 686 LINE",
"71 0 LINE",
"119 0 LINE",
"201 585 LINE",
"205 585 LINE",
"228 537 LINE",
"502 0 LINE",
"550 0 LINE",
"647 686 LINE",
"599 686 LINE",
"517 101 LINE",
"513 101 LINE",
"493 143 LINE",
"214 686 LINE"
);
}
);
width = 693;
},
{
anchors = (
{
name = bottom;
position = "{293, 0}";
},
{
name = top;
position = "{392, 686}";
}
);
layerId = "B761BB45-E103-41B9-A767-1F2A3FFB8B31";
paths = (
{
closed = 1;
nodes = (
"120 686 LINE",
"23 0 LINE",
"164 0 LINE",
"221 402 LINE",
"225 405 LINE",
"268 316 LINE",
"438 0 LINE",
"569 0 LINE",
"666 686 LINE",
"525 686 LINE",
"468 283 LINE",
"465 280 LINE",
"422 368 LINE",
"251 686 LINE"
);
}
);
width = 691;
},
{
anchors = (
{
name = bottom;
position = "{293, 0}";
},
{
name = top;
position = "{392, 686}";
}
);
layerId = "4FDE33F5-0064-4818-A7C2-FB87252213B5";
paths = (
{
closed = 1;
nodes = (
"113 686 LINE",
"16 0 LINE",
"209 0 LINE",
"251 304 LINE",
"255 304 LINE",
"282 246 LINE",
"418 0 LINE",
"598 0 LINE",
"695 686 LINE",
"501 686 LINE",
"458 376 LINE",
"455 375 LINE",
"429 431 LINE",
"289 686 LINE"
);
}
);
width = 696;
}
);
leftKerningGroup = H;
note = N;
rightKerningGroup = H;
unicode = 004E;
},
{
glyphname = Eng;
layers = (
{
layerId = "4BBFD287-7A5F-4332-B846-65FFBCBF0D57";
paths = (
{
closed = 1;
nodes = (
"119 0 LINE",
"201 585 LINE",
"205 585 LINE",
"228 537 LINE",
"500 4 LINE",
"489 -73 LINE SMOOTH",
"481 -132 OFFCURVE",
"449 -140 OFFCURVE",
"423 -140 CURVE SMOOTH",
"408 -140 OFFCURVE",
"379 -131 OFFCURVE",
"364 -124 CURVE",
"357 -169 LINE",
"373 -179 OFFCURVE",
"398 -186 OFFCURVE",
"423 -186 CURVE SMOOTH",
"482 -186 OFFCURVE",
"528 -152 OFFCURVE",
"539 -75 CURVE SMOOTH",
"647 686 LINE",
"599 686 LINE",
"517 101 LINE",
"513 101 LINE",
"493 143 LINE",
"214 686 LINE",
"168 686 LINE",
"71 0 LINE"
);
}
);
width = 693;
},
{
layerId = "B761BB45-E103-41B9-A767-1F2A3FFB8B31";
paths = (
{
closed = 1;
nodes = (
"164 0 LINE",
"221 402 LINE",
"225 405 LINE",
"268 316 LINE",
"426 23 LINE",
"420 -18 LINE SMOOTH",
"412 -77 OFFCURVE",
"384 -86 OFFCURVE",
"356 -86 CURVE SMOOTH",
"341 -86 OFFCURVE",
"311 -80 OFFCURVE",
"297 -73 CURVE",
"284 -166 LINE",
"309 -179 OFFCURVE",
"359 -186 OFFCURVE",
"390 -186 CURVE SMOOTH",
"490 -186 OFFCURVE",
"550 -133 OFFCURVE",
"566 -20 CURVE SMOOTH",
"666 686 LINE",
"525 686 LINE",
"468 283 LINE",
"465 280 LINE",
"422 368 LINE",
"251 686 LINE",
"120 686 LINE",
"23 0 LINE"
);
}
);
width = 691;
},
{
layerId = "8F3315DA-A8CB-43B6-A496-83A18984EDD5";
paths = (
{
closed = 1;
nodes = (
"140 0 LINE",
"211 504 LINE",
"214 505 LINE",
"240 453 LINE",
"469 16 LINE",
"461 -44 LINE SMOOTH",
"453 -103 OFFCURVE",
"422 -112 OFFCURVE",
"396 -112 CURVE SMOOTH",
"381 -112 OFFCURVE",
"353 -104 OFFCURVE",
"338 -97 CURVE",
"329 -167 LINE",
"348 -179 OFFCURVE",
"383 -186 OFFCURVE",
"411 -186 CURVE SMOOTH",
"503 -186 OFFCURVE",
"542 -134 OFFCURVE",
"559 -15 CURVE SMOOTH",
"658 686 LINE",
"569 686 LINE",
"499 188 LINE",
"496 187 LINE",
"471 237 LINE",
"234 686 LINE",
"148 686 LINE",
"51 0 LINE"
);
}
);
width = 694;
},
{
layerId = "4FDE33F5-0064-4818-A7C2-FB87252213B5";
paths = (
{
closed = 1;
nodes = (
"209 0 LINE",
"251 304 LINE",
"255 304 LINE",
"282 246 LINE",
"403 27 LINE",
"400 4 LINE SMOOTH",
"392 -55 OFFCURVE",
"363 -65 OFFCURVE",
"335 -65 CURVE SMOOTH",
"320 -65 OFFCURVE",
"290 -60 OFFCURVE",
"275 -53 CURVE",
"259 -165 LINE",
"291 -178 OFFCURVE",
"354 -187 OFFCURVE",
"389 -187 CURVE SMOOTH",
"498 -187 OFFCURVE",
"579 -134 OFFCURVE",
"594 -26 CURVE SMOOTH",
"695 686 LINE",
"501 686 LINE",
"458 376 LINE",
"455 375 LINE",
"429 431 LINE",
"289 686 LINE",
"113 686 LINE",
"16 0 LINE"
);
}
);
width = 696;
}
);
leftKerningGroup = H;
rightKerningGroup = H;
unicode = 014A;
},
{
glyphname = Nhookleft;
layers = (
{
layerId = "4BBFD287-7A5F-4332-B846-65FFBCBF0D57";
paths = (
{
closed = 1;
nodes = (
"-60 -179 OFFCURVE",
"-35 -186 OFFCURVE",
"-10 -186 CURVE SMOOTH",
"49 -186 OFFCURVE",
"92 -152 OFFCURVE",
"103 -75 CURVE",
"196 585 LINE",
"200 585 LINE",
"223 537 LINE",
"497 0 LINE",
"545 0 LINE",
"642 686 LINE",
"594 686 LINE",
"512 101 LINE",
"508 101 LINE",
"488 143 LINE",
"209 686 LINE",
"163 686 LINE",
"56 -73 LINE",
"48 -132 OFFCURVE",
"16 -140 OFFCURVE",
"-10 -140 CURVE SMOOTH",
"-25 -140 OFFCURVE",
"-54 -131 OFFCURVE",
"-69 -124 CURVE",
"-76 -169 LINE"
);
}
);
width = 688;
},
{
layerId = "B761BB45-E103-41B9-A767-1F2A3FFB8B31";
paths = (
{
closed = 1;
nodes = (
"-91 -179 OFFCURVE",
"-41 -186 OFFCURVE",
"-10 -186 CURVE SMOOTH",
"90 -186 OFFCURVE",
"145 -133 OFFCURVE",
"161 -20 CURVE SMOOTH",
"221 402 LINE",
"225 405 LINE",
"268 316 LINE",
"438 0 LINE",
"569 0 LINE",
"666 686 LINE",
"525 686 LINE",
"468 283 LINE",
"465 280 LINE",
"422 368 LINE",
"251 686 LINE",
"120 686 LINE",
"20 -18 LINE SMOOTH",
"12 -77 OFFCURVE",
"-16 -86 OFFCURVE",
"-44 -86 CURVE SMOOTH",
"-59 -86 OFFCURVE",
"-89 -80 OFFCURVE",
"-103 -73 CURVE",
"-116 -166 LINE"
);
}
);
width = 691;
},
{
layerId = "8F3315DA-A8CB-43B6-A496-83A18984EDD5";
paths = (
{
closed = 1;
nodes = (
"-68 -179 OFFCURVE",
"-33 -186 OFFCURVE",
"-5 -186 CURVE SMOOTH",
"87 -186 OFFCURVE",
"121 -134 OFFCURVE",
"138 -15 CURVE SMOOTH",
"211 504 LINE",
"214 505 LINE",
"240 453 LINE",
"478 0 LINE",
"561 0 LINE",
"658 686 LINE",
"569 686 LINE",
"499 188 LINE",
"496 187 LINE",
"471 237 LINE",
"234 686 LINE",
"148 686 LINE",
"45 -44 LINE SMOOTH",
"37 -103 OFFCURVE",
"6 -112 OFFCURVE",
"-20 -112 CURVE SMOOTH",
"-35 -112 OFFCURVE",
"-63 -104 OFFCURVE",
"-78 -97 CURVE",
"-87 -167 LINE"
);
}
);
width = 694;
},
{
layerId = "4FDE33F5-0064-4818-A7C2-FB87252213B5";
paths = (
{
closed = 1;
nodes = (
"-92 -178 OFFCURVE",
"-29 -187 OFFCURVE",
"6 -187 CURVE SMOOTH",
"115 -187 OFFCURVE",
"190 -134 OFFCURVE",
"205 -26 CURVE SMOOTH",
"252 304 LINE",
"255 304 LINE",
"282 246 LINE",
"418 0 LINE",
"598 0 LINE",
"695 686 LINE",
"501 686 LINE",
"458 376 LINE",
"455 375 LINE",
"429 431 LINE",
"289 686 LINE",
"113 686 LINE",
"16 0 LINE SMOOTH",
"8 -55 OFFCURVE",
"-21 -65 OFFCURVE",
"-48 -65 CURVE SMOOTH",
"-63 -65 OFFCURVE",
"-93 -60 OFFCURVE",
"-108 -53 CURVE",
"-124 -165 LINE"
);
}
);
width = 696;
}
);
leftKerningGroup = j;
rightKerningGroup = H;
unicode = 019D;
},
{
glyphname = O;
layers = (
{
anchors = (
{
name = bottom;
position = "{311, 0}";
},
{
name = center;
position = "{344, 336}";
},
{
name = ogonek;
position = "{350, 0}";
},
{
name = top;
position = "{393, 686}";
},
{
name = topright;
position = "{425, 686}";
}
);
background = {
paths = (
{
closed = 1;
nodes = (
"233 696 OFFCURVE",
"103 596 OFFCURVE",
"75 388 CURVE SMOOTH",
"60 276 OFFCURVE",
"56 264 OFFCURVE",
"57 235 CURVE SMOOTH",
"57 70 OFFCURVE",
"162 -10 OFFCURVE",
"303 -10 CURVE SMOOTH",
"474 -10 OFFCURVE",
"601 90 OFFCURVE",
"630 298 CURVE SMOOTH",
"646 410 OFFCURVE",
"647 431 OFFCURVE",
"647 450 CURVE SMOOTH",
"647 616 OFFCURVE",
"542 696 OFFCURVE",
"402 696 CURVE SMOOTH"
);
},
{
closed = 1;
nodes = (
"484 607 OFFCURVE",
"549 558 OFFCURVE",
"549 442 CURVE SMOOTH",
"549 426 OFFCURVE",
"548 406 OFFCURVE",
"532 298 CURVE SMOOTH",
"508 142 OFFCURVE",
"423 79 OFFCURVE",
"315 79 CURVE SMOOTH",
"220 79 OFFCURVE",
"156 127 OFFCURVE",
"156 244 CURVE SMOOTH",
"156 260 OFFCURVE",
"158 278 OFFCURVE",
"173 388 CURVE SMOOTH",
"195 544 OFFCURVE",
"280 607 OFFCURVE",
"390 607 CURVE SMOOTH"
);
}
);
};
layerId = "8F3315DA-A8CB-43B6-A496-83A18984EDD5";
paths = (
{
closed = 1;
nodes = (
"474 -10 OFFCURVE",
"601 92 OFFCURVE",
"630 298 CURVE SMOOTH",
"646 410 OFFCURVE",
"647 431 OFFCURVE",
"647 450 CURVE SMOOTH",
"647 616 OFFCURVE",
"542 696 OFFCURVE",
"403 696 CURVE SMOOTH",
"399 696 LINE SMOOTH",
"233 696 OFFCURVE",
"103 595 OFFCURVE",
"75 388 CURVE SMOOTH",
"67 328 OFFCURVE",
"56 262 OFFCURVE",
"57 231 CURVE SMOOTH",
"62 71 OFFCURVE",
"162 -10 OFFCURVE",
"301 -10 CURVE SMOOTH",
"306 -10 LINE SMOOTH"
);
},
{
closed = 1;
nodes = (
"220 79 OFFCURVE",
"156 127 OFFCURVE",
"156 244 CURVE SMOOTH",
"156 260 OFFCURVE",
"158 278 OFFCURVE",
"173 388 CURVE SMOOTH",
"195 544 OFFCURVE",
"280 607 OFFCURVE",
"390 607 CURVE SMOOTH",
"484 607 OFFCURVE",
"549 558 OFFCURVE",
"549 442 CURVE SMOOTH",
"549 426 OFFCURVE",
"548 406 OFFCURVE",
"532 298 CURVE SMOOTH",
"508 142 OFFCURVE",
"423 79 OFFCURVE",
"315 79 CURVE SMOOTH"
);
}
);
width = 690;
},
{
anchors = (
{
name = bottom;
position = "{317, 0}";
},
{
name = center;
position = "{350, 336}";
},
{
name = ogonek;
position = "{360, 0}";
},
{
name = top;
position = "{399, 686}";
},
{
name = topright;
position = "{431, 686}";
}
);
background = {
paths = (
{
closed = 1;
nodes = (
"454 -10 OFFCURVE",
"586 54 OFFCURVE",
"621 330 CURVE SMOOTH",
"629 394 OFFCURVE",
"632 428 OFFCURVE",
"632 458 CURVE SMOOTH",
"632 648 OFFCURVE",
"533 696 OFFCURVE",
"406 696 CURVE SMOOTH",
"259 696 OFFCURVE",
"128 631 OFFCURVE",
"92 356 CURVE SMOOTH",
"83 291 OFFCURVE",
"81 258 OFFCURVE",
"81 228 CURVE SMOOTH",
"81 38 OFFCURVE",
"180 -10 OFFCURVE",
"307 -10 CURVE SMOOTH"
);
},
{
closed = 1;
nodes = (
"213 38 OFFCURVE",
"134 77 OFFCURVE",
"134 232 CURVE SMOOTH",
"134 257 OFFCURVE",
"135 286 OFFCURVE",
"147 368 CURVE SMOOTH",
"180 595 OFFCURVE",
"282 648 OFFCURVE",
"399 648 CURVE SMOOTH",
"499 648 OFFCURVE",
"579 609 OFFCURVE",
"579 454 CURVE SMOOTH",
"579 428 OFFCURVE",
"577 400 OFFCURVE",
"566 318 CURVE SMOOTH",
"535 91 OFFCURVE",
"431 38 OFFCURVE",
"314 38 CURVE SMOOTH"
);
}
);
};
layerId = "4BBFD287-7A5F-4332-B846-65FFBCBF0D57";
paths = (
{
closed = 1;
nodes = (
"455 -10 OFFCURVE",
"586 57 OFFCURVE",
"621 330 CURVE SMOOTH",
"629 394 OFFCURVE",
"632 428 OFFCURVE",
"632 458 CURVE SMOOTH",
"632 648 OFFCURVE",
"533 696 OFFCURVE",
"407 696 CURVE SMOOTH",
"402 696 LINE SMOOTH",
"258 696 OFFCURVE",
"128 628 OFFCURVE",
"92 356 CURVE SMOOTH",
"83 291 OFFCURVE",
"81 258 OFFCURVE",
"81 228 CURVE SMOOTH",
"81 38 OFFCURVE",
"180 -10 OFFCURVE",
"306 -10 CURVE SMOOTH",
"311 -10 LINE SMOOTH"
);
},
{
closed = 1;
nodes = (
"213 38 OFFCURVE",
"134 77 OFFCURVE",
"134 232 CURVE SMOOTH",
"134 257 OFFCURVE",
"135 286 OFFCURVE",
"147 368 CURVE SMOOTH",
"180 595 OFFCURVE",
"282 648 OFFCURVE",
"399 648 CURVE SMOOTH",
"499 648 OFFCURVE",
"579 609 OFFCURVE",
"579 454 CURVE SMOOTH",
"579 428 OFFCURVE",
"577 400 OFFCURVE",
"566 318 CURVE SMOOTH",
"535 91 OFFCURVE",
"431 38 OFFCURVE",
"314 38 CURVE SMOOTH"
);
}
);
width = 689;
},
{
anchors = (
{
name = bottom;
position = "{320, 0}";
},
{
name = center;
position = "{353, 336}";
},
{
name = ogonek;
position = "{342, 0}";
},
{
name = top;
position = "{402, 686}";
},
{
name = topright;
position = "{434, 686}";
}
);
background = {
paths = (
{
closed = 1;
nodes = (
"483 -10 OFFCURVE",
"624 95 OFFCURVE",
"652 294 CURVE SMOOTH",
"668 409 OFFCURVE",
"669 416 OFFCURVE",
"669 443 CURVE SMOOTH",
"669 599 OFFCURVE",
"560 695 OFFCURVE",
"419 695 CURVE SMOOTH",
"409 695 LINE SMOOTH",
"222 695 OFFCURVE",
"82 589 OFFCURVE",
"54 391 CURVE SMOOTH",
"38 276 OFFCURVE",
"36 271 OFFCURVE",
"36 241 CURVE SMOOTH",
"36 86 OFFCURVE",
"145 -10 OFFCURVE",
"286 -10 CURVE SMOOTH",
"297 -10 LINE SMOOTH"
);
},
{
closed = 1;
nodes = (
"247 113 OFFCURVE",
"197 159 OFFCURVE",
"197 236 CURVE SMOOTH",
"197 271 OFFCURVE",
"203 304 OFFCURVE",
"215 390 CURVE SMOOTH",
"230 506 OFFCURVE",
"284 573 OFFCURVE",
"384 573 CURVE SMOOTH",
"458 573 OFFCURVE",
"509 526 OFFCURVE",
"509 449 CURVE SMOOTH",
"509 406 OFFCURVE",
"501 364 OFFCURVE",
"487 272 CURVE SMOOTH",
"472 167 OFFCURVE",
"409 113 OFFCURVE",
"322 113 CURVE SMOOTH"
);
}
);
};
layerId = "B761BB45-E103-41B9-A767-1F2A3FFB8B31";
paths = (
{
closed = 1;
nodes = (
"483 -10 OFFCURVE",
"623 93 OFFCURVE",
"652 294 CURVE SMOOTH",
"663 370 OFFCURVE",
"669 421 OFFCURVE",
"669 443 CURVE SMOOTH",
"669 599 OFFCURVE",
"560 695 OFFCURVE",
"419 695 CURVE SMOOTH",
"409 695 LINE SMOOTH",
"222 695 OFFCURVE",
"81 587 OFFCURVE",
"54 391 CURVE SMOOTH",
"46 334 OFFCURVE",
"36 266 OFFCURVE",
"36 241 CURVE SMOOTH",
"36 86 OFFCURVE",
"145 -10 OFFCURVE",
"286 -10 CURVE SMOOTH",
"297 -10 LINE SMOOTH"
);
},
{
closed = 1;
nodes = (
"247 113 OFFCURVE",
"197 159 OFFCURVE",
"197 236 CURVE SMOOTH",
"197 271 OFFCURVE",
"203 304 OFFCURVE",
"215 390 CURVE SMOOTH",
"230 506 OFFCURVE",
"284 573 OFFCURVE",
"384 573 CURVE SMOOTH",
"458 573 OFFCURVE",
"509 526 OFFCURVE",
"509 449 CURVE SMOOTH",
"509 406 OFFCURVE",
"501 364 OFFCURVE",
"487 272 CURVE SMOOTH",
"472 167 OFFCURVE",
"409 113 OFFCURVE",
"322 113 CURVE SMOOTH"
);
}
);
width = 708;
},
{
anchors = (
{
name = bottom;
position = "{331, 0}";
},
{
name = center;
position = "{364, 336}";
},
{
name = ogonek;
position = "{372, 0}";
},
{
name = top;
position = "{413, 686}";
},
{
name = topright;
position = "{445, 686}";
}
);
background = {
paths = (
{
closed = 1;
nodes = (
"532 -10 OFFCURVE",
"663 124 OFFCURVE",
"687 290 CURVE SMOOTH",
"703 408 OFFCURVE",
"705 402 OFFCURVE",
"705 436 CURVE SMOOTH",
"705 582 OFFCURVE",
"596 694 OFFCURVE",
"444 694 CURVE SMOOTH",
"388 694 LINE SMOOTH",
"202 694 OFFCURVE",
"69 560 OFFCURVE",
"46 394 CURVE SMOOTH",
"29 276 OFFCURVE",
"28 277 OFFCURVE",
"28 248 CURVE SMOOTH",
"28 102 OFFCURVE",
"137 -10 OFFCURVE",
"289 -10 CURVE SMOOTH",
"345 -10 LINE SMOOTH"
);
},
{
closed = 1;
nodes = (
"286 147 OFFCURVE",
"250 184 OFFCURVE",
"250 233 CURVE SMOOTH",
"250 249 OFFCURVE",
"253 270 OFFCURVE",
"278 440 CURVE SMOOTH",
"286 496 OFFCURVE",
"324 540 OFFCURVE",
"392 540 CURVE SMOOTH",
"447 540 OFFCURVE",
"484 505 OFFCURVE",
"484 454 CURVE SMOOTH",
"484 443 OFFCURVE",
"479 410 OFFCURVE",
"456 247 CURVE SMOOTH",
"447 183 OFFCURVE",
"404 147 OFFCURVE",
"337 147 CURVE SMOOTH"
);
}
);
};
layerId = "4FDE33F5-0064-4818-A7C2-FB87252213B5";
paths = (
{
closed = 1;
nodes = (
"532 -10 OFFCURVE",
"663 124 OFFCURVE",
"687 290 CURVE SMOOTH",
"696 353 OFFCURVE",
"705 411 OFFCURVE",
"705 436 CURVE SMOOTH",
"705 582 OFFCURVE",
"596 694 OFFCURVE",
"444 694 CURVE SMOOTH",
"388 694 LINE SMOOTH",
"202 694 OFFCURVE",
"69 559 OFFCURVE",
"46 394 CURVE SMOOTH",
"37 329 OFFCURVE",
"28 272 OFFCURVE",
"28 248 CURVE SMOOTH",
"28 102 OFFCURVE",
"137 -10 OFFCURVE",
"289 -10 CURVE SMOOTH",
"345 -10 LINE SMOOTH"
);
},
{
closed = 1;
nodes = (
"286 147 OFFCURVE",
"250 184 OFFCURVE",
"250 233 CURVE SMOOTH",
"250 249 OFFCURVE",
"253 270 OFFCURVE",
"278 440 CURVE SMOOTH",
"286 496 OFFCURVE",
"324 540 OFFCURVE",
"392 540 CURVE SMOOTH",
"447 540 OFFCURVE",
"484 505 OFFCURVE",
"484 454 CURVE SMOOTH",
"484 443 OFFCURVE",
"479 410 OFFCURVE",
"456 247 CURVE SMOOTH",
"447 183 OFFCURVE",
"404 147 OFFCURVE",
"337 147 CURVE SMOOTH"
);
}
);
width = 719;
}
);
leftKerningGroup = O;
note = O;
rightKerningGroup = O;
unicode = 004F;
},
{
glyphname = OE;
layers = (
{
layerId = "8F3315DA-A8CB-43B6-A496-83A18984EDD5";
paths = (
{
closed = 1;
nodes = (
"233 696 OFFCURVE",
"103 596 OFFCURVE",
"75 388 CURVE SMOOTH",
"60 276 OFFCURVE",
"56 264 OFFCURVE",
"57 235 CURVE SMOOTH",
"57 70 OFFCURVE",
"162 -10 OFFCURVE",
"303 -10 CURVE SMOOTH",
"379 -10 OFFCURVE",
"443 8 OFFCURVE",
"496 47 CURVE",
"490 0 LINE",
"946 0 LINE",
"946 89 LINE",
"601 89 LINE",
"631 306 LINE",
"938 306 LINE",
"951 395 LINE",
"644 395 LINE",
"672 597 LINE",
"1011 597 LINE",
"1037 686 LINE",
"587 686 LINE",
"579 633 LINE",
"535 676 OFFCURVE",
"474 696 OFFCURVE",
"402 696 CURVE SMOOTH"
);
},
{
closed = 1;
nodes = (
"484 607 OFFCURVE",
"549 558 OFFCURVE",
"549 442 CURVE SMOOTH",
"549 426 OFFCURVE",
"548 406 OFFCURVE",
"532 298 CURVE SMOOTH",
"508 142 OFFCURVE",
"423 79 OFFCURVE",
"315 79 CURVE SMOOTH",
"220 79 OFFCURVE",
"156 127 OFFCURVE",
"156 244 CURVE SMOOTH",
"156 260 OFFCURVE",
"158 278 OFFCURVE",
"173 388 CURVE SMOOTH",
"195 544 OFFCURVE",
"280 607 OFFCURVE",
"390 607 CURVE SMOOTH"
);
}
);
width = 1031;
},
{
layerId = "4BBFD287-7A5F-4332-B846-65FFBCBF0D57";
paths = (
{
closed = 1;
nodes = (
"259 696 OFFCURVE",
"128 631 OFFCURVE",
"92 356 CURVE SMOOTH",
"83 291 OFFCURVE",
"81 258 OFFCURVE",
"81 228 CURVE SMOOTH",
"81 38 OFFCURVE",
"180 -10 OFFCURVE",
"307 -10 CURVE SMOOTH",
"394 -10 OFFCURVE",
"476 12 OFFCURVE",
"535 88 CURVE",
"520 0 LINE",
"950 0 LINE",
"950 48 LINE",
"581 48 LINE",
"620 326 LINE",
"939 326 LINE",
"946 374 LINE",
"627 374 LINE",
"664 638 LINE",
"1024 638 LINE",
"1041 686 LINE",
"617 686 LINE",
"604 600 LINE",
"566 674 OFFCURVE",
"492 696 OFFCURVE",
"406 696 CURVE SMOOTH"
);
},
{
closed = 1;
nodes = (
"499 648 OFFCURVE",
"579 609 OFFCURVE",
"579 454 CURVE SMOOTH",
"579 428 OFFCURVE",
"577 400 OFFCURVE",
"566 318 CURVE SMOOTH",
"535 91 OFFCURVE",
"431 38 OFFCURVE",
"314 38 CURVE SMOOTH",
"213 38 OFFCURVE",
"134 77 OFFCURVE",
"134 232 CURVE SMOOTH",
"134 257 OFFCURVE",
"135 286 OFFCURVE",
"147 368 CURVE SMOOTH",
"180 595 OFFCURVE",
"282 648 OFFCURVE",
"399 648 CURVE SMOOTH"
);
}
);
width = 1041;
},
{
layerId = "B761BB45-E103-41B9-A767-1F2A3FFB8B31";
paths = (
{
closed = 1;
nodes = (
"230 695 OFFCURVE",
"81 592 OFFCURVE",
"54 391 CURVE SMOOTH",
"38 276 OFFCURVE",
"36 271 OFFCURVE",
"36 241 CURVE SMOOTH",
"36 86 OFFCURVE",
"143 -10 OFFCURVE",
"289 -10 CURVE SMOOTH",
"352 -10 OFFCURVE",
"410 4 OFFCURVE",
"459 32 CURVE",
"455 0 LINE",
"932 0 LINE",
"932 123 LINE",
"630 123 LINE",
"653 290 LINE",
"932 290 LINE",
"949 413 LINE",
"670 413 LINE",
"691 563 LINE",
"991 563 LINE",
"1026 686 LINE",
"552 686 LINE",
"547 654 LINE",
"507 681 OFFCURVE",
"459 695 OFFCURVE",
"406 695 CURVE SMOOTH"
);
},
{
closed = 1;
nodes = (
"458 573 OFFCURVE",
"509 526 OFFCURVE",
"509 449 CURVE SMOOTH",
"509 406 OFFCURVE",
"501 364 OFFCURVE",
"487 272 CURVE SMOOTH",
"472 167 OFFCURVE",
"409 113 OFFCURVE",
"322 113 CURVE SMOOTH",
"247 113 OFFCURVE",
"197 159 OFFCURVE",
"197 236 CURVE SMOOTH",
"197 271 OFFCURVE",
"203 304 OFFCURVE",
"215 390 CURVE SMOOTH",
"230 506 OFFCURVE",
"284 573 OFFCURVE",
"384 573 CURVE SMOOTH"
);
}
);
width = 1024;
},
{
layerId = "4FDE33F5-0064-4818-A7C2-FB87252213B5";
paths = (
{
closed = 1;
nodes = (
"216 694 OFFCURVE",
"70 560 OFFCURVE",
"46 394 CURVE SMOOTH",
"41 359 OFFCURVE",
"36 325 OFFCURVE",
"31 290 CURVE SMOOTH",
"7 124 OFFCURVE",
"118 -10 OFFCURVE",
"289 -10 CURVE SMOOTH",
"361 -10 OFFCURVE",
"394 1 OFFCURVE",
"423 18 CURVE",
"421 0 LINE",
"936 0 LINE",
"928 157 LINE",
"653 157 LINE",
"668 266 LINE",
"912 266 LINE",
"934 419 LINE",
"690 419 LINE",
"705 528 LINE",
"960 528 LINE",
"1022 686 LINE",
"518 686 LINE",
"516 667 LINE",
"487 683 OFFCURVE",
"456 694 OFFCURVE",
"392 694 CURVE SMOOTH"
);
},
{
closed = 1;
nodes = (
"453 540 OFFCURVE",
"491 498 OFFCURVE",
"483 440 CURVE SMOOTH",
"474 376 OFFCURVE",
"465 311 OFFCURVE",
"456 247 CURVE SMOOTH",
"448 192 OFFCURVE",
"401 147 OFFCURVE",
"337 147 CURVE SMOOTH",
"281 147 OFFCURVE",
"243 191 OFFCURVE",
"251 247 CURVE SMOOTH",
"260 311 OFFCURVE",
"269 376 OFFCURVE",
"278 440 CURVE SMOOTH",
"286 496 OFFCURVE",
"336 540 OFFCURVE",
"392 540 CURVE SMOOTH"
);
}
);
width = 1005;
}
);
leftKerningGroup = O;
note = OE;
rightKerningGroup = E;
unicode = 0152;
},
{
glyphname = P;
layers = (
{
layerId = "8F3315DA-A8CB-43B6-A496-83A18984EDD5";
paths = (
{
closed = 1;
nodes = (
"148 686 LINE",
"51 0 LINE",
"149 0 LINE",
"189 286 LINE",
"387 286 LINE SMOOTH",
"527 286 OFFCURVE",
"623 378 OFFCURVE",
"623 517 CURVE SMOOTH",
"623 620 OFFCURVE",
"547 686 OFFCURVE",
"444 686 CURVE SMOOTH"
);
},
{
closed = 1;
nodes = (
"482 597 OFFCURVE",
"524 556 OFFCURVE",
"524 500 CURVE SMOOTH",
"524 433 OFFCURVE",
"459 375 OFFCURVE",
"391 375 CURVE SMOOTH",
"202 375 LINE",
"233 597 LINE",
"422 597 LINE SMOOTH"
);
}
);
width = 626;
},
{
layerId = "4BBFD287-7A5F-4332-B846-65FFBCBF0D57";
paths = (
{
closed = 1;
nodes = (
"168 686 LINE",
"71 0 LINE",
"125 0 LINE",
"169 312 LINE",
"396 312 LINE SMOOTH",
"520 312 OFFCURVE",
"611 411 OFFCURVE",
"611 526 CURVE SMOOTH",
"611 616 OFFCURVE",
"543 686 OFFCURVE",
"449 686 CURVE SMOOTH"
);
},
{
closed = 1;
nodes = (
"506 638 OFFCURVE",
"558 587 OFFCURVE",
"558 519 CURVE SMOOTH",
"558 432 OFFCURVE",
"490 359 OFFCURVE",
"396 359 CURVE SMOOTH",
"176 359 LINE",
"215 638 LINE",
"435 638 LINE SMOOTH"
);
}
);
width = 626;
},
{
layerId = "B761BB45-E103-41B9-A767-1F2A3FFB8B31";
paths = (
{
closed = 1;
nodes = (
"120 686 LINE",
"23 0 LINE",
"177 0 LINE",
"214 265 LINE",
"391 265 LINE SMOOTH",
"535 265 OFFCURVE",
"631 371 OFFCURVE",
"631 511 CURVE SMOOTH",
"631 613 OFFCURVE",
"555 686 OFFCURVE",
"450 686 CURVE SMOOTH"
);
},
{
closed = 1;
nodes = (
"445 563 OFFCURVE",
"474 529 OFFCURVE",
"474 489 CURVE",
"470 440 OFFCURVE",
"437 386 OFFCURVE",
"372 386 CURVE SMOOTH",
"231 386 LINE",
"256 563 LINE",
"397 563 LINE SMOOTH"
);
}
);
width = 629;
},
{
background = {
paths = (
{
closed = 1;
nodes = (
"113 686 LINE",
"16 0 LINE",
"226 0 LINE",
"261 244 LINE",
"416 244 LINE SMOOTH",
"570 244 OFFCURVE",
"660 368 OFFCURVE",
"660 505 CURVE SMOOTH",
"660 606 OFFCURVE",
"585 686 OFFCURVE",
"478 686 CURVE SMOOTH"
);
},
{
closed = 1;
nodes = (
"429 529 OFFCURVE",
"445 503 OFFCURVE",
"445 478 CURVE",
"443 457 LINE SMOOTH",
"440 429 OFFCURVE",
"417 397 OFFCURVE",
"374 397 CURVE SMOOTH",
"282 397 LINE",
"301 529 LINE",
"393 529 LINE SMOOTH"
);
}
);
};
layerId = "4FDE33F5-0064-4818-A7C2-FB87252213B5";
paths = (
{
closed = 1;
nodes = (
"113 686 LINE",
"16 0 LINE",
"226 0 LINE",
"261 244 LINE",
"416 244 LINE SMOOTH",
"570 244 OFFCURVE",
"660 368 OFFCURVE",
"660 505 CURVE SMOOTH",
"660 606 OFFCURVE",
"585 686 OFFCURVE",
"478 686 CURVE SMOOTH"
);
},
{
closed = 1;
nodes = (
"429 529 OFFCURVE",
"445 503 OFFCURVE",
"445 478 CURVE SMOOTH",
"445 434 OFFCURVE",
"422 397 OFFCURVE",
"374 397 CURVE SMOOTH",
"282 397 LINE",
"301 529 LINE",
"393 529 LINE SMOOTH"
);
}
);
width = 645;
}
);
leftKerningGroup = H;
note = P;
rightKerningGroup = P;
unicode = 0050;
},
{
glyphname = Thorn;
layers = (
{
layerId = "8F3315DA-A8CB-43B6-A496-83A18984EDD5";
paths = (
{
closed = 1;
nodes = (
"228 562 LINE",
"246 686 LINE",
"148 686 LINE",
"51 0 LINE",
"149 0 LINE",
"172 162 LINE",
"370 162 LINE SMOOTH",
"491 162 OFFCURVE",
"605 246 OFFCURVE",
"605 393 CURVE SMOOTH",
"605 496 OFFCURVE",
"529 562 OFFCURVE",
"426 562 CURVE SMOOTH"
);
},
{
closed = 1;
nodes = (
"465 473 OFFCURVE",
"506 431 OFFCURVE",
"506 378 CURVE SMOOTH",
"506 310 OFFCURVE",
"443 251 OFFCURVE",
"374 251 CURVE SMOOTH",
"185 251 LINE",
"216 473 LINE",
"405 473 LINE SMOOTH"
);
}
);
width = 633;
},
{
layerId = "4BBFD287-7A5F-4332-B846-65FFBCBF0D57";
paths = (
{
closed = 1;
nodes = (
"203 551 LINE",
"222 686 LINE",
"168 686 LINE",
"71 0 LINE",
"125 0 LINE",
"150 177 LINE",
"377 177 LINE SMOOTH",
"489 177 OFFCURVE",
"592 276 OFFCURVE",
"592 391 CURVE SMOOTH",
"592 481 OFFCURVE",
"524 551 OFFCURVE",
"430 551 CURVE SMOOTH"
);
},
{
closed = 1;
nodes = (
"487 503 OFFCURVE",
"539 452 OFFCURVE",
"539 384 CURVE SMOOTH",
"539 297 OFFCURVE",
"461 224 OFFCURVE",
"377 224 CURVE SMOOTH",
"157 224 LINE",
"196 503 LINE",
"416 503 LINE SMOOTH"
);
}
);
width = 633;
},
{
layerId = "B761BB45-E103-41B9-A767-1F2A3FFB8B31";
paths = (
{
closed = 1;
nodes = (
"258 572 LINE",
"274 686 LINE",
"120 686 LINE",
"23 0 LINE",
"177 0 LINE",
"199 154 LINE",
"376 154 LINE SMOOTH",
"519 154 OFFCURVE",
"615 275 OFFCURVE",
"615 398 CURVE SMOOTH",
"615 500 OFFCURVE",
"539 572 OFFCURVE",
"435 572 CURVE SMOOTH"
);
},
{
closed = 1;
nodes = (
"429 450 OFFCURVE",
"459 420 OFFCURVE",
"459 380 CURVE SMOOTH",
"459 325 OFFCURVE",
"418 272 OFFCURVE",
"362 272 CURVE SMOOTH",
"216 272 LINE",
"241 450 LINE",
"387 450 LINE SMOOTH"
);
}
);
width = 634;
},
{
layerId = "4FDE33F5-0064-4818-A7C2-FB87252213B5";
paths = (
{
closed = 1;
nodes = (
"307 583 LINE",
"322 686 LINE",
"113 686 LINE",
"16 0 LINE",
"225 0 LINE",
"246 146 LINE",
"402 146 LINE SMOOTH",
"542 146 OFFCURVE",
"646 263 OFFCURVE",
"646 402 CURVE SMOOTH",
"646 503 OFFCURVE",
"570 583 OFFCURVE",
"463 583 CURVE SMOOTH"
);
},
{
closed = 1;
nodes = (
"413 427 OFFCURVE",
"431 409 OFFCURVE",
"431 384 CURVE SMOOTH",
"431 334 OFFCURVE",
"414 294 OFFCURVE",
"370 294 CURVE SMOOTH",
"267 294 LINE",
"285 427 LINE",
"388 427 LINE SMOOTH"
);
}
);
width = 646;
}
);
leftKerningGroup = H;
note = Thorn;
rightKerningGroup = P;
unicode = 00DE;
},
{
glyphname = Q;
layers = (
{
layerId = "8F3315DA-A8CB-43B6-A496-83A18984EDD5";
paths = (
{
closed = 1;
nodes = (
"62 86 OFFCURVE",
"145 5 OFFCURVE",
"264 -8 CURVE",
"263 -102 OFFCURVE",
"340 -145 OFFCURVE",
"424 -145 CURVE SMOOTH",
"487 -145 OFFCURVE",
"534 -128 OFFCURVE",
"561 -112 CURVE",
"571 -42 LINE",
"509 -62 OFFCURVE",
"479 -70 OFFCURVE",
"450 -70 CURVE SMOOTH",
"387 -70 OFFCURVE",
"363 -35 OFFCURVE",
"360 -6 CURVE",
"501 14 OFFCURVE",
"604 115 OFFCURVE",
"630 298 CURVE SMOOTH",
"646 410 OFFCURVE",
"647 431 OFFCURVE",
"647 450 CURVE SMOOTH",
"647 616 OFFCURVE",
"542 696 OFFCURVE",
"403 696 CURVE SMOOTH",
"399 696 LINE SMOOTH",
"233 696 OFFCURVE",
"103 595 OFFCURVE",
"75 388 CURVE SMOOTH",
"67 328 OFFCURVE",
"56 262 OFFCURVE",
"57 231 CURVE SMOOTH"
);
},
{
closed = 1;
nodes = (
"156 260 OFFCURVE",
"158 278 OFFCURVE",
"173 388 CURVE SMOOTH",
"195 544 OFFCURVE",
"280 607 OFFCURVE",
"390 607 CURVE SMOOTH",
"484 607 OFFCURVE",
"549 558 OFFCURVE",
"549 442 CURVE SMOOTH",
"549 426 OFFCURVE",
"548 406 OFFCURVE",
"532 298 CURVE SMOOTH",
"508 142 OFFCURVE",
"423 79 OFFCURVE",
"315 79 CURVE SMOOTH",
"220 79 OFFCURVE",
"156 127 OFFCURVE",
"156 244 CURVE SMOOTH"
);
}
);
width = 690;
},
{
layerId = "4BBFD287-7A5F-4332-B846-65FFBCBF0D57";
paths = (
{
closed = 1;
nodes = (
"81 49 OFFCURVE",
"169 -4 OFFCURVE",
"285 -10 CURVE",
"285 -66 OFFCURVE",
"307 -137 OFFCURVE",
"426 -137 CURVE SMOOTH",
"489 -137 OFFCURVE",
"543 -110 OFFCURVE",
"543 -110 CURVE",
"550 -61 LINE",
"509 -78 OFFCURVE",
"474 -90 OFFCURVE",
"432 -90 CURVE SMOOTH",
"357 -90 OFFCURVE",
"337 -46 OFFCURVE",
"335 -9 CURVE",
"469 -2 OFFCURVE",
"588 72 OFFCURVE",
"621 330 CURVE SMOOTH",
"629 394 OFFCURVE",
"632 428 OFFCURVE",
"632 458 CURVE SMOOTH",
"632 648 OFFCURVE",
"533 696 OFFCURVE",
"407 696 CURVE SMOOTH",
"402 696 LINE SMOOTH",
"258 696 OFFCURVE",
"128 628 OFFCURVE",
"92 356 CURVE SMOOTH",
"83 291 OFFCURVE",
"81 258 OFFCURVE",
"81 228 CURVE SMOOTH"
);
},
{
closed = 1;
nodes = (
"134 257 OFFCURVE",
"135 286 OFFCURVE",
"147 368 CURVE SMOOTH",
"180 595 OFFCURVE",
"282 648 OFFCURVE",
"399 648 CURVE SMOOTH",
"499 648 OFFCURVE",
"579 609 OFFCURVE",
"579 454 CURVE SMOOTH",
"579 428 OFFCURVE",
"577 400 OFFCURVE",
"566 318 CURVE SMOOTH",
"535 91 OFFCURVE",
"431 38 OFFCURVE",
"314 38 CURVE SMOOTH",
"213 38 OFFCURVE",
"134 77 OFFCURVE",
"134 232 CURVE SMOOTH"
);
}
);
width = 689;
},
{
layerId = "B761BB45-E103-41B9-A767-1F2A3FFB8B31";
paths = (
{
closed = 1;
nodes = (
"36 99 OFFCURVE",
"127 7 OFFCURVE",
"251 -8 CURVE",
"257 -74 OFFCURVE",
"303 -153 OFFCURVE",
"438 -153 CURVE SMOOTH",
"530 -153 OFFCURVE",
"600 -116 OFFCURVE",
"600 -116 CURVE",
"612 -28 LINE",
"575 -41 OFFCURVE",
"531 -54 OFFCURVE",
"487 -54 CURVE SMOOTH",
"434 -54 OFFCURVE",
"412 -27 OFFCURVE",
"404 3 CURVE",
"535 36 OFFCURVE",
"629 134 OFFCURVE",
"652 294 CURVE SMOOTH",
"663 370 OFFCURVE",
"669 421 OFFCURVE",
"669 443 CURVE SMOOTH",
"669 599 OFFCURVE",
"560 695 OFFCURVE",
"419 695 CURVE SMOOTH",
"409 695 LINE SMOOTH",
"222 695 OFFCURVE",
"81 587 OFFCURVE",
"54 391 CURVE SMOOTH",
"46 334 OFFCURVE",
"36 266 OFFCURVE",
"36 241 CURVE SMOOTH"
);
},
{
closed = 1;
nodes = (
"197 271 OFFCURVE",
"203 304 OFFCURVE",
"215 390 CURVE SMOOTH",
"230 506 OFFCURVE",
"284 573 OFFCURVE",
"384 573 CURVE SMOOTH",
"458 573 OFFCURVE",
"509 526 OFFCURVE",
"509 449 CURVE SMOOTH",
"509 406 OFFCURVE",
"501 364 OFFCURVE",
"487 272 CURVE SMOOTH",
"472 167 OFFCURVE",
"409 113 OFFCURVE",
"322 113 CURVE SMOOTH",
"247 113 OFFCURVE",
"197 159 OFFCURVE",
"197 236 CURVE SMOOTH"
);
}
);
width = 708;
},
{
layerId = "4FDE33F5-0064-4818-A7C2-FB87252213B5";
paths = (
{
closed = 1;
nodes = (
"28 121 OFFCURVE",
"110 20 OFFCURVE",
"232 -4 CURVE",
"237 -72 OFFCURVE",
"291 -162 OFFCURVE",
"443 -162 CURVE SMOOTH",
"532 -162 OFFCURVE",
"590 -140 OFFCURVE",
"630 -120 CURVE",
"645 -15 LINE",
"598 -29 OFFCURVE",
"550 -39 OFFCURVE",
"516 -39 CURVE SMOOTH",
"470 -39 OFFCURVE",
"452 -19 OFFCURVE",
"445 4 CURVE",
"578 42 OFFCURVE",
"668 155 OFFCURVE",
"687 290 CURVE SMOOTH",
"696 353 OFFCURVE",
"705 411 OFFCURVE",
"705 436 CURVE SMOOTH",
"705 582 OFFCURVE",
"596 694 OFFCURVE",
"444 694 CURVE SMOOTH",
"388 694 LINE SMOOTH",
"202 694 OFFCURVE",
"69 559 OFFCURVE",
"46 394 CURVE SMOOTH",
"37 329 OFFCURVE",
"28 272 OFFCURVE",
"28 248 CURVE SMOOTH"
);
},
{
closed = 1;
nodes = (
"250 249 OFFCURVE",
"253 270 OFFCURVE",
"278 440 CURVE SMOOTH",
"286 496 OFFCURVE",
"324 540 OFFCURVE",
"392 540 CURVE SMOOTH",
"447 540 OFFCURVE",
"484 505 OFFCURVE",
"484 454 CURVE SMOOTH",
"484 443 OFFCURVE",
"479 410 OFFCURVE",
"456 247 CURVE SMOOTH",
"447 183 OFFCURVE",
"404 147 OFFCURVE",
"337 147 CURVE SMOOTH",
"286 147 OFFCURVE",
"250 184 OFFCURVE",
"250 233 CURVE SMOOTH"
);
}
);
width = 719;
}
);
leftKerningGroup = O;
note = Q;
rightKerningGroup = O;
unicode = 0051;
},
{
glyphname = R;
layers = (
{
anchors = (
{
name = bottom;
position = "{288, 0}";
},
{
name = top;
position = "{385, 686}";
}
);
layerId = "8F3315DA-A8CB-43B6-A496-83A18984EDD5";
paths = (
{
closed = 1;
nodes = (
"147 686 LINE",
"51 0 LINE",
"149 0 LINE",
"189 288 LINE",
"365 288 LINE SMOOTH",
"408 288 OFFCURVE",
"461 266 OFFCURVE",
"461 166 CURVE SMOOTH",
"461 150 OFFCURVE",
"454 110 OFFCURVE",
"454 85 CURVE SMOOTH",
"454 10 OFFCURVE",
"493 -5 OFFCURVE",
"536 -5 CURVE SMOOTH",
"557 -5 OFFCURVE",
"578 -1 OFFCURVE",
"589 3 CURVE",
"593 31 LINE",
"570 40 OFFCURVE",
"555 56 OFFCURVE",
"555 104 CURVE SMOOTH",
"555 128 OFFCURVE",
"563 164 OFFCURVE",
"563 195 CURVE SMOOTH",
"563 302 OFFCURVE",
"495 327 OFFCURVE",
"477 335 CURVE",
"477 340 LINE",
"571 368 OFFCURVE",
"625 451 OFFCURVE",
"625 539 CURVE SMOOTH",
"625 638 OFFCURVE",
"542 686 OFFCURVE",
"442 686 CURVE SMOOTH"
);
},
{
closed = 1;
nodes = (
"493 597 OFFCURVE",
"523 565 OFFCURVE",
"523 512 CURVE SMOOTH",
"523 438 OFFCURVE",
"459 377 OFFCURVE",
"399 377 CURVE SMOOTH",
"202 377 LINE",
"233 597 LINE",
"431 597 LINE SMOOTH"
);
}
);
width = 670;
},
{
anchors = (
{
name = bottom;
position = "{297, 0}";
},
{
name = top;
position = "{393, 686}";
}
);
layerId = "4BBFD287-7A5F-4332-B846-65FFBCBF0D57";
paths = (
{
closed = 1;
nodes = (
"168 686 LINE",
"72 0 LINE",
"126 0 LINE",
"171 316 LINE",
"392 316 LINE SMOOTH",
"420 316 OFFCURVE",
"497 311 OFFCURVE",
"497 181 CURVE SMOOTH",
"497 153 OFFCURVE",
"490 115 OFFCURVE",
"490 85 CURVE SMOOTH",
"490 10 OFFCURVE",
"526 -3 OFFCURVE",
"553 -3 CURVE SMOOTH",
"567 -3 OFFCURVE",
"579 1 OFFCURVE",
"579 1 CURVE",
"581 20 LINE",
"563 29 OFFCURVE",
"543 30 OFFCURVE",
"543 87 CURVE SMOOTH",
"543 112 OFFCURVE",
"553 163 OFFCURVE",
"553 199 CURVE SMOOTH",
"553 330 OFFCURVE",
"467 339 OFFCURVE",
"467 339 CURVE",
"467 344 LINE",
"546 365 OFFCURVE",
"615 443 OFFCURVE",
"615 532 CURVE SMOOTH",
"615 627 OFFCURVE",
"549 686 OFFCURVE",
"449 686 CURVE SMOOTH"
);
},
{
closed = 1;
nodes = (
"516 638 OFFCURVE",
"560 599 OFFCURVE",
"560 527 CURVE SMOOTH",
"560 442 OFFCURVE",
"481 364 OFFCURVE",
"398 364 CURVE SMOOTH",
"178 364 LINE",
"215 638 LINE",
"445 638 LINE SMOOTH"
);
}
);
width = 671;
},
{
anchors = (
{
name = bottom;
position = "{293, 0}";
},
{
name = top;
position = "{390, 686}";
}
);
layerId = "B761BB45-E103-41B9-A767-1F2A3FFB8B31";
paths = (
{
closed = 1;
nodes = (
"120 686 LINE",
"24 0 LINE",
"176 0 LINE",
"212 264 LINE",
"333 264 LINE SMOOTH",
"384 264 OFFCURVE",
"418 239 OFFCURVE",
"418 166 CURVE SMOOTH",
"418 142 OFFCURVE",
"410 112 OFFCURVE",
"410 86 CURVE SMOOTH",
"410 13 OFFCURVE",
"451 -7 OFFCURVE",
"512 -7 CURVE SMOOTH",
"542 -7 OFFCURVE",
"577 -3 OFFCURVE",
"601 6 CURVE",
"605 40 LINE",
"578 49 OFFCURVE",
"567 77 OFFCURVE",
"567 113 CURVE SMOOTH",
"567 123 OFFCURVE",
"574 175 OFFCURVE",
"574 197 CURVE SMOOTH",
"574 284 OFFCURVE",
"528 314 OFFCURVE",
"488 328 CURVE",
"489 335 LINE",
"585 370 OFFCURVE",
"635 442 OFFCURVE",
"635 533 CURVE SMOOTH",
"635 641 OFFCURVE",
"544 686 OFFCURVE",
"430 686 CURVE SMOOTH"
);
},
{
closed = 1;
nodes = (
"453 563 OFFCURVE",
"475 533 OFFCURVE",
"475 494 CURVE SMOOTH",
"475 434 OFFCURVE",
"433 385 OFFCURVE",
"383 385 CURVE SMOOTH",
"229 385 LINE",
"255 563 LINE",
"408 563 LINE SMOOTH"
);
}
);
width = 665;
},
{
anchors = (
{
name = bottom;
position = "{299, 0}";
},
{
name = top;
position = "{396, 686}";
}
);
layerId = "4FDE33F5-0064-4818-A7C2-FB87252213B5";
paths = (
{
closed = 1;
nodes = (
"112 686 LINE",
"16 0 LINE",
"221 0 LINE",
"255 240 LINE",
"316 240 LINE SMOOTH",
"376 240 OFFCURVE",
"390 217 OFFCURVE",
"390 171 CURVE SMOOTH",
"390 140 OFFCURVE",
"382 115 OFFCURVE",
"382 88 CURVE SMOOTH",
"382 16 OFFCURVE",
"428 -10 OFFCURVE",
"508 -10 CURVE SMOOTH",
"547 -10 OFFCURVE",
"591 -6 OFFCURVE",
"630 9 CURVE",
"636 50 LINE",
"605 58 OFFCURVE",
"598 89 OFFCURVE",
"598 122 CURVE SMOOTH",
"598 157 OFFCURVE",
"605 177 OFFCURVE",
"605 205 CURVE SMOOTH",
"605 267 OFFCURVE",
"580 304 OFFCURVE",
"517 323 CURVE",
"518 328 LINE",
"596 352 OFFCURVE",
"665 423 OFFCURVE",
"665 529 CURVE SMOOTH",
"665 619 OFFCURVE",
"591 686 OFFCURVE",
"500 686 CURVE SMOOTH"
);
},
{
closed = 1;
nodes = (
"428 529 OFFCURVE",
"444 511 OFFCURVE",
"444 483 CURVE SMOOTH",
"444 442 OFFCURVE",
"428 393 OFFCURVE",
"386 393 CURVE SMOOTH",
"277 393 LINE",
"295 529 LINE",
"402 529 LINE SMOOTH"
);
}
);
width = 682;
}
);
leftKerningGroup = H;
note = R;
rightKerningGroup = R;
unicode = 0052;
},
{
glyphname = S;
layers = (
{
anchors = (
{
name = bottom;
position = "{269, 0}";
},
{
name = top;
position = "{360, 686}";
}
);
layerId = "8F3315DA-A8CB-43B6-A496-83A18984EDD5";
paths = (
{
closed = 1;
nodes = (
"216 696 OFFCURVE",
"97 634 OFFCURVE",
"97 499 CURVE SMOOTH",
"97 261 OFFCURVE",
"463 354 OFFCURVE",
"463 201 CURVE SMOOTH",
"463 120 OFFCURVE",
"390 79 OFFCURVE",
"278 79 CURVE SMOOTH",
"194 79 OFFCURVE",
"135 108 OFFCURVE",
"135 175 CURVE SMOOTH",
"135 183 OFFCURVE",
"136 210 OFFCURVE",
"141 215 CURVE",
"43 215 LINE",
"39 203 OFFCURVE",
"36 177 OFFCURVE",
"36 160 CURVE SMOOTH",
"36 36 OFFCURVE",
"141 -10 OFFCURVE",
"271 -10 CURVE SMOOTH",
"440 -10 OFFCURVE",
"564 48 OFFCURVE",
"564 211 CURVE SMOOTH",
"564 446 OFFCURVE",
"197 357 OFFCURVE",
"197 504 CURVE SMOOTH",
"197 575 OFFCURVE",
"271 607 OFFCURVE",
"361 607 CURVE SMOOTH",
"437 607 OFFCURVE",
"490 577 OFFCURVE",
"490 520 CURVE SMOOTH",
"490 516 OFFCURVE",
"490 512 OFFCURVE",
"486 492 CURVE",
"584 492 LINE",
"588 515 OFFCURVE",
"588 525 OFFCURVE",
"588 536 CURVE SMOOTH",
"588 649 OFFCURVE",
"493 696 OFFCURVE",
"371 696 CURVE SMOOTH"
);
}
);
width = 629;
},
{
anchors = (
{
name = bottom;
position = "{273, 0}";
},
{
name = top;
position = "{364, 686}";
}
);
layerId = "4BBFD287-7A5F-4332-B846-65FFBCBF0D57";
paths = (
{
closed = 1;
nodes = (
"244 696 OFFCURVE",
"122 638 OFFCURVE",
"122 500 CURVE SMOOTH",
"122 293 OFFCURVE",
"497 381 OFFCURVE",
"497 205 CURVE SMOOTH",
"497 76 OFFCURVE",
"389 38 OFFCURVE",
"282 38 CURVE SMOOTH",
"183 38 OFFCURVE",
"106 69 OFFCURVE",
"106 155 CURVE SMOOTH",
"106 169 OFFCURVE",
"110 197 OFFCURVE",
"113 205 CURVE",
"62 205 LINE",
"59 195 OFFCURVE",
"56 167 OFFCURVE",
"56 151 CURVE SMOOTH",
"56 31 OFFCURVE",
"155 -10 OFFCURVE",
"279 -10 CURVE SMOOTH",
"413 -10 OFFCURVE",
"552 49 OFFCURVE",
"552 217 CURVE SMOOTH",
"552 431 OFFCURVE",
"175 345 OFFCURVE",
"175 508 CURVE SMOOTH",
"175 611 OFFCURVE",
"269 648 OFFCURVE",
"368 648 CURVE SMOOTH",
"458 648 OFFCURVE",
"528 613 OFFCURVE",
"528 542 CURVE SMOOTH",
"528 537 OFFCURVE",
"528 531 OFFCURVE",
"524 503 CURVE",
"574 503 LINE",
"578 527 OFFCURVE",
"578 537 OFFCURVE",
"578 546 CURVE SMOOTH",
"578 654 OFFCURVE",
"489 696 OFFCURVE",
"374 696 CURVE SMOOTH"
);
}
);
width = 629;
},
{
anchors = (
{
name = bottom;
position = "{269, 0}";
},
{
name = top;
position = "{360, 686}";
}
);
layerId = "B761BB45-E103-41B9-A767-1F2A3FFB8B31";
paths = (
{
closed = 1;
nodes = (
"197 696 OFFCURVE",
"68 622 OFFCURVE",
"68 471 CURVE SMOOTH",
"68 241 OFFCURVE",
"417 318 OFFCURVE",
"417 200 CURVE SMOOTH",
"417 147 OFFCURVE",
"372 115 OFFCURVE",
"274 115 CURVE SMOOTH",
"199 115 OFFCURVE",
"160 144 OFFCURVE",
"160 193 CURVE SMOOTH",
"160 201 OFFCURVE",
"161 218 OFFCURVE",
"165 224 CURVE",
"19 224 LINE",
"15 209 OFFCURVE",
"12 186 OFFCURVE",
"12 168 CURVE SMOOTH",
"12 41 OFFCURVE",
"126 -10 OFFCURVE",
"262 -10 CURVE SMOOTH",
"480 -10 OFFCURVE",
"578 90 OFFCURVE",
"578 236 CURVE SMOOTH",
"578 457 OFFCURVE",
"227 383 OFFCURVE",
"227 500 CURVE SMOOTH",
"227 549 OFFCURVE",
"279 575 OFFCURVE",
"354 575 CURVE SMOOTH",
"417 575 OFFCURVE",
"456 548 OFFCURVE",
"456 506 CURVE SMOOTH",
"456 498 OFFCURVE",
"455 491 OFFCURVE",
"453 483 CURVE",
"598 483 LINE",
"601 499 OFFCURVE",
"602 516 OFFCURVE",
"602 526 CURVE SMOOTH",
"602 644 OFFCURVE",
"499 696 OFFCURVE",
"368 696 CURVE SMOOTH"
);
}
);
width = 635;
},
{
anchors = (
{
name = bottom;
position = "{288, 0}";
},
{
name = top;
position = "{379, 686}";
}
);
background = {
paths = (
{
closed = 1;
nodes = (
"200 696 OFFCURVE",
"63 611 OFFCURVE",
"63 443 CURVE SMOOTH",
"63 221 OFFCURVE",
"394 284 OFFCURVE",
"394 199 CURVE SMOOTH",
"394 175 OFFCURVE",
"377 151 OFFCURVE",
"293 151 CURVE SMOOTH",
"228 151 OFFCURVE",
"208 180 OFFCURVE",
"208 212 CURVE SMOOTH",
"208 220 OFFCURVE",
"209 227 OFFCURVE",
"212 234 CURVE",
"18 234 LINE",
"15 215 OFFCURVE",
"12 196 OFFCURVE",
"12 177 CURVE SMOOTH",
"12 47 OFFCURVE",
"135 -10 OFFCURVE",
"276 -10 CURVE SMOOTH",
"544 -10 OFFCURVE",
"616 132 OFFCURVE",
"616 261 CURVE SMOOTH",
"616 469 OFFCURVE",
"281 409 OFFCURVE",
"281 497 CURVE SMOOTH",
"281 524 OFFCURVE",
"310 544 OFFCURVE",
"371 544 CURVE SMOOTH",
"421 544 OFFCURVE",
"446 520 OFFCURVE",
"445 493 CURVE SMOOTH",
"445 487 OFFCURVE",
"445 483 OFFCURVE",
"444 474 CURVE",
"636 474 LINE",
"640 494 OFFCURVE",
"640 506 OFFCURVE",
"640 517 CURVE SMOOTH",
"640 641 OFFCURVE",
"529 696 OFFCURVE",
"388 696 CURVE SMOOTH"
);
}
);
};
layerId = "4FDE33F5-0064-4818-A7C2-FB87252213B5";
paths = (
{
closed = 1;
nodes = (
"200 696 OFFCURVE",
"63 611 OFFCURVE",
"63 443 CURVE SMOOTH",
"63 221 OFFCURVE",
"394 284 OFFCURVE",
"394 199 CURVE SMOOTH",
"394 175 OFFCURVE",
"377 151 OFFCURVE",
"293 151 CURVE SMOOTH",
"228 151 OFFCURVE",
"208 180 OFFCURVE",
"208 212 CURVE SMOOTH",
"208 220 OFFCURVE",
"209 227 OFFCURVE",
"212 234 CURVE",
"18 234 LINE",
"13 215 OFFCURVE",
"12 198 OFFCURVE",
"12 177 CURVE SMOOTH",
"12 47 OFFCURVE",
"135 -10 OFFCURVE",
"276 -10 CURVE SMOOTH",
"544 -10 OFFCURVE",
"616 132 OFFCURVE",
"616 261 CURVE SMOOTH",
"616 469 OFFCURVE",
"281 409 OFFCURVE",
"281 497 CURVE SMOOTH",
"281 524 OFFCURVE",
"310 544 OFFCURVE",
"371 544 CURVE SMOOTH",
"419 544 OFFCURVE",
"445 524 OFFCURVE",
"445 489 CURVE SMOOTH",
"445 484 OFFCURVE",
"445 481 OFFCURVE",
"444 474 CURVE",
"636 474 LINE",
"640 494 OFFCURVE",
"640 506 OFFCURVE",
"640 517 CURVE SMOOTH",
"640 641 OFFCURVE",
"529 696 OFFCURVE",
"388 696 CURVE SMOOTH"
);
}
);
width = 651;
}
);
leftKerningGroup = S;
note = S;
rightKerningGroup = S;
unicode = 0053;
},
{
glyphname = Germandbls;
layers = (
{
layerId = "4BBFD287-7A5F-4332-B846-65FFBCBF0D57";
paths = (
{
closed = 1;
nodes = (
"278 696 OFFCURVE",
"153 625 OFFCURVE",
"126 436 CURVE SMOOTH",
"65 0 LINE",
"119 0 LINE",
"181 441 LINE SMOOTH",
"203 599 OFFCURVE",
"300 648 OFFCURVE",
"415 648 CURVE SMOOTH",
"516 648 OFFCURVE",
"590 609 OFFCURVE",
"590 528 CURVE SMOOTH",
"590 434 OFFCURVE",
"508 375 OFFCURVE",
"405 375 CURVE SMOOTH",
"313 375 LINE",
"307 327 LINE",
"404 327 LINE SMOOTH",
"492 327 OFFCURVE",
"562 288 OFFCURVE",
"562 205 CURVE SMOOTH",
"562 106 OFFCURVE",
"495 36 OFFCURVE",
"386 36 CURVE SMOOTH",
"289 36 OFFCURVE",
"247 75 OFFCURVE",
"247 159 CURVE SMOOTH",
"247 171 OFFCURVE",
"248 185 OFFCURVE",
"250 199 CURVE",
"197 199 LINE",
"194 180 OFFCURVE",
"192 163 OFFCURVE",
"192 147 CURVE SMOOTH",
"192 41 OFFCURVE",
"260 -10 OFFCURVE",
"381 -10 CURVE SMOOTH",
"515 -10 OFFCURVE",
"615 74 OFFCURVE",
"615 205 CURVE SMOOTH",
"615 280 OFFCURVE",
"571 332 OFFCURVE",
"510 351 CURVE",
"511 355 LINE",
"585 384 OFFCURVE",
"645 441 OFFCURVE",
"645 536 CURVE SMOOTH",
"645 641 OFFCURVE",
"543 696 OFFCURVE",
"419 696 CURVE SMOOTH"
);
}
);
width = 698;
},
{
layerId = "B761BB45-E103-41B9-A767-1F2A3FFB8B31";
paths = (
{
closed = 1;
nodes = (
"256 695 OFFCURVE",
"101 617 OFFCURVE",
"68 379 CURVE SMOOTH",
"15 0 LINE",
"167 0 LINE",
"225 413 LINE SMOOTH",
"243 539 OFFCURVE",
"327 577 OFFCURVE",
"429 577 CURVE SMOOTH",
"527 577 OFFCURVE",
"578 552 OFFCURVE",
"578 497 CURVE SMOOTH",
"578 437 OFFCURVE",
"537 403 OFFCURVE",
"469 403 CURVE SMOOTH",
"367 403 LINE",
"351 296 LINE",
"443 296 LINE SMOOTH",
"502 296 OFFCURVE",
"561 287 OFFCURVE",
"561 222 CURVE SMOOTH",
"561 154 OFFCURVE",
"529 109 OFFCURVE",
"454 109 CURVE SMOOTH",
"400 109 OFFCURVE",
"377 129 OFFCURVE",
"377 173 CURVE SMOOTH",
"377 183 OFFCURVE",
"378 193 OFFCURVE",
"380 205 CURVE",
"243 205 LINE",
"241 189 OFFCURVE",
"240 173 OFFCURVE",
"240 159 CURVE SMOOTH",
"240 42 OFFCURVE",
"306 -10 OFFCURVE",
"448 -10 CURVE SMOOTH",
"597 -10 OFFCURVE",
"709 76 OFFCURVE",
"709 214 CURVE SMOOTH",
"709 290 OFFCURVE",
"663 338 OFFCURVE",
"610 354 CURVE",
"610 359 LINE",
"674 383 OFFCURVE",
"731 436 OFFCURVE",
"731 521 CURVE SMOOTH",
"731 637 OFFCURVE",
"611 695 OFFCURVE",
"451 695 CURVE SMOOTH"
);
}
);
width = 767;
},
{
layerId = "8F3315DA-A8CB-43B6-A496-83A18984EDD5";
paths = (
{
closed = 1;
nodes = (
"274 697 OFFCURVE",
"133 624 OFFCURVE",
"102 404 CURVE SMOOTH",
"45 0 LINE",
"143 0 LINE",
"202 422 LINE SMOOTH",
"221 560 OFFCURVE",
"314 607 OFFCURVE",
"431 607 CURVE SMOOTH",
"529 607 OFFCURVE",
"597 574 OFFCURVE",
"597 509 CURVE SMOOTH",
"597 430 OFFCURVE",
"531 394 OFFCURVE",
"448 394 CURVE SMOOTH",
"351 394 LINE",
"338 304 LINE",
"433 304 LINE SMOOTH",
"528 304 OFFCURVE",
"573 273 OFFCURVE",
"573 213 CURVE SMOOTH",
"573 126 OFFCURVE",
"523 79 OFFCURVE",
"425 79 CURVE SMOOTH",
"351 79 OFFCURVE",
"317 101 OFFCURVE",
"317 165 CURVE SMOOTH",
"317 176 OFFCURVE",
"318 188 OFFCURVE",
"320 202 CURVE",
"222 202 LINE",
"219 186 OFFCURVE",
"218 170 OFFCURVE",
"218 156 CURVE SMOOTH",
"218 46 OFFCURVE",
"292 -10 OFFCURVE",
"419 -10 CURVE SMOOTH",
"564 -10 OFFCURVE",
"672 74 OFFCURVE",
"672 213 CURVE SMOOTH",
"672 287 OFFCURVE",
"629 334 OFFCURVE",
"568 353 CURVE",
"568 356 LINE",
"627 374 OFFCURVE",
"697 428 OFFCURVE",
"697 525 CURVE SMOOTH",
"697 633 OFFCURVE",
"592 697 OFFCURVE",
"453 697 CURVE SMOOTH"
);
}
);
width = 746;
},
{
layerId = "4FDE33F5-0064-4818-A7C2-FB87252213B5";
paths = (
{
closed = 1;
nodes = (
"261 696 OFFCURVE",
"98 607 OFFCURVE",
"62 356 CURVE SMOOTH",
"11 0 LINE",
"236 0 LINE",
"294 416 LINE SMOOTH",
"309 520 OFFCURVE",
"365 547 OFFCURVE",
"460 547 CURVE SMOOTH",
"536 547 OFFCURVE",
"595 534 OFFCURVE",
"595 484 CURVE SMOOTH",
"595 433 OFFCURVE",
"558 412 OFFCURVE",
"521 412 CURVE SMOOTH",
"413 412 LINE",
"395 289 LINE",
"519 289 LINE SMOOTH",
"554 289 OFFCURVE",
"580 271 OFFCURVE",
"580 231 CURVE SMOOTH",
"580 182 OFFCURVE",
"568 139 OFFCURVE",
"517 139 CURVE SMOOTH",
"479 139 OFFCURVE",
"470 157 OFFCURVE",
"470 189 CURVE SMOOTH",
"470 195 OFFCURVE",
"470 202 OFFCURVE",
"471 209 CURVE",
"295 209 LINE",
"292 192 OFFCURVE",
"291 176 OFFCURVE",
"291 160 CURVE SMOOTH",
"291 48 OFFCURVE",
"355 -10 OFFCURVE",
"500 -10 CURVE SMOOTH",
"662 -10 OFFCURVE",
"778 74 OFFCURVE",
"778 219 CURVE SMOOTH",
"778 289 OFFCURVE",
"734 339 OFFCURVE",
"681 358 CURVE",
"681 362 LINE",
"741 386 OFFCURVE",
"795 438 OFFCURVE",
"795 514 CURVE SMOOTH",
"795 629 OFFCURVE",
"660 696 OFFCURVE",
"482 696 CURVE SMOOTH"
);
}
);
width = 817;
}
);
leftKerningGroup = Germandbls;
rightKerningGroup = Germandbls;
unicode = 1E9E;
},
{
glyphname = Schwa;
layers = (
{
layerId = "4BBFD287-7A5F-4332-B846-65FFBCBF0D57";
paths = (
{
closed = 1;
nodes = (
"401 696 LINE SMOOTH",
"257 696 OFFCURVE",
"153 616 OFFCURVE",
"133 472 CURVE SMOOTH",
"131 460 LINE",
"181 460 LINE",
"183 469 LINE SMOOTH",
"199 588 OFFCURVE",
"284 648 OFFCURVE",
"401 648 CURVE SMOOTH",
"505 648 OFFCURVE",
"589 608 OFFCURVE",
"589 455 CURVE SMOOTH",
"589 415 OFFCURVE",
"586 388 OFFCURVE",
"574 310 CURVE SMOOTH",
"539 84 OFFCURVE",
"445 38 OFFCURVE",
"328 38 CURVE SMOOTH",
"231 38 OFFCURVE",
"153 74 OFFCURVE",
"153 226 CURVE SMOOTH",
"153 252 OFFCURVE",
"156 282 OFFCURVE",
"163 335 CURVE",
"109 335 LINE",
"102 284 OFFCURVE",
"99 253 OFFCURVE",
"99 221 CURVE SMOOTH",
"99 37 OFFCURVE",
"203 -10 OFFCURVE",
"324 -10 CURVE SMOOTH",
"327 -10 LINE SMOOTH",
"472 -10 OFFCURVE",
"591 50 OFFCURVE",
"630 322 CURVE SMOOTH",
"639 385 OFFCURVE",
"642 417 OFFCURVE",
"642 454 CURVE SMOOTH",
"642 640 OFFCURVE",
"535 696 OFFCURVE",
"408 696 CURVE SMOOTH"
);
},
{
closed = 1;
nodes = (
"123 335 LINE",
"116 287 LINE",
"592 287 LINE",
"599 335 LINE"
);
}
);
width = 699;
},
{
layerId = "B761BB45-E103-41B9-A767-1F2A3FFB8B31";
paths = (
{
closed = 1;
nodes = (
"403 696 LINE SMOOTH",
"253 696 OFFCURVE",
"106 605 OFFCURVE",
"84 453 CURVE SMOOTH",
"82 436 LINE",
"235 436 LINE",
"236 445 LINE SMOOTH",
"250 540 OFFCURVE",
"323 573 OFFCURVE",
"392 573 CURVE SMOOTH",
"464 573 OFFCURVE",
"517 538 OFFCURVE",
"517 456 CURVE SMOOTH",
"517 441 OFFCURVE",
"513 402 OFFCURVE",
"494 266 CURVE SMOOTH",
"479 161 OFFCURVE",
"417 113 OFFCURVE",
"333 113 CURVE SMOOTH",
"256 113 OFFCURVE",
"213 155 OFFCURVE",
"213 237 CURVE SMOOTH",
"213 250 OFFCURVE",
"216 273 OFFCURVE",
"228 354 CURVE",
"66 354 LINE",
"57 292 OFFCURVE",
"53 266 OFFCURVE",
"53 241 CURVE SMOOTH",
"53 79 OFFCURVE",
"168 -10 OFFCURVE",
"317 -10 CURVE SMOOTH",
"328 -10 LINE SMOOTH",
"495 -10 OFFCURVE",
"632 95 OFFCURVE",
"659 288 CURVE SMOOTH",
"673 385 OFFCURVE",
"677 412 OFFCURVE",
"677 441 CURVE SMOOTH",
"677 601 OFFCURVE",
"566 696 OFFCURVE",
"414 696 CURVE SMOOTH"
);
},
{
closed = 1;
nodes = (
"95 354 LINE",
"77 230 LINE",
"619 230 LINE",
"637 354 LINE"
);
}
);
width = 716;
},
{
layerId = "8F3315DA-A8CB-43B6-A496-83A18984EDD5";
paths = (
{
closed = 1;
nodes = (
"390 696 LINE SMOOTH",
"253 696 OFFCURVE",
"119 612 OFFCURVE",
"96 448 CURVE SMOOTH",
"94 432 LINE",
"188 432 LINE",
"189 443 LINE SMOOTH",
"206 563 OFFCURVE",
"295 607 OFFCURVE",
"387 607 CURVE SMOOTH",
"492 607 OFFCURVE",
"547 550 OFFCURVE",
"547 446 CURVE SMOOTH",
"547 427 OFFCURVE",
"544 397 OFFCURVE",
"530 293 CURVE SMOOTH",
"510 146 OFFCURVE",
"435 79 OFFCURVE",
"321 79 CURVE SMOOTH",
"216 79 OFFCURVE",
"161 124 OFFCURVE",
"161 227 CURVE SMOOTH",
"161 249 OFFCURVE",
"164 273 OFFCURVE",
"172 330 CURVE",
"74 330 LINE",
"65 268 OFFCURVE",
"62 243 OFFCURVE",
"62 219 CURVE SMOOTH",
"62 64 OFFCURVE",
"162 -10 OFFCURVE",
"309 -10 CURVE SMOOTH",
"319 -10 LINE SMOOTH",
"482 -10 OFFCURVE",
"602 101 OFFCURVE",
"628 293 CURVE SMOOTH",
"642 396 OFFCURVE",
"645 422 OFFCURVE",
"645 451 CURVE SMOOTH",
"645 602 OFFCURVE",
"555 696 OFFCURVE",
"405 696 CURVE SMOOTH"
);
},
{
closed = 1;
nodes = (
"88 330 LINE",
"76 241 LINE",
"604 241 LINE",
"616 330 LINE"
);
}
);
width = 688;
},
{
layerId = "4FDE33F5-0064-4818-A7C2-FB87252213B5";
paths = (
{
closed = 1;
nodes = (
"380 694 LINE SMOOTH",
"245 694 OFFCURVE",
"84 603 OFFCURVE",
"64 460 CURVE SMOOTH",
"60 437 LINE",
"276 437 LINE",
"278 451 LINE SMOOTH",
"287 515 OFFCURVE",
"338 540 OFFCURVE",
"394 540 CURVE SMOOTH",
"452 540 OFFCURVE",
"479 507 OFFCURVE",
"479 462 CURVE SMOOTH",
"479 455 OFFCURVE",
"477 435 OFFCURVE",
"446 212 CURVE SMOOTH",
"438 156 OFFCURVE",
"396 130 OFFCURVE",
"335 130 CURVE SMOOTH",
"283 130 OFFCURVE",
"250 156 OFFCURVE",
"250 204 CURVE SMOOTH",
"250 214 OFFCURVE",
"254 241 OFFCURVE",
"271 365 CURVE",
"45 365 LINE",
"32 275 OFFCURVE",
"29 251 OFFCURVE",
"29 230 CURVE SMOOTH",
"29 87 OFFCURVE",
"144 -10 OFFCURVE",
"296 -10 CURVE SMOOTH",
"352 -10 LINE SMOOTH",
"518 -10 OFFCURVE",
"657 116 OFFCURVE",
"681 282 CURVE SMOOTH",
"695 383 OFFCURVE",
"698 415 OFFCURVE",
"698 439 CURVE SMOOTH",
"698 584 OFFCURVE",
"589 694 OFFCURVE",
"438 694 CURVE SMOOTH"
);
},
{
closed = 1;
nodes = (
"99 365 LINE",
"79 220 LINE",
"635 220 LINE",
"655 365 LINE"
);
}
);
width = 714;
}
);
leftKerningGroup = Schwa;
rightKerningGroup = O;
unicode = 018F;
},
{
glyphname = T;
layers = (
{
anchors = (
{
name = bottom;
position = "{245, 0}";
},
{
name = center;
position = "{292, 334}";
},
{
name = top;
position = "{341, 686}";
}
);
layerId = "8F3315DA-A8CB-43B6-A496-83A18984EDD5";
paths = (
{
closed = 1;
nodes = (
"67 597 LINE",
"281 597 LINE",
"197 0 LINE",
"295 0 LINE",
"379 597 LINE",
"594 597 LINE",
"607 686 LINE",
"80 686 LINE"
);
}
);
width = 575;
},
{
anchors = (
{
name = bottom;
position = "{254, 0}";
},
{
name = center;
position = "{301, 334}";
},
{
name = top;
position = "{350, 686}";
}
);
layerId = "4BBFD287-7A5F-4332-B846-65FFBCBF0D57";
paths = (
{
closed = 1;
nodes = (
"84 638 LINE",
"316 638 LINE",
"226 0 LINE",
"278 0 LINE",
"368 638 LINE",
"600 638 LINE",
"607 686 LINE",
"91 686 LINE"
);
}
);
width = 576;
},
{
anchors = (
{
name = bottom;
position = "{224, 0}";
},
{
name = center;
position = "{271, 334}";
},
{
name = top;
position = "{320, 686}";
}
);
layerId = "B761BB45-E103-41B9-A767-1F2A3FFB8B31";
paths = (
{
closed = 1;
nodes = (
"37 562 LINE",
"232 562 LINE",
"153 0 LINE",
"306 0 LINE",
"385 562 LINE",
"579 562 LINE",
"597 686 LINE",
"55 686 LINE"
);
}
);
width = 557;
},
{
anchors = (
{
name = bottom;
position = "{247, 0}";
},
{
name = center;
position = "{294, 334}";
},
{
name = top;
position = "{343, 686}";
}
);
layerId = "4FDE33F5-0064-4818-A7C2-FB87252213B5";
paths = (
{
closed = 1;
nodes = (
"47 521 LINE",
"221 521 LINE",
"147 0 LINE",
"355 0 LINE",
"429 521 LINE",
"603 521 LINE",
"626 686 LINE",
"70 686 LINE"
);
}
);
width = 585;
}
);
leftKerningGroup = T;
note = T;
rightKerningGroup = T;
unicode = 0054;
},
{
glyphname = U;
layers = (
{
anchors = (
{
name = bottom;
position = "{291, 0}";
},
{
name = ogonek;
position = "{351, 0}";
},
{
name = top;
position = "{390, 686}";
},
{
name = topright;
position = "{469, 719}";
}
);
background = {
paths = (
{
closed = 1;
nodes = (
"86 284 OFFCURVE",
"74 201 OFFCURVE",
"74 180 CURVE SMOOTH",
"74 63 OFFCURVE",
"156 -10 OFFCURVE",
"292 -10 CURVE SMOOTH",
"305 -10 LINE SMOOTH",
"467 -10 OFFCURVE",
"565 79 OFFCURVE",
"585 219 CURVE SMOOTH",
"650 686 LINE",
"552 686 LINE",
"487 221 LINE SMOOTH",
"475 137 OFFCURVE",
"408 79 OFFCURVE",
"311 79 CURVE SMOOTH",
"223 79 OFFCURVE",
"173 129 OFFCURVE",
"173 200 CURVE SMOOTH",
"173 236 OFFCURVE",
"199 398 OFFCURVE",
"240 686 CURVE",
"142 686 LINE"
);
}
);
};
layerId = "8F3315DA-A8CB-43B6-A496-83A18984EDD5";
paths = (
{
closed = 1;
nodes = (
"86 284 OFFCURVE",
"74 201 OFFCURVE",
"74 180 CURVE SMOOTH",
"74 63 OFFCURVE",
"156 -10 OFFCURVE",
"292 -10 CURVE SMOOTH",
"305 -10 LINE SMOOTH",
"467 -10 OFFCURVE",
"565 79 OFFCURVE",
"585 219 CURVE SMOOTH",
"650 686 LINE",
"552 686 LINE",
"487 221 LINE SMOOTH",
"475 137 OFFCURVE",
"408 79 OFFCURVE",
"311 79 CURVE SMOOTH",
"223 79 OFFCURVE",
"173 118 OFFCURVE",
"173 191 CURVE SMOOTH",
"173 227 OFFCURVE",
"199 398 OFFCURVE",
"240 686 CURVE",
"142 686 LINE"
);
}
);
width = 682;
},
{
anchors = (
{
name = bottom;
position = "{296, 0}";
},
{
name = ogonek;
position = "{339, 0}";
},
{
name = top;
position = "{395, 686}";
},
{
name = topright;
position = "{467, 724}";
}
);
background = {
paths = (
{
closed = 1;
nodes = (
"162 686 OFFCURVE",
"94 233 OFFCURVE",
"94 180 CURVE SMOOTH",
"94 64 OFFCURVE",
"173 -10 OFFCURVE",
"303 -10 CURVE SMOOTH",
"447 -10 OFFCURVE",
"554 81 OFFCURVE",
"574 220 CURVE SMOOTH",
"639 686 LINE",
"585 686 LINE",
"520 222 LINE SMOOTH",
"505 114 OFFCURVE",
"428 38 OFFCURVE",
"309 38 CURVE SMOOTH",
"204 38 OFFCURVE",
"148 96 OFFCURVE",
"148 187 CURVE SMOOTH",
"148 214 OFFCURVE",
"149 210 OFFCURVE",
"216 686 CURVE",
"162 686 LINE SMOOTH"
);
}
);
};
layerId = "4BBFD287-7A5F-4332-B846-65FFBCBF0D57";
paths = (
{
closed = 1;
nodes = (
"162 686 OFFCURVE",
"94 233 OFFCURVE",
"94 180 CURVE SMOOTH",
"94 64 OFFCURVE",
"174 -10 OFFCURVE",
"302 -10 CURVE SMOOTH",
"306 -10 LINE SMOOTH",
"446 -10 OFFCURVE",
"554 82 OFFCURVE",
"574 220 CURVE SMOOTH",
"639 686 LINE",
"585 686 LINE",
"520 222 LINE SMOOTH",
"505 114 OFFCURVE",
"428 38 OFFCURVE",
"309 38 CURVE SMOOTH",
"204 38 OFFCURVE",
"148 96 OFFCURVE",
"148 187 CURVE SMOOTH",
"148 214 OFFCURVE",
"149 210 OFFCURVE",
"216 686 CURVE",
"162 686 LINE SMOOTH"
);
}
);
width = 679;
},
{
anchors = (
{
name = bottom;
position = "{278, 0}";
},
{
name = ogonek;
position = "{328, 0}";
},
{
name = top;
position = "{377, 686}";
},
{
name = topright;
position = "{440, 721}";
}
);
background = {
paths = (
{
closed = 1;
nodes = (
"45 205 OFFCURVE",
"44 198 OFFCURVE",
"44 181 CURVE SMOOTH",
"44 64 OFFCURVE",
"131 -10 OFFCURVE",
"273 -10 CURVE SMOOTH",
"301 -10 LINE SMOOTH",
"457 -10 OFFCURVE",
"572 75 OFFCURVE",
"592 218 CURVE SMOOTH",
"657 686 LINE",
"503 686 LINE",
"438 221 LINE SMOOTH",
"429 157 OFFCURVE",
"376 112 OFFCURVE",
"305 112 CURVE SMOOTH",
"241 112 OFFCURVE",
"200 150 OFFCURVE",
"200 205 CURVE SMOOTH",
"200 213 OFFCURVE",
"200 215 OFFCURVE",
"266 686 CURVE",
"112 686 LINE"
);
}
);
};
layerId = "B761BB45-E103-41B9-A767-1F2A3FFB8B31";
paths = (
{
closed = 1;
nodes = (
"63 337 OFFCURVE",
"44 206 OFFCURVE",
"44 172 CURVE SMOOTH",
"44 70 OFFCURVE",
"131 -10 OFFCURVE",
"273 -10 CURVE SMOOTH",
"301 -10 LINE SMOOTH",
"457 -10 OFFCURVE",
"572 75 OFFCURVE",
"592 218 CURVE SMOOTH",
"657 686 LINE",
"503 686 LINE",
"438 221 LINE SMOOTH",
"429 157 OFFCURVE",
"376 112 OFFCURVE",
"305 112 CURVE SMOOTH",
"241 112 OFFCURVE",
"200 140 OFFCURVE",
"200 195 CURVE SMOOTH",
"200 223 OFFCURVE",
"216 323 OFFCURVE",
"266 686 CURVE",
"112 686 LINE"
);
}
);
width = 673;
},
{
anchors = (
{
name = bottom;
position = "{296, 0}";
},
{
name = ogonek;
position = "{361, 0}";
},
{
name = top;
position = "{395, 686}";
},
{
name = topright;
position = "{450, 712}";
}
);
background = {
paths = (
{
closed = 1;
nodes = (
"46 248 OFFCURVE",
"39 205 OFFCURVE",
"39 182 CURVE SMOOTH",
"39 65 OFFCURVE",
"131 -10 OFFCURVE",
"280 -10 CURVE SMOOTH",
"323 -10 LINE SMOOTH",
"504 -10 OFFCURVE",
"604 80 OFFCURVE",
"625 218 CURVE SMOOTH",
"690 686 LINE",
"480 686 LINE",
"415 221 LINE SMOOTH",
"409 177 OFFCURVE",
"379 146 OFFCURVE",
"324 146 CURVE SMOOTH",
"283 146 OFFCURVE",
"252 171 OFFCURVE",
"252 210 CURVE SMOOTH",
"252 218 OFFCURVE",
"260 275 OFFCURVE",
"318 686 CURVE",
"107 686 LINE"
);
}
);
};
layerId = "4FDE33F5-0064-4818-A7C2-FB87252213B5";
paths = (
{
closed = 1;
nodes = (
"57 323 OFFCURVE",
"39 205 OFFCURVE",
"39 172 CURVE SMOOTH",
"39 65 OFFCURVE",
"131 -10 OFFCURVE",
"280 -10 CURVE SMOOTH",
"323 -10 LINE SMOOTH",
"504 -10 OFFCURVE",
"604 80 OFFCURVE",
"625 218 CURVE SMOOTH",
"690 686 LINE",
"480 686 LINE",
"415 221 LINE SMOOTH",
"409 177 OFFCURVE",
"379 146 OFFCURVE",
"324 146 CURVE SMOOTH",
"283 146 OFFCURVE",
"252 161 OFFCURVE",
"252 200 CURVE SMOOTH",
"252 228 OFFCURVE",
"266 319 OFFCURVE",
"318 686 CURVE",
"107 686 LINE"
);
}
);
width = 687;
}
);
leftKerningGroup = U;
note = U;
rightKerningGroup = U;
unicode = 0055;
},
{
glyphname = Uogonek;
layers = (
{
background = {
paths = (
{
closed = 1;
nodes = (
"552 686 LINE",
"487 221 LINE SMOOTH",
"475 137 OFFCURVE",
"408 79 OFFCURVE",
"311 79 CURVE SMOOTH",
"223 79 OFFCURVE",
"173 129 OFFCURVE",
"173 200 CURVE SMOOTH",
"173 205 OFFCURVE",
"173 209 OFFCURVE",
"176 228 CURVE SMOOTH",
"182 272 LINE SMOOTH",
"190 333 OFFCURVE",
"208 450 OFFCURVE",
"240 686 CURVE",
"142 686 LINE",
"78 218 OFFCURVE",
"74 201 OFFCURVE",
"74 180 CURVE SMOOTH",
"74 63 OFFCURVE",
"156 -10 OFFCURVE",
"292 -10 CURVE SMOOTH",
"305 -10 LINE SMOOTH",
"323 -10 OFFCURVE",
"341 -9 OFFCURVE",
"357 -7 CURVE",
"329 -25 OFFCURVE",
"303 -48 OFFCURVE",
"303 -83 CURVE SMOOTH",
"303 -128 OFFCURVE",
"347 -143 OFFCURVE",
"390 -143 CURVE SMOOTH",
"423 -143 OFFCURVE",
"454 -135 OFFCURVE",
"483 -119 CURVE",
"475 -82 LINE",
"452 -89 OFFCURVE",
"430 -96 OFFCURVE",
"406 -96 CURVE SMOOTH",
"387 -96 OFFCURVE",
"366 -88 OFFCURVE",
"366 -65 CURVE SMOOTH",
"366 -40 OFFCURVE",
"397 -11 OFFCURVE",
"422 0 CURVE",
"393 0 LINE",
"502 27 OFFCURVE",
"569 106 OFFCURVE",
"585 219 CURVE SMOOTH",
"650 686 LINE"
);
}
);
};
components = (
{
name = U;
},
{
name = ogonekcomb;
transform = "{1, 0, 0, 1, 577, 0}";
}
);
layerId = "8F3315DA-A8CB-43B6-A496-83A18984EDD5";
width = 682;
},
{
background = {
paths = (
{
closed = 1;
nodes = (
"565 686 LINE",
"500 222 LINE SMOOTH",
"485 114 OFFCURVE",
"408 38 OFFCURVE",
"289 38 CURVE SMOOTH",
"184 38 OFFCURVE",
"128 96 OFFCURVE",
"128 187 CURVE SMOOTH",
"128 214 OFFCURVE",
"129 210 OFFCURVE",
"196 686 CURVE",
"142 686 LINE SMOOTH",
"142 686 OFFCURVE",
"74 233 OFFCURVE",
"74 180 CURVE SMOOTH",
"74 64 OFFCURVE",
"153 -10 OFFCURVE",
"283 -10 CURVE SMOOTH",
"289 -10 LINE",
"263 -28 OFFCURVE",
"240 -50 OFFCURVE",
"240 -83 CURVE SMOOTH",
"240 -129 OFFCURVE",
"284 -143 OFFCURVE",
"327 -143 CURVE SMOOTH",
"356 -143 OFFCURVE",
"387 -135 OFFCURVE",
"415 -119 CURVE",
"406 -86 LINE",
"384 -93 OFFCURVE",
"361 -100 OFFCURVE",
"337 -100 CURVE SMOOTH",
"318 -100 OFFCURVE",
"298 -93 OFFCURVE",
"298 -67 CURVE SMOOTH",
"298 -37 OFFCURVE",
"326 -18 OFFCURVE",
"349 -3 CURVE",
"459 20 OFFCURVE",
"537 103 OFFCURVE",
"554 220 CURVE SMOOTH",
"619 686 LINE"
);
}
);
};
components = (
{
name = U;
},
{
name = ogonekcomb;
transform = "{1, 0, 0, 1, 560, 0}";
}
);
layerId = "4BBFD287-7A5F-4332-B846-65FFBCBF0D57";
width = 679;
},
{
background = {
paths = (
{
closed = 1;
nodes = (
"503 686 LINE",
"438 221 LINE SMOOTH",
"429 157 OFFCURVE",
"376 112 OFFCURVE",
"305 112 CURVE SMOOTH",
"241 112 OFFCURVE",
"200 150 OFFCURVE",
"200 205 CURVE SMOOTH",
"200 213 OFFCURVE",
"200 215 OFFCURVE",
"266 686 CURVE",
"112 686 LINE",
"45 205 OFFCURVE",
"44 198 OFFCURVE",
"44 181 CURVE SMOOTH",
"44 64 OFFCURVE",
"131 -10 OFFCURVE",
"273 -10 CURVE SMOOTH",
"300 -10 LINE",
"274 -28 OFFCURVE",
"251 -50 OFFCURVE",
"251 -83 CURVE SMOOTH",
"251 -129 OFFCURVE",
"295 -143 OFFCURVE",
"338 -143 CURVE SMOOTH",
"371 -143 OFFCURVE",
"407 -135 OFFCURVE",
"438 -119 CURVE",
"430 -79 LINE",
"408 -87 OFFCURVE",
"385 -93 OFFCURVE",
"361 -93 CURVE SMOOTH",
"342 -93 OFFCURVE",
"322 -86 OFFCURVE",
"322 -64 CURVE SMOOTH",
"322 -38 OFFCURVE",
"347 -17 OFFCURVE",
"371 -4 CURVE",
"491 18 OFFCURVE",
"575 97 OFFCURVE",
"592 218 CURVE SMOOTH",
"657 686 LINE"
);
}
);
};
components = (
{
name = U;
},
{
name = ogonekcomb;
transform = "{1, 0, 0, 1, 561, 0}";
}
);
layerId = "B761BB45-E103-41B9-A767-1F2A3FFB8B31";
width = 673;
},
{
background = {
paths = (
{
closed = 1;
nodes = (
"480 686 LINE",
"415 221 LINE SMOOTH",
"409 177 OFFCURVE",
"379 146 OFFCURVE",
"324 146 CURVE SMOOTH",
"283 146 OFFCURVE",
"252 171 OFFCURVE",
"252 210 CURVE SMOOTH",
"252 215 OFFCURVE",
"252 218 OFFCURVE",
"253 221 CURVE",
"318 686 LINE",
"107 686 LINE",
"42 218 LINE SMOOTH",
"40 206 OFFCURVE",
"39 194 OFFCURVE",
"39 182 CURVE SMOOTH",
"39 65 OFFCURVE",
"131 -10 OFFCURVE",
"280 -10 CURVE SMOOTH",
"323 -10 LINE",
"343 -10 LINE",
"316 -27 OFFCURVE",
"293 -50 OFFCURVE",
"293 -83 CURVE SMOOTH",
"293 -128 OFFCURVE",
"337 -143 OFFCURVE",
"380 -143 CURVE SMOOTH",
"416 -143 OFFCURVE",
"453 -135 OFFCURVE",
"488 -119 CURVE",
"481 -76 LINE",
"458 -84 OFFCURVE",
"435 -90 OFFCURVE",
"412 -90 CURVE SMOOTH",
"393 -90 OFFCURVE",
"372 -83 OFFCURVE",
"372 -62 CURVE SMOOTH",
"372 -31 OFFCURVE",
"405 -13 OFFCURVE",
"428 0 CURVE",
"420 0 LINE",
"540 27 OFFCURVE",
"608 107 OFFCURVE",
"625 218 CURVE SMOOTH",
"690 686 LINE"
);
}
);
};
components = (
{
name = U;
},
{
name = ogonekcomb;
transform = "{1, 0, 0, 1, 602, 0}";
}
);
layerId = "4FDE33F5-0064-4818-A7C2-FB87252213B5";
width = 687;
}
);
leftKerningGroup = U;
note = Uogonek;
rightKerningGroup = U;
unicode = 0172;
},
{
glyphname = V;
layers = (
{
layerId = "8F3315DA-A8CB-43B6-A496-83A18984EDD5";
paths = (
{
closed = 1;
nodes = (
"205 0 LINE",
"310 0 LINE",
"651 686 LINE",
"556 686 LINE",
"284 133 LINE",
"278 133 LINE",
"163 686 LINE",
"59 686 LINE"
);
}
);
width = 602;
},
{
layerId = "4BBFD287-7A5F-4332-B846-65FFBCBF0D57";
paths = (
{
closed = 1;
nodes = (
"242 0 LINE",
"290 0 LINE",
"646 686 LINE",
"593 686 LINE",
"283 86 LINE",
"278 86 LINE",
"138 686 LINE",
"79 686 LINE"
);
}
);
width = 602;
},
{
layerId = "B761BB45-E103-41B9-A767-1F2A3FFB8B31";
paths = (
{
closed = 1;
nodes = (
"183 0 LINE",
"360 0 LINE",
"683 686 LINE",
"535 686 LINE",
"309 196 LINE",
"304 196 LINE",
"217 686 LINE",
"55 686 LINE"
);
}
);
width = 643;
},
{
layerId = "4FDE33F5-0064-4818-A7C2-FB87252213B5";
paths = (
{
closed = 1;
nodes = (
"159 0 LINE",
"409 0 LINE",
"714 686 LINE",
"512 686 LINE",
"333 260 LINE",
"329 260 LINE",
"269 686 LINE",
"51 686 LINE"
);
}
);
width = 655;
}
);
leftKerningGroup = V;
note = V;
rightKerningGroup = V;
unicode = 0056;
},
{
glyphname = W;
layers = (
{
anchors = (
{
name = top;
position = "{512, 686}";
}
);
layerId = "8F3315DA-A8CB-43B6-A496-83A18984EDD5";
paths = (
{
closed = 1;
nodes = (
"165 0 LINE",
"265 0 LINE",
"480 496 LINE",
"487 496 LINE",
"557 0 LINE",
"657 0 LINE",
"955 686 LINE",
"860 686 LINE",
"641 169 LINE",
"635 169 LINE",
"563 686 LINE",
"468 686 LINE",
"249 169 LINE",
"243 169 LINE",
"171 686 LINE",
"67 686 LINE"
);
}
);
width = 914;
},
{
anchors = (
{
name = top;
position = "{523, 686}";
}
);
layerId = "4BBFD287-7A5F-4332-B846-65FFBCBF0D57";
paths = (
{
closed = 1;
nodes = (
"205 0 LINE",
"251 0 LINE",
"502 581 LINE",
"506 581 LINE",
"593 0 LINE",
"639 0 LINE",
"936 686 LINE",
"886 686 LINE",
"637 107 LINE",
"633 107 LINE",
"548 686 LINE",
"498 686 LINE",
"249 107 LINE",
"245 107 LINE",
"160 686 LINE",
"102 686 LINE"
);
}
);
width = 914;
},
{
anchors = (
{
name = top;
position = "{540, 686}";
}
);
layerId = "B761BB45-E103-41B9-A767-1F2A3FFB8B31";
paths = (
{
closed = 1;
nodes = (
"150 0 LINE",
"321 0 LINE",
"493 412 LINE",
"499 412 LINE",
"553 0 LINE",
"722 0 LINE",
"1012 686 LINE",
"866 686 LINE",
"682 237 LINE",
"677 237 LINE",
"619 686 LINE",
"464 686 LINE",
"279 237 LINE",
"274 237 LINE",
"216 686 LINE",
"55 686 LINE"
);
}
);
width = 972;
},
{
anchors = (
{
name = top;
position = "{568, 686}";
}
);
layerId = "4FDE33F5-0064-4818-A7C2-FB87252213B5";
paths = (
{
closed = 1;
nodes = (
"143 0 LINE",
"385 0 LINE",
"515 329 LINE",
"521 329 LINE",
"557 0 LINE",
"795 0 LINE",
"1078 686 LINE",
"881 686 LINE",
"730 305 LINE",
"726 305 LINE",
"684 686 LINE",
"469 686 LINE",
"317 305 LINE",
"313 305 LINE",
"270 686 LINE",
"53 686 LINE"
);
}
);
width = 1022;
}
);
leftKerningGroup = V;
note = W;
rightKerningGroup = V;
unicode = 0057;
},
{
glyphname = X;
layers = (
{
background = {
paths = (
{
closed = 1;
nodes = (
"86 685 LINE",
"267 355 LINE",
"-33 0 LINE",
"76 0 LINE",
"308 275 LINE",
"312 275 LINE",
"461 0 LINE",
"579 0 LINE",
"381 361 LINE",
"653 685 LINE",
"544 685 LINE",
"340 441 LINE",
"336 441 LINE",
"204 685 LINE"
);
}
);
};
layerId = "8F3315DA-A8CB-43B6-A496-83A18984EDD5";
paths = (
{
closed = 1;
nodes = (
"88 685 LINE",
"267 355 LINE",
"-32 0 LINE",
"76 0 LINE",
"308 275 LINE",
"312 275 LINE",
"461 0 LINE",
"579 0 LINE",
"381 361 LINE",
"654 685 LINE",
"545 685 LINE",
"340 441 LINE",
"336 441 LINE",
"205 685 LINE"
);
}
);
width = 628;
},
{
layerId = "4BBFD287-7A5F-4332-B846-65FFBCBF0D57";
paths = (
{
closed = 1;
nodes = (
"112 686 LINE",
"298 359 LINE",
"-7 0 LINE",
"51 0 LINE",
"319 315 LINE",
"323 315 LINE",
"499 0 LINE",
"564 0 LINE",
"360 359 LINE",
"639 686 LINE",
"580 686 LINE",
"339 402 LINE",
"335 402 LINE",
"177 686 LINE"
);
}
);
width = 628;
},
{
layerId = "B761BB45-E103-41B9-A767-1F2A3FFB8B31";
paths = (
{
closed = 1;
nodes = (
"70 686 LINE",
"234 360 LINE",
"-48 0 LINE",
"118 0 LINE",
"307 245 LINE",
"311 245 LINE",
"428 0 LINE",
"609 0 LINE",
"428 362 LINE",
"685 686 LINE",
"518 686 LINE",
"355 476 LINE",
"351 476 LINE",
"251 686 LINE"
);
}
);
width = 658;
},
{
layerId = "4FDE33F5-0064-4818-A7C2-FB87252213B5";
paths = (
{
closed = 1;
nodes = (
"62 686 LINE",
"209 363 LINE",
"-56 0 LINE",
"169 0 LINE",
"314 213 LINE",
"318 213 LINE",
"404 0 LINE",
"648 0 LINE",
"484 362 LINE",
"724 686 LINE",
"499 686 LINE",
"379 511 LINE",
"375 511 LINE",
"305 686 LINE"
);
}
);
width = 672;
}
);
leftKerningGroup = X;
note = X;
rightKerningGroup = X;
unicode = 0058;
},
{
glyphname = Y;
layers = (
{
anchors = (
{
name = bottom;
position = "{243, 0}";
},
{
name = top;
position = "{341, 686}";
}
);
layerId = "8F3315DA-A8CB-43B6-A496-83A18984EDD5";
paths = (
{
closed = 1;
nodes = (
"49 686 LINE",
"231 265 LINE",
"193 0 LINE",
"291 0 LINE",
"329 265 LINE",
"629 686 LINE",
"528 686 LINE",
"302 367 LINE",
"298 367 LINE",
"160 686 LINE"
);
}
);
width = 570;
},
{
anchors = (
{
name = bottom;
position = "{248, 0}";
},
{
name = top;
position = "{346, 686}";
}
);
layerId = "4BBFD287-7A5F-4332-B846-65FFBCBF0D57";
paths = (
{
closed = 1;
nodes = (
"71 686 LINE",
"258 266 LINE",
"220 0 LINE",
"274 0 LINE",
"312 266 LINE",
"617 686 LINE",
"562 686 LINE",
"297 321 LINE",
"292 321 LINE",
"134 686 LINE"
);
}
);
width = 570;
},
{
anchors = (
{
name = bottom;
position = "{270, 0}";
},
{
name = top;
position = "{368, 686}";
}
);
layerId = "B761BB45-E103-41B9-A767-1F2A3FFB8B31";
paths = (
{
closed = 1;
nodes = (
"55 686 LINE",
"230 263 LINE",
"193 0 LINE",
"347 0 LINE",
"384 263 LINE",
"678 686 LINE",
"520 686 LINE",
"338 414 LINE",
"333 414 LINE",
"229 686 LINE"
);
}
);
width = 637;
},
{
anchors = (
{
name = bottom;
position = "{280, 0}";
},
{
name = top;
position = "{378, 686}";
}
);
layerId = "4FDE33F5-0064-4818-A7C2-FB87252213B5";
paths = (
{
closed = 1;
nodes = (
"44 686 LINE",
"212 262 LINE",
"175 0 LINE",
"384 0 LINE",
"421 262 LINE",
"708 686 LINE",
"493 686 LINE",
"356 461 LINE",
"351 461 LINE",
"280 686 LINE"
);
}
);
width = 644;
}
);
leftKerningGroup = Y;
note = Y;
rightKerningGroup = Y;
unicode = 0059;
},
{
glyphname = Z;
layers = (
{
anchors = (
{
name = top;
position = "{358, 686}";
}
);
layerId = "8F3315DA-A8CB-43B6-A496-83A18984EDD5";
paths = (
{
closed = 1;
nodes = (
"99 597 LINE",
"440 597 LINE",
"-3 38 LINE",
"-9 0 LINE",
"514 0 LINE",
"527 89 LINE",
"153 89 LINE",
"597 648 LINE",
"603 686 LINE",
"112 686 LINE"
);
}
);
width = 595;
},
{
anchors = (
{
name = top;
position = "{368, 686}";
}
);
layerId = "4BBFD287-7A5F-4332-B846-65FFBCBF0D57";
paths = (
{
closed = 1;
nodes = (
"125 638 LINE",
"514 638 LINE",
"15 25 LINE",
"11 0 LINE",
"514 0 LINE",
"521 48 LINE",
"99 48 LINE",
"599 662 LINE",
"603 686 LINE",
"132 686 LINE"
);
}
);
width = 595;
},
{
anchors = (
{
name = top;
position = "{370, 686}";
}
);
layerId = "B761BB45-E103-41B9-A767-1F2A3FFB8B31";
paths = (
{
closed = 1;
nodes = (
"96 563 LINE",
"388 563 LINE",
"0 49 LINE",
"-6 0 LINE",
"540 0 LINE",
"558 123 LINE",
"235 123 LINE",
"622 636 LINE",
"629 686 LINE",
"114 686 LINE"
);
}
);
width = 631;
},
{
anchors = (
{
name = top;
position = "{365, 686}";
}
);
layerId = "4FDE33F5-0064-4818-A7C2-FB87252213B5";
paths = (
{
closed = 1;
nodes = (
"70 526 LINE",
"315 526 LINE",
"-18 61 LINE",
"-27 0 LINE",
"543 0 LINE",
"566 161 LINE",
"294 161 LINE",
"623 625 LINE",
"632 686 LINE",
"93 686 LINE"
);
}
);
width = 607;
}
);
leftKerningGroup = Z;
note = Z;
rightKerningGroup = Z;
unicode = 005A;
},
{
glyphname = a;
layers = (
{
anchors = (
{
name = bottom;
position = "{221, 0}";
},
{
name = ogonek;
position = "{471, 0}";
},
{
name = top;
position = "{305, 511}";
}
);
background = {
paths = (
{
closed = 1;
nodes = (
"362 446 OFFCURVE",
"406 414 OFFCURVE",
"406 318 CURVE SMOOTH",
"406 284 OFFCURVE",
"402 252 OFFCURVE",
"397 222 CURVE SMOOTH",
"382 132 OFFCURVE",
"329 65 OFFCURVE",
"244 65 CURVE SMOOTH",
"177 65 OFFCURVE",
"135 97 OFFCURVE",
"135 193 CURVE SMOOTH",
"135 216 OFFCURVE",
"137 242 OFFCURVE",
"141 269 CURVE SMOOTH",
"154 356 OFFCURVE",
"196 446 OFFCURVE",
"297 446 CURVE SMOOTH"
);
}
);
};
layerId = "8F3315DA-A8CB-43B6-A496-83A18984EDD5";
paths = (
{
closed = 1;
nodes = (
"153 521 OFFCURVE",
"42 405 OFFCURVE",
"42 190 CURVE SMOOTH",
"42 52 OFFCURVE",
"116 -10 OFFCURVE",
"216 -10 CURVE SMOOTH",
"285 -10 OFFCURVE",
"338 18 OFFCURVE",
"381 65 CURVE",
"381 24 OFFCURVE",
"398 -10 OFFCURVE",
"457 -10 CURVE SMOOTH",
"493 -10 OFFCURVE",
"521 2 OFFCURVE",
"534 10 CURVE",
"543 79 LINE",
"532 72 OFFCURVE",
"511 65 OFFCURVE",
"496 65 CURVE SMOOTH",
"483 65 OFFCURVE",
"472 71 OFFCURVE",
"472 90 CURVE SMOOTH",
"472 119 OFFCURVE",
"502 332 OFFCURVE",
"530 511 CURVE",
"465 511 LINE",
"434 446 LINE",
"427 446 LINE",
"403 490 OFFCURVE",
"353 521 OFFCURVE",
"284 521 CURVE SMOOTH"
);
},
{
closed = 1;
nodes = (
"380 446 OFFCURVE",
"406 393 OFFCURVE",
"406 315 CURVE SMOOTH",
"406 287 OFFCURVE",
"403 255 OFFCURVE",
"397 222 CURVE SMOOTH",
"382 132 OFFCURVE",
"329 65 OFFCURVE",
"244 65 CURVE SMOOTH",
"163 65 OFFCURVE",
"135 114 OFFCURVE",
"135 193 CURVE SMOOTH",
"135 216 OFFCURVE",
"137 242 OFFCURVE",
"141 269 CURVE SMOOTH",
"154 356 OFFCURVE",
"196 446 OFFCURVE",
"297 446 CURVE SMOOTH"
);
}
);
width = 607;
},
{
anchors = (
{
name = bottom;
position = "{241, 0}";
},
{
name = ogonek;
position = "{477, 0}";
},
{
name = top;
position = "{325, 511}";
}
);
background = {
paths = (
{
closed = 1;
nodes = (
"386 475 OFFCURVE",
"443 428 OFFCURVE",
"443 321 CURVE SMOOTH",
"443 285 OFFCURVE",
"437 249 OFFCURVE",
"431 214 CURVE SMOOTH",
"414 117 OFFCURVE",
"355 36 OFFCURVE",
"249 36 CURVE SMOOTH",
"174 36 OFFCURVE",
"118 77 OFFCURVE",
"118 193 CURVE SMOOTH",
"118 220 OFFCURVE",
"120 248 OFFCURVE",
"125 277 CURVE SMOOTH",
"142 378 OFFCURVE",
"198 475 OFFCURVE",
"310 475 CURVE SMOOTH"
);
}
);
};
layerId = "4BBFD287-7A5F-4332-B846-65FFBCBF0D57";
paths = (
{
closed = 1;
nodes = (
"137 521 OFFCURVE",
"67 344 OFFCURVE",
"67 190 CURVE SMOOTH",
"67 50 OFFCURVE",
"140 -10 OFFCURVE",
"237 -10 CURVE SMOOTH",
"309 -10 OFFCURVE",
"367 15 OFFCURVE",
"412 69 CURVE",
"404 22 OFFCURVE",
"428 -10 OFFCURVE",
"469 -10 CURVE SMOOTH",
"492 -10 OFFCURVE",
"513 -3 OFFCURVE",
"532 9 CURVE",
"538 52 LINE",
"521 43 OFFCURVE",
"500 36 OFFCURVE",
"485 36 CURVE SMOOTH",
"472 36 OFFCURVE",
"462 43 OFFCURVE",
"462 61 CURVE SMOOTH",
"462 73 OFFCURVE",
"483 225 OFFCURVE",
"524 511 CURVE",
"491 511 LINE",
"467 440 LINE",
"463 440 LINE",
"437 490 OFFCURVE",
"384 521 OFFCURVE",
"312 521 CURVE SMOOTH"
);
},
{
closed = 1;
nodes = (
"402 475 OFFCURVE",
"443 412 OFFCURVE",
"443 315 CURVE SMOOTH",
"443 283 OFFCURVE",
"439 248 OFFCURVE",
"430 210 CURVE SMOOTH",
"408 113 OFFCURVE",
"355 36 OFFCURVE",
"249 36 CURVE SMOOTH",
"152 36 OFFCURVE",
"118 104 OFFCURVE",
"118 197 CURVE SMOOTH",
"118 222 OFFCURVE",
"121 249 OFFCURVE",
"125 277 CURVE SMOOTH",
"141 378 OFFCURVE",
"198 475 OFFCURVE",
"310 475 CURVE SMOOTH"
);
}
);
width = 607;
},
{
anchors = (
{
name = bottom;
position = "{213, 0}";
},
{
name = ogonek;
position = "{479, 0}";
},
{
name = top;
position = "{302, 511}";
}
);
layerId = "B761BB45-E103-41B9-A767-1F2A3FFB8B31";
paths = (
{
closed = 1;
nodes = (
"122 521 OFFCURVE",
"31 371 OFFCURVE",
"31 191 CURVE SMOOTH",
"31 66 OFFCURVE",
"91 -10 OFFCURVE",
"203 -10 CURVE SMOOTH",
"266 -10 OFFCURVE",
"321 21 OFFCURVE",
"360 66 CURVE",
"365 17 OFFCURVE",
"398 -10 OFFCURVE",
"466 -10 CURVE SMOOTH",
"500 -10 OFFCURVE",
"535 0 OFFCURVE",
"556 11 CURVE",
"570 104 LINE",
"560 97 OFFCURVE",
"542 90 OFFCURVE",
"528 90 CURVE SMOOTH",
"512 90 OFFCURVE",
"503 100 OFFCURVE",
"503 117 CURVE SMOOTH",
"503 132 OFFCURVE",
"544 421 OFFCURVE",
"557 511 CURVE",
"450 511 LINE",
"417 448 LINE",
"411 448 LINE",
"385 493 OFFCURVE",
"333 521 OFFCURVE",
"272 521 CURVE SMOOTH"
);
},
{
closed = 1;
nodes = (
"349 415 OFFCURVE",
"383 384 OFFCURVE",
"383 322 CURVE SMOOTH",
"383 313 OFFCURVE",
"382 304 OFFCURVE",
"369 211 CURVE SMOOTH",
"357 130 OFFCURVE",
"310 90 OFFCURVE",
"256 90 CURVE SMOOTH",
"208 90 OFFCURVE",
"175 121 OFFCURVE",
"175 183 CURVE SMOOTH",
"175 192 OFFCURVE",
"176 201 OFFCURVE",
"189 294 CURVE SMOOTH",
"201 375 OFFCURVE",
"247 415 OFFCURVE",
"302 415 CURVE SMOOTH"
);
}
);
width = 598;
},
{
anchors = (
{
name = bottom;
position = "{216, 0}";
},
{
name = ogonek;
position = "{484, 0}";
},
{
name = top;
position = "{315, 511}";
}
);
layerId = "4FDE33F5-0064-4818-A7C2-FB87252213B5";
paths = (
{
closed = 1;
nodes = (
"86 521 OFFCURVE",
"17 337 OFFCURVE",
"17 193 CURVE SMOOTH",
"17 81 OFFCURVE",
"64 -10 OFFCURVE",
"188 -10 CURVE SMOOTH",
"245 -10 OFFCURVE",
"302 24 OFFCURVE",
"337 68 CURVE",
"353 0 OFFCURVE",
"413 -10 OFFCURVE",
"473 -10 CURVE SMOOTH",
"505 -10 OFFCURVE",
"547 -2 OFFCURVE",
"576 13 CURVE",
"591 123 LINE",
"580 116 OFFCURVE",
"567 110 OFFCURVE",
"554 110 CURVE SMOOTH",
"535 110 OFFCURVE",
"528 122 OFFCURVE",
"528 137 CURVE SMOOTH",
"528 169 OFFCURVE",
"553 344 OFFCURVE",
"581 511 CURVE",
"432 511 LINE",
"398 450 LINE",
"393 450 LINE",
"364 497 OFFCURVE",
"310 521 OFFCURVE",
"257 521 CURVE SMOOTH"
);
},
{
closed = 1;
nodes = (
"337 396 OFFCURVE",
"359 377 OFFCURVE",
"359 338 CURVE SMOOTH",
"359 330 OFFCURVE",
"353 290 OFFCURVE",
"338 181 CURVE SMOOTH",
"332 142 OFFCURVE",
"309 111 OFFCURVE",
"266 111 CURVE SMOOTH",
"235 111 OFFCURVE",
"213 133 OFFCURVE",
"213 168 CURVE SMOOTH",
"213 183 OFFCURVE",
"221 237 OFFCURVE",
"234 326 CURVE SMOOTH",
"240 365 OFFCURVE",
"269 396 OFFCURVE",
"306 396 CURVE SMOOTH"
);
}
);
width = 628;
}
);
leftKerningGroup = o;
note = a;
rightKerningGroup = a;
unicode = 0061;
},
{
glyphname = ae;
layers = (
{
anchors = (
{
name = top;
position = "{486, 511}";
}
);
layerId = "8F3315DA-A8CB-43B6-A496-83A18984EDD5";
paths = (
{
closed = 1;
nodes = (
"653 521 LINE SMOOTH",
"586 521 OFFCURVE",
"528 500 OFFCURVE",
"481 457 CURVE",
"456 498 OFFCURVE",
"402 521 OFFCURVE",
"317 521 CURVE SMOOTH",
"308 521 LINE SMOOTH",
"176 521 OFFCURVE",
"76 454 OFFCURVE",
"76 354 CURVE",
"168 354 LINE",
"180 416 OFFCURVE",
"214 446 OFFCURVE",
"295 446 CURVE SMOOTH",
"385 446 OFFCURVE",
"400 408 OFFCURVE",
"400 374 CURVE SMOOTH",
"400 359 OFFCURVE",
"398 339 OFFCURVE",
"393 307 CURVE",
"186 307 OFFCURVE",
"25 285 OFFCURVE",
"25 117 CURVE SMOOTH",
"25 21 OFFCURVE",
"94 -10 OFFCURVE",
"173 -10 CURVE SMOOTH",
"277 -10 OFFCURVE",
"341 29 OFFCURVE",
"397 101 CURVE",
"428 29 OFFCURVE",
"492 -10 OFFCURVE",
"581 -10 CURVE SMOOTH",
"585 -10 LINE SMOOTH",
"708 -10 OFFCURVE",
"811 67 OFFCURVE",
"827 190 CURVE",
"738 190 LINE",
"732 157 OFFCURVE",
"708 65 OFFCURVE",
"595 65 CURVE SMOOTH",
"504 65 OFFCURVE",
"466 126 OFFCURVE",
"476 234 CURVE",
"833 234 LINE",
"845 297 OFFCURVE",
"846 332 OFFCURVE",
"846 344 CURVE SMOOTH",
"846 455 OFFCURVE",
"773 521 OFFCURVE",
"660 521 CURVE SMOOTH"
);
},
{
closed = 1;
nodes = (
"728 446 OFFCURVE",
"766 387 OFFCURVE",
"751 307 CURVE",
"489 307 LINE",
"512 400 OFFCURVE",
"569 446 OFFCURVE",
"645 446 CURVE SMOOTH"
);
},
{
closed = 1;
nodes = (
"380 214 LINE",
"367 120 OFFCURVE",
"287 65 OFFCURVE",
"216 65 CURVE SMOOTH",
"149 65 OFFCURVE",
"120 79 OFFCURVE",
"120 135 CURVE SMOOTH",
"120 218 OFFCURVE",
"226 234 OFFCURVE",
"382 234 CURVE"
);
}
);
width = 895;
},
{
anchors = (
{
name = top;
position = "{498, 511}";
}
);
layerId = "4BBFD287-7A5F-4332-B846-65FFBCBF0D57";
paths = (
{
closed = 1;
nodes = (
"665 521 LINE SMOOTH",
"593 521 OFFCURVE",
"532 489 OFFCURVE",
"486 430 CURVE",
"473 491 OFFCURVE",
"417 521 OFFCURVE",
"324 521 CURVE SMOOTH",
"320 521 LINE SMOOTH",
"206 521 OFFCURVE",
"105 469 OFFCURVE",
"105 355 CURVE",
"154 355 LINE",
"164 435 OFFCURVE",
"208 475 OFFCURVE",
"314 475 CURVE SMOOTH",
"397 475 OFFCURVE",
"436 453 OFFCURVE",
"436 389 CURVE SMOOTH",
"436 375 OFFCURVE",
"436 375 OFFCURVE",
"425 296 CURVE",
"231 296 OFFCURVE",
"52 285 OFFCURVE",
"52 105 CURVE SMOOTH",
"52 15 OFFCURVE",
"123 -10 OFFCURVE",
"198 -10 CURVE SMOOTH",
"277 -10 OFFCURVE",
"372 23 OFFCURVE",
"423 118 CURVE",
"445 35 OFFCURVE",
"511 -10 OFFCURVE",
"598 -10 CURVE SMOOTH",
"603 -10 LINE SMOOTH",
"709 -10 OFFCURVE",
"805 63 OFFCURVE",
"823 189 CURVE",
"773 189 LINE",
"758 84 OFFCURVE",
"684 36 OFFCURVE",
"605 36 CURVE SMOOTH",
"492 36 OFFCURVE",
"449 133 OFFCURVE",
"469 250 CURVE",
"831 250 LINE",
"840 315 OFFCURVE",
"843 334 OFFCURVE",
"843 351 CURVE SMOOTH",
"843 460 OFFCURVE",
"766 521 OFFCURVE",
"669 521 CURVE SMOOTH"
);
},
{
closed = 1;
nodes = (
"764 475 OFFCURVE",
"802 405 OFFCURVE",
"788 296 CURVE",
"477 296 LINE",
"502 416 OFFCURVE",
"574 475 OFFCURVE",
"660 475 CURVE SMOOTH"
);
},
{
closed = 1;
nodes = (
"413 216 LINE SMOOTH",
"395 92 OFFCURVE",
"300 36 OFFCURVE",
"214 36 CURVE SMOOTH",
"139 36 OFFCURVE",
"103 60 OFFCURVE",
"103 111 CURVE SMOOTH",
"103 248 OFFCURVE",
"254 250 OFFCURVE",
"418 250 CURVE"
);
}
);
width = 902;
},
{
anchors = (
{
name = top;
position = "{504, 511}";
}
);
layerId = "B761BB45-E103-41B9-A767-1F2A3FFB8B31";
paths = (
{
closed = 1;
nodes = (
"663 521 LINE SMOOTH",
"602 521 OFFCURVE",
"544 504 OFFCURVE",
"499 472 CURVE",
"468 503 OFFCURVE",
"416 521 OFFCURVE",
"339 521 CURVE SMOOTH",
"318 521 LINE SMOOTH",
"174 521 OFFCURVE",
"71 449 OFFCURVE",
"71 354 CURVE",
"212 354 LINE",
"218 400 OFFCURVE",
"258 425 OFFCURVE",
"311 425 CURVE SMOOTH",
"374 425 OFFCURVE",
"393 395 OFFCURVE",
"393 362 CURVE SMOOTH",
"393 358 OFFCURVE",
"393 353 OFFCURVE",
"386 311 CURVE",
"172 311 OFFCURVE",
"21 282 OFFCURVE",
"21 109 CURVE SMOOTH",
"21 7 OFFCURVE",
"108 -10 OFFCURVE",
"183 -10 CURVE SMOOTH",
"266 -10 OFFCURVE",
"352 23 OFFCURVE",
"405 79 CURVE",
"442 21 OFFCURVE",
"508 -10 OFFCURVE",
"593 -10 CURVE SMOOTH",
"603 -10 LINE SMOOTH",
"744 -10 OFFCURVE",
"846 73 OFFCURVE",
"862 191 CURVE",
"726 191 LINE",
"721 150 OFFCURVE",
"693 88 OFFCURVE",
"613 88 CURVE SMOOTH",
"533 88 OFFCURVE",
"512 142 OFFCURVE",
"524 231 CURVE",
"869 231 LINE",
"878 296 OFFCURVE",
"881 319 OFFCURVE",
"881 337 CURVE SMOOTH",
"881 448 OFFCURVE",
"806 521 OFFCURVE",
"679 521 CURVE SMOOTH"
);
},
{
closed = 1;
nodes = (
"715 423 OFFCURVE",
"747 382 OFFCURVE",
"736 311 CURVE",
"536 311 LINE",
"551 378 OFFCURVE",
"592 423 OFFCURVE",
"655 423 CURVE SMOOTH"
);
},
{
closed = 1;
nodes = (
"370 197 LINE SMOOTH",
"359 129 OFFCURVE",
"304 88 OFFCURVE",
"249 88 CURVE SMOOTH",
"205 88 OFFCURVE",
"175 99 OFFCURVE",
"175 137 CURVE SMOOTH",
"175 205 OFFCURVE",
"243 229 OFFCURVE",
"375 229 CURVE"
);
}
);
width = 918;
},
{
anchors = (
{
name = top;
position = "{503, 511}";
}
);
layerId = "4FDE33F5-0064-4818-A7C2-FB87252213B5";
paths = (
{
closed = 1;
nodes = (
"656 521 LINE SMOOTH",
"599 521 OFFCURVE",
"547 510 OFFCURVE",
"500 487 CURVE",
"464 508 OFFCURVE",
"413 521 OFFCURVE",
"344 521 CURVE SMOOTH",
"311 521 LINE SMOOTH",
"156 521 OFFCURVE",
"48 445 OFFCURVE",
"48 354 CURVE",
"238 354 LINE",
"242 384 OFFCURVE",
"276 405 OFFCURVE",
"310 405 CURVE SMOOTH",
"342 405 OFFCURVE",
"367 388 OFFCURVE",
"367 356 CURVE SMOOTH",
"367 354 OFFCURVE",
"365 339 OFFCURVE",
"362 316 CURVE",
"146 316 OFFCURVE",
"1 281 OFFCURVE",
"1 114 CURVE SMOOTH",
"1 5 OFFCURVE",
"99 -10 OFFCURVE",
"175 -10 CURVE SMOOTH",
"263 -10 OFFCURVE",
"344 18 OFFCURVE",
"395 58 CURVE",
"439 14 OFFCURVE",
"507 -10 OFFCURVE",
"588 -10 CURVE SMOOTH",
"603 -10 LINE SMOOTH",
"760 -10 OFFCURVE",
"865 79 OFFCURVE",
"881 192 CURVE",
"698 192 LINE",
"691 143 OFFCURVE",
"662 111 OFFCURVE",
"614 111 CURVE SMOOTH",
"542 111 OFFCURVE",
"542 149 OFFCURVE",
"554 229 CURVE",
"887 229 LINE",
"893 263 OFFCURVE",
"898 293 OFFCURVE",
"898 330 CURVE SMOOTH",
"898 443 OFFCURVE",
"824 521 OFFCURVE",
"681 521 CURVE SMOOTH"
);
},
{
closed = 1;
nodes = (
"698 400 OFFCURVE",
"704 368 OFFCURVE",
"704 316 CURVE",
"566 316 LINE",
"573 373 OFFCURVE",
"603 400 OFFCURVE",
"647 400 CURVE SMOOTH"
);
},
{
closed = 1;
nodes = (
"343 181 LINE SMOOTH",
"337 138 OFFCURVE",
"300 111 OFFCURVE",
"265 111 CURVE SMOOTH",
"238 111 OFFCURVE",
"211 118 OFFCURVE",
"211 149 CURVE SMOOTH",
"211 192 OFFCURVE",
"249 225 OFFCURVE",
"349 225 CURVE"
);
}
);
width = 924;
}
);
leftKerningGroup = ae;
note = ae;
rightKerningGroup = e;
unicode = 00E6;
},
{
glyphname = b;
layers = (
{
layerId = "8F3315DA-A8CB-43B6-A496-83A18984EDD5";
paths = (
{
closed = 1;
nodes = (
"291 521 OFFCURVE",
"233 487 OFFCURVE",
"198 446 CURVE",
"237 720 LINE",
"143 720 LINE",
"42 0 LINE",
"78 0 LINE",
"122 81 LINE",
"152 20 OFFCURVE",
"205 -10 OFFCURVE",
"281 -10 CURVE SMOOTH",
"466 -10 OFFCURVE",
"531 184 OFFCURVE",
"531 325 CURVE SMOOTH",
"531 454 OFFCURVE",
"460 521 OFFCURVE",
"363 521 CURVE SMOOTH"
);
},
{
closed = 1;
nodes = (
"407 446 OFFCURVE",
"436 397 OFFCURVE",
"436 313 CURVE SMOOTH",
"436 291 OFFCURVE",
"434 268 OFFCURVE",
"431 242 CURVE SMOOTH",
"419 150 OFFCURVE",
"375 65 OFFCURVE",
"274 65 CURVE SMOOTH",
"191 65 OFFCURVE",
"165 116 OFFCURVE",
"165 196 CURVE SMOOTH",
"165 224 OFFCURVE",
"168 256 OFFCURVE",
"174 289 CURVE SMOOTH",
"190 379 OFFCURVE",
"242 446 OFFCURVE",
"327 446 CURVE SMOOTH"
);
}
);
width = 582;
},
{
layerId = "4BBFD287-7A5F-4332-B846-65FFBCBF0D57";
paths = (
{
closed = 1;
nodes = (
"272 521 OFFCURVE",
"209 490 OFFCURVE",
"169 440 CURVE",
"209 720 LINE",
"158 720 LINE",
"57 0 LINE",
"78 0 LINE",
"109 85 LINE",
"138 21 OFFCURVE",
"191 -10 OFFCURVE",
"269 -10 CURVE SMOOTH",
"452 -10 OFFCURVE",
"516 190 OFFCURVE",
"516 324 CURVE SMOOTH",
"516 452 OFFCURVE",
"443 521 OFFCURVE",
"344 521 CURVE SMOOTH"
);
},
{
closed = 1;
nodes = (
"426 475 OFFCURVE",
"464 408 OFFCURVE",
"464 316 CURVE SMOOTH",
"464 290 OFFCURVE",
"461 263 OFFCURVE",
"456 234 CURVE SMOOTH",
"439 133 OFFCURVE",
"380 36 OFFCURVE",
"268 36 CURVE SMOOTH",
"173 36 OFFCURVE",
"138 105 OFFCURVE",
"138 195 CURVE SMOOTH",
"138 227 OFFCURVE",
"142 262 OFFCURVE",
"150 297 CURVE SMOOTH",
"172 396 OFFCURVE",
"227 475 OFFCURVE",
"332 475 CURVE SMOOTH"
);
}
);
width = 581;
},
{
layerId = "B761BB45-E103-41B9-A767-1F2A3FFB8B31";
paths = (
{
closed = 1;
nodes = (
"308 521 OFFCURVE",
"255 485 OFFCURVE",
"225 452 CURVE",
"263 720 LINE",
"117 720 LINE",
"16 0 LINE",
"69 0 LINE",
"131 78 LINE",
"161 21 OFFCURVE",
"214 -10 OFFCURVE",
"288 -10 CURVE SMOOTH",
"468 -10 OFFCURVE",
"543 167 OFFCURVE",
"543 324 CURVE SMOOTH",
"543 455 OFFCURVE",
"473 521 OFFCURVE",
"378 521 CURVE SMOOTH"
);
},
{
closed = 1;
nodes = (
"363 415 OFFCURVE",
"397 387 OFFCURVE",
"397 326 CURVE SMOOTH",
"397 309 OFFCURVE",
"392 275 OFFCURVE",
"383 211 CURVE SMOOTH",
"372 130 OFFCURVE",
"324 90 OFFCURVE",
"270 90 CURVE SMOOTH",
"222 90 OFFCURVE",
"189 116 OFFCURVE",
"189 178 CURVE SMOOTH",
"189 195 OFFCURVE",
"194 230 OFFCURVE",
"203 294 CURVE SMOOTH",
"214 375 OFFCURVE",
"261 415 OFFCURVE",
"316 415 CURVE SMOOTH"
);
}
);
width = 595;
},
{
layerId = "4FDE33F5-0064-4818-A7C2-FB87252213B5";
paths = (
{
closed = 1;
nodes = (
"341 521 OFFCURVE",
"294 482 OFFCURVE",
"270 458 CURVE",
"307 720 LINE",
"109 720 LINE",
"9 0 LINE",
"78 0 LINE",
"156 75 LINE",
"187 20 OFFCURVE",
"240 -10 OFFCURVE",
"312 -10 CURVE SMOOTH",
"495 -10 OFFCURVE",
"572 162 OFFCURVE",
"572 326 CURVE SMOOTH",
"572 457 OFFCURVE",
"504 521 OFFCURVE",
"411 521 CURVE SMOOTH"
);
},
{
closed = 1;
nodes = (
"354 396 OFFCURVE",
"376 379 OFFCURVE",
"376 341 CURVE SMOOTH",
"376 326 OFFCURVE",
"368 272 OFFCURVE",
"355 181 CURVE SMOOTH",
"349 142 OFFCURVE",
"326 111 OFFCURVE",
"283 111 CURVE SMOOTH",
"252 111 OFFCURVE",
"230 129 OFFCURVE",
"230 164 CURVE SMOOTH",
"230 182 OFFCURVE",
"236 221 OFFCURVE",
"251 326 CURVE SMOOTH",
"257 365 OFFCURVE",
"286 396 OFFCURVE",
"323 396 CURVE SMOOTH"
);
}
);
width = 599;
}
);
leftKerningGroup = h;
note = b;
rightKerningGroup = o;
unicode = 0062;
},
{
glyphname = c;
layers = (
{
anchors = (
{
name = bottom;
position = "{239, 0}";
},
{
name = top;
position = "{314, 511}";
}
);
background = {
paths = (
{
closed = 1;
nodes = (
"309 521 LINE SMOOTH",
"124 521 OFFCURVE",
"42 366 OFFCURVE",
"42 191 CURVE SMOOTH",
"42 63 OFFCURVE",
"120 -10 OFFCURVE",
"235 -10 CURVE SMOOTH",
"243 -10 LINE SMOOTH",
"376 -10 OFFCURVE",
"465 64 OFFCURVE",
"484 200 CURVE",
"394 200 LINE",
"383 121 OFFCURVE",
"337 65 OFFCURVE",
"252 65 CURVE SMOOTH",
"180 65 OFFCURVE",
"135 104 OFFCURVE",
"135 192 CURVE SMOOTH",
"135 216 OFFCURVE",
"137 242 OFFCURVE",
"140 267 CURVE SMOOTH",
"154 359 OFFCURVE",
"197 446 OFFCURVE",
"301 446 CURVE SMOOTH",
"374 446 OFFCURVE",
"408 400 OFFCURVE",
"408 337 CURVE SMOOTH",
"408 328 OFFCURVE",
"407 319 OFFCURVE",
"406 310 CURVE",
"499 310 LINE",
"501 323 OFFCURVE",
"502 335 OFFCURVE",
"502 346 CURVE SMOOTH",
"502 454 OFFCURVE",
"429 521 OFFCURVE",
"317 521 CURVE SMOOTH"
);
}
);
};
layerId = "8F3315DA-A8CB-43B6-A496-83A18984EDD5";
paths = (
{
closed = 1;
nodes = (
"309 521 LINE SMOOTH",
"124 521 OFFCURVE",
"42 366 OFFCURVE",
"42 191 CURVE SMOOTH",
"42 63 OFFCURVE",
"120 -10 OFFCURVE",
"235 -10 CURVE SMOOTH",
"243 -10 LINE SMOOTH",
"376 -10 OFFCURVE",
"465 64 OFFCURVE",
"484 200 CURVE",
"394 200 LINE",
"383 121 OFFCURVE",
"337 65 OFFCURVE",
"252 65 CURVE SMOOTH",
"164 65 OFFCURVE",
"135 119 OFFCURVE",
"135 200 CURVE SMOOTH",
"135 221 OFFCURVE",
"137 243 OFFCURVE",
"140 267 CURVE SMOOTH",
"153 359 OFFCURVE",
"197 446 OFFCURVE",
"301 446 CURVE SMOOTH",
"374 446 OFFCURVE",
"408 400 OFFCURVE",
"408 337 CURVE SMOOTH",
"408 328 OFFCURVE",
"407 319 OFFCURVE",
"406 310 CURVE",
"499 310 LINE",
"501 323 OFFCURVE",
"502 335 OFFCURVE",
"502 346 CURVE SMOOTH",
"502 454 OFFCURVE",
"429 521 OFFCURVE",
"317 521 CURVE SMOOTH"
);
}
);
width = 546;
},
{
anchors = (
{
name = bottom;
position = "{247, 0}";
},
{
name = top;
position = "{322, 511}";
}
);
background = {
paths = (
{
closed = 1;
nodes = (
"322 521 LINE SMOOTH",
"147 521 OFFCURVE",
"67 350 OFFCURVE",
"67 191 CURVE SMOOTH",
"67 62 OFFCURVE",
"139 -10 OFFCURVE",
"248 -10 CURVE SMOOTH",
"250 -10 LINE SMOOTH",
"361 -10 OFFCURVE",
"459 65 OFFCURVE",
"477 197 CURVE",
"427 197 LINE",
"412 86 OFFCURVE",
"337 36 OFFCURVE",
"256 36 CURVE SMOOTH",
"176 36 OFFCURVE",
"118 87 OFFCURVE",
"118 192 CURVE SMOOTH",
"118 217 OFFCURVE",
"120 244 OFFCURVE",
"124 269 CURVE SMOOTH",
"142 376 OFFCURVE",
"199 475 OFFCURVE",
"316 475 CURVE SMOOTH",
"389 475 OFFCURVE",
"446 433 OFFCURVE",
"446 346 CURVE SMOOTH",
"446 336 OFFCURVE",
"445 325 OFFCURVE",
"444 314 CURVE",
"494 314 LINE",
"496 327 OFFCURVE",
"496 339 OFFCURVE",
"496 351 CURVE SMOOTH",
"496 460 OFFCURVE",
"424 521 OFFCURVE",
"325 521 CURVE SMOOTH"
);
}
);
};
layerId = "4BBFD287-7A5F-4332-B846-65FFBCBF0D57";
paths = (
{
closed = 1;
nodes = (
"322 521 LINE SMOOTH",
"147 521 OFFCURVE",
"67 350 OFFCURVE",
"67 191 CURVE SMOOTH",
"67 62 OFFCURVE",
"139 -10 OFFCURVE",
"248 -10 CURVE SMOOTH",
"250 -10 LINE SMOOTH",
"361 -10 OFFCURVE",
"459 65 OFFCURVE",
"477 197 CURVE",
"427 197 LINE",
"412 86 OFFCURVE",
"337 36 OFFCURVE",
"256 36 CURVE SMOOTH",
"160 36 OFFCURVE",
"118 103 OFFCURVE",
"118 200 CURVE SMOOTH",
"118 221 OFFCURVE",
"120 245 OFFCURVE",
"124 269 CURVE SMOOTH",
"142 376 OFFCURVE",
"199 475 OFFCURVE",
"316 475 CURVE SMOOTH",
"389 475 OFFCURVE",
"446 433 OFFCURVE",
"446 346 CURVE SMOOTH",
"446 336 OFFCURVE",
"445 325 OFFCURVE",
"444 314 CURVE",
"494 314 LINE",
"496 327 OFFCURVE",
"496 339 OFFCURVE",
"496 351 CURVE SMOOTH",
"496 460 OFFCURVE",
"424 521 OFFCURVE",
"325 521 CURVE SMOOTH"
);
}
);
width = 546;
},
{
anchors = (
{
name = bottom;
position = "{248, 0}";
},
{
name = top;
position = "{323, 511}";
}
);
layerId = "B761BB45-E103-41B9-A767-1F2A3FFB8B31";
paths = (
{
closed = 1;
nodes = (
"324 521 LINE SMOOTH",
"123 521 OFFCURVE",
"36 355 OFFCURVE",
"36 192 CURVE SMOOTH",
"36 63 OFFCURVE",
"117 -10 OFFCURVE",
"249 -10 CURVE SMOOTH",
"265 -10 LINE SMOOTH",
"380 -10 OFFCURVE",
"495 55 OFFCURVE",
"516 203 CURVE",
"378 203 LINE",
"367 127 OFFCURVE",
"323 90 OFFCURVE",
"263 90 CURVE SMOOTH",
"210 90 OFFCURVE",
"182 129 OFFCURVE",
"182 173 CURVE SMOOTH",
"182 200 OFFCURVE",
"190 249 OFFCURVE",
"196 296 CURVE SMOOTH",
"205 364 OFFCURVE",
"249 421 OFFCURVE",
"311 421 CURVE SMOOTH",
"364 421 OFFCURVE",
"388 386 OFFCURVE",
"388 334 CURVE SMOOTH",
"388 325 OFFCURVE",
"387 316 OFFCURVE",
"386 307 CURVE",
"531 307 LINE",
"533 319 OFFCURVE",
"533 330 OFFCURVE",
"533 341 CURVE SMOOTH",
"533 457 OFFCURVE",
"446 521 OFFCURVE",
"340 521 CURVE SMOOTH"
);
}
);
width = 567;
},
{
anchors = (
{
name = bottom;
position = "{252, 0}";
},
{
name = top;
position = "{327, 511}";
}
);
layerId = "4FDE33F5-0064-4818-A7C2-FB87252213B5";
paths = (
{
closed = 1;
nodes = (
"313 521 LINE SMOOTH",
"146 521 OFFCURVE",
"16 397 OFFCURVE",
"16 206 CURVE SMOOTH",
"16 81 OFFCURVE",
"112 -10 OFFCURVE",
"246 -10 CURVE SMOOTH",
"269 -10 LINE SMOOTH",
"407 -10 OFFCURVE",
"512 68 OFFCURVE",
"533 207 CURVE",
"375 207 LINE",
"368 133 OFFCURVE",
"333 111 OFFCURVE",
"288 111 CURVE SMOOTH",
"245 111 OFFCURVE",
"221 136 OFFCURVE",
"221 169 CURVE SMOOTH",
"221 194 OFFCURVE",
"229 255 OFFCURVE",
"243 332 CURVE SMOOTH",
"250 371 OFFCURVE",
"276 400 OFFCURVE",
"322 400 CURVE SMOOTH",
"355 400 OFFCURVE",
"381 378 OFFCURVE",
"381 334 CURVE SMOOTH",
"381 325 OFFCURVE",
"380 315 OFFCURVE",
"378 304 CURVE",
"547 304 LINE",
"549 316 OFFCURVE",
"549 327 OFFCURVE",
"549 338 CURVE SMOOTH",
"550 445 OFFCURVE",
"474 521 OFFCURVE",
"336 521 CURVE SMOOTH"
);
}
);
width = 568;
}
);
leftKerningGroup = o;
note = c;
rightKerningGroup = c;
unicode = 0063;
},
{
glyphname = d;
layers = (
{
anchors = (
{
name = center;
position = "{462, 617}";
},
{
name = topright;
position = "{375, 399}";
}
);
layerId = "8F3315DA-A8CB-43B6-A496-83A18984EDD5";
paths = (
{
closed = 1;
nodes = (
"153 521 OFFCURVE",
"42 405 OFFCURVE",
"42 190 CURVE SMOOTH",
"42 52 OFFCURVE",
"116 -10 OFFCURVE",
"216 -10 CURVE SMOOTH",
"285 -10 OFFCURVE",
"338 18 OFFCURVE",
"381 65 CURVE",
"381 24 OFFCURVE",
"398 -10 OFFCURVE",
"457 -10 CURVE SMOOTH",
"493 -10 OFFCURVE",
"521 2 OFFCURVE",
"534 10 CURVE",
"543 79 LINE",
"532 72 OFFCURVE",
"511 65 OFFCURVE",
"496 65 CURVE SMOOTH",
"483 65 OFFCURVE",
"472 73 OFFCURVE",
"472 92 CURVE SMOOTH",
"472 121 OFFCURVE",
"517 424 OFFCURVE",
"560 720 CURVE",
"466 720 LINE",
"427 446 LINE",
"403 490 OFFCURVE",
"353 521 OFFCURVE",
"284 521 CURVE SMOOTH"
);
},
{
closed = 1;
nodes = (
"380 446 OFFCURVE",
"406 393 OFFCURVE",
"406 315 CURVE SMOOTH",
"406 287 OFFCURVE",
"403 255 OFFCURVE",
"397 222 CURVE SMOOTH",
"381 132 OFFCURVE",
"329 65 OFFCURVE",
"244 65 CURVE SMOOTH",
"163 65 OFFCURVE",
"135 114 OFFCURVE",
"135 193 CURVE SMOOTH",
"135 216 OFFCURVE",
"137 242 OFFCURVE",
"141 269 CURVE SMOOTH",
"154 356 OFFCURVE",
"196 446 OFFCURVE",
"297 446 CURVE SMOOTH"
);
}
);
width = 612;
},
{
anchors = (
{
name = center;
position = "{471, 617}";
},
{
name = topright;
position = "{410, 471}";
}
);
layerId = "4BBFD287-7A5F-4332-B846-65FFBCBF0D57";
paths = (
{
closed = 1;
nodes = (
"136 521 OFFCURVE",
"66 344 OFFCURVE",
"66 190 CURVE SMOOTH",
"66 50 OFFCURVE",
"139 -10 OFFCURVE",
"236 -10 CURVE SMOOTH",
"308 -10 OFFCURVE",
"366 15 OFFCURVE",
"411 69 CURVE",
"403 30 OFFCURVE",
"422 -10 OFFCURVE",
"468 -10 CURVE SMOOTH",
"491 -10 OFFCURVE",
"512 -3 OFFCURVE",
"531 9 CURVE",
"537 52 LINE",
"520 43 OFFCURVE",
"499 36 OFFCURVE",
"484 36 CURVE SMOOTH",
"471 36 OFFCURVE",
"461 43 OFFCURVE",
"461 61 CURVE SMOOTH",
"461 73 OFFCURVE",
"553 720 OFFCURVE",
"553 720 CURVE SMOOTH",
"502 720 LINE",
"462 440 LINE",
"436 490 OFFCURVE",
"383 521 OFFCURVE",
"311 521 CURVE SMOOTH"
);
},
{
closed = 1;
nodes = (
"401 475 OFFCURVE",
"442 412 OFFCURVE",
"442 315 CURVE SMOOTH",
"442 283 OFFCURVE",
"438 248 OFFCURVE",
"429 210 CURVE SMOOTH",
"406 113 OFFCURVE",
"354 36 OFFCURVE",
"248 36 CURVE SMOOTH",
"151 36 OFFCURVE",
"117 104 OFFCURVE",
"117 197 CURVE SMOOTH",
"117 222 OFFCURVE",
"120 249 OFFCURVE",
"124 277 CURVE SMOOTH",
"138 378 OFFCURVE",
"197 475 OFFCURVE",
"309 475 CURVE SMOOTH"
);
}
);
width = 611;
},
{
anchors = (
{
name = center;
position = "{448, 617}";
},
{
name = topright;
position = "{381, 333}";
}
);
layerId = "B761BB45-E103-41B9-A767-1F2A3FFB8B31";
paths = (
{
closed = 1;
nodes = (
"86 521 OFFCURVE",
"23 326 OFFCURVE",
"23 192 CURVE SMOOTH",
"23 54 OFFCURVE",
"100 -10 OFFCURVE",
"203 -10 CURVE SMOOTH",
"267 -10 OFFCURVE",
"315 19 OFFCURVE",
"353 59 CURVE",
"360 14 OFFCURVE",
"393 -10 OFFCURVE",
"458 -10 CURVE SMOOTH",
"492 -10 OFFCURVE",
"527 0 OFFCURVE",
"548 11 CURVE",
"562 104 LINE",
"552 97 OFFCURVE",
"534 90 OFFCURVE",
"520 90 CURVE SMOOTH",
"504 90 OFFCURVE",
"495 100 OFFCURVE",
"495 117 CURVE SMOOTH",
"495 127 OFFCURVE",
"580 720 OFFCURVE",
"580 720 CURVE SMOOTH",
"434 720 LINE",
"396 452 LINE",
"376 485 OFFCURVE",
"333 521 OFFCURVE",
"263 521 CURVE SMOOTH"
);
},
{
closed = 1;
nodes = (
"342 415 OFFCURVE",
"376 384 OFFCURVE",
"376 322 CURVE SMOOTH",
"376 313 OFFCURVE",
"375 304 OFFCURVE",
"362 211 CURVE SMOOTH",
"350 130 OFFCURVE",
"303 90 OFFCURVE",
"249 90 CURVE SMOOTH",
"201 90 OFFCURVE",
"168 121 OFFCURVE",
"168 183 CURVE SMOOTH",
"168 192 OFFCURVE",
"169 201 OFFCURVE",
"182 294 CURVE SMOOTH",
"194 375 OFFCURVE",
"240 415 OFFCURVE",
"295 415 CURVE SMOOTH"
);
}
);
width = 595;
},
{
anchors = (
{
name = center;
position = "{450, 617}";
},
{
name = topright;
position = "{353, 288}";
}
);
layerId = "4FDE33F5-0064-4818-A7C2-FB87252213B5";
paths = (
{
closed = 1;
nodes = (
"137 521 OFFCURVE",
"18 413 OFFCURVE",
"18 193 CURVE SMOOTH",
"18 56 OFFCURVE",
"89 -10 OFFCURVE",
"197 -10 CURVE SMOOTH",
"271 -10 OFFCURVE",
"310 24 OFFCURVE",
"342 59 CURVE",
"360 -1 OFFCURVE",
"418 -10 OFFCURVE",
"475 -10 CURVE SMOOTH",
"507 -10 OFFCURVE",
"549 -2 OFFCURVE",
"578 13 CURVE",
"593 123 LINE",
"582 116 OFFCURVE",
"569 110 OFFCURVE",
"556 110 CURVE SMOOTH",
"533 110 OFFCURVE",
"531 127 OFFCURVE",
"531 146 CURVE",
"530 155 OFFCURVE",
"535 190 OFFCURVE",
"611 720 CURVE",
"413 720 LINE",
"376 458 LINE",
"360 493 OFFCURVE",
"324 521 OFFCURVE",
"253 521 CURVE SMOOTH"
);
},
{
closed = 1;
nodes = (
"336 396 OFFCURVE",
"358 377 OFFCURVE",
"358 338 CURVE SMOOTH",
"358 330 OFFCURVE",
"352 290 OFFCURVE",
"337 181 CURVE SMOOTH",
"331 142 OFFCURVE",
"308 111 OFFCURVE",
"265 111 CURVE SMOOTH",
"234 111 OFFCURVE",
"212 135 OFFCURVE",
"212 170 CURVE SMOOTH",
"212 174 OFFCURVE",
"212 178 OFFCURVE",
"233 326 CURVE SMOOTH",
"238 365 OFFCURVE",
"268 396 OFFCURVE",
"305 396 CURVE SMOOTH"
);
}
);
width = 639;
}
);
leftKerningGroup = o;
note = d;
rightKerningGroup = a;
unicode = 0064;
},
{
glyphname = eth;
layers = (
{
layerId = "8F3315DA-A8CB-43B6-A496-83A18984EDD5";
paths = (
{
closed = 1;
nodes = (
"171 700 LINE",
"190 685 OFFCURVE",
"224 666 OFFCURVE",
"251 639 CURVE",
"151 595 LINE",
"182 562 LINE",
"280 605 LINE",
"306 576 OFFCURVE",
"330 547 OFFCURVE",
"350 518 CURVE",
"336 521 OFFCURVE",
"320 522 OFFCURVE",
"306 522 CURVE SMOOTH",
"143 522 OFFCURVE",
"41 372 OFFCURVE",
"41 189 CURVE SMOOTH",
"41 65 OFFCURVE",
"115 -10 OFFCURVE",
"242 -10 CURVE SMOOTH",
"252 -10 LINE SMOOTH",
"434 -10 OFFCURVE",
"522 133 OFFCURVE",
"522 320 CURVE SMOOTH",
"522 436 OFFCURVE",
"462 544 OFFCURVE",
"356 643 CURVE",
"448 683 LINE",
"421 717 LINE",
"321 673 LINE",
"291 695 OFFCURVE",
"262 714 OFFCURVE",
"234 729 CURVE"
);
},
{
closed = 1;
nodes = (
"385 446 OFFCURVE",
"428 398 OFFCURVE",
"428 313 CURVE SMOOTH",
"428 253 OFFCURVE",
"416 194 OFFCURVE",
"390 148 CURVE SMOOTH",
"362 98 OFFCURVE",
"317 65 OFFCURVE",
"255 65 CURVE SMOOTH",
"178 65 OFFCURVE",
"135 113 OFFCURVE",
"135 198 CURVE SMOOTH",
"135 238 OFFCURVE",
"141 278 OFFCURVE",
"152 313 CURVE SMOOTH",
"176 389 OFFCURVE",
"226.998 446 OFFCURVE",
"308 446 CURVE SMOOTH"
);
}
);
width = 576;
},
{
layerId = "4BBFD287-7A5F-4332-B846-65FFBCBF0D57";
paths = (
{
closed = 1;
nodes = (
"193 707 LINE",
"215 691 OFFCURVE",
"245 669 OFFCURVE",
"276 642 CURVE",
"168 593 LINE",
"191 570 LINE",
"300 620 LINE",
"334 587 OFFCURVE",
"369 549 OFFCURVE",
"397 508 CURVE",
"371 518 OFFCURVE",
"344 522 OFFCURVE",
"318 522 CURVE SMOOTH",
"152 522 OFFCURVE",
"66 360 OFFCURVE",
"66 193 CURVE SMOOTH",
"66 63 OFFCURVE",
"137 -10 OFFCURVE",
"247 -10 CURVE SMOOTH",
"252 -10 LINE SMOOTH",
"409 -10 OFFCURVE",
"507 137 OFFCURVE",
"507 315 CURVE SMOOTH",
"507 450 OFFCURVE",
"436 560 OFFCURVE",
"344 640 CURVE",
"450 688 LINE",
"430 711 LINE",
"319 661 LINE",
"290 684 OFFCURVE",
"260 705 OFFCURVE",
"233 724 CURVE"
);
},
{
closed = 1;
nodes = (
"398 475 OFFCURVE",
"458 424 OFFCURVE",
"458 319 CURVE SMOOTH",
"458 257 OFFCURVE",
"445 194 OFFCURVE",
"419 143 CURVE SMOOTH",
"386 80 OFFCURVE",
"332 36 OFFCURVE",
"256 36 CURVE SMOOTH",
"176 36 OFFCURVE",
"116 87 OFFCURVE",
"116 192 CURVE SMOOTH",
"116 239 OFFCURVE",
"122 285 OFFCURVE",
"136 326 CURVE SMOOTH",
"163 411 OFFCURVE",
"222 475 OFFCURVE",
"318 475 CURVE SMOOTH"
);
}
);
width = 573;
},
{
layerId = "B761BB45-E103-41B9-A767-1F2A3FFB8B31";
paths = (
{
closed = 1;
nodes = (
"156 692 LINE",
"181 680 OFFCURVE",
"210 660 OFFCURVE",
"234 637 CURVE",
"144 597 LINE",
"185 555 LINE",
"282 595 LINE",
"307 568 OFFCURVE",
"334 532 OFFCURVE",
"345 510 CURVE",
"333 516 OFFCURVE",
"318 517 OFFCURVE",
"305 517 CURVE SMOOTH",
"130 517 OFFCURVE",
"25 377 OFFCURVE",
"25 197 CURVE SMOOTH",
"25 65 OFFCURVE",
"116 -10 OFFCURVE",
"243 -10 CURVE SMOOTH",
"259 -10 LINE SMOOTH",
"438 -10 OFFCURVE",
"551 124 OFFCURVE",
"551 317 CURVE SMOOTH",
"551 445 OFFCURVE",
"478 562 OFFCURVE",
"384 646 CURVE",
"462 680 LINE",
"425 722 LINE",
"336 684 LINE",
"308 703 OFFCURVE",
"278 720 OFFCURVE",
"249 734 CURVE"
);
},
{
closed = 1;
nodes = (
"366 421 OFFCURVE",
"406 389 OFFCURVE",
"406 323 CURVE SMOOTH",
"406 310 OFFCURVE",
"406 311 OFFCURVE",
"392 215 CURVE SMOOTH",
"381 131 OFFCURVE",
"327 90 OFFCURVE",
"265 90 CURVE SMOOTH",
"210 90 OFFCURVE",
"170 123 OFFCURVE",
"170 189 CURVE SMOOTH",
"170 200 OFFCURVE",
"177 246 OFFCURVE",
"184 296 CURVE SMOOTH",
"196 380 OFFCURVE",
"242 421 OFFCURVE",
"311 421 CURVE SMOOTH"
);
}
);
width = 614;
},
{
layerId = "4FDE33F5-0064-4818-A7C2-FB87252213B5";
paths = (
{
closed = 1;
nodes = (
"149 688 LINE",
"176 675 OFFCURVE",
"204 656 OFFCURVE",
"224 635 CURVE",
"144 600 LINE",
"196 549 LINE",
"266 580 LINE",
"290 561 OFFCURVE",
"323 521 OFFCURVE",
"332 503 CURVE",
"319 509 OFFCURVE",
"298 512 OFFCURVE",
"274 512 CURVE SMOOTH",
"118 512 OFFCURVE",
"16 356 OFFCURVE",
"16 205 CURVE SMOOTH",
"16 77 OFFCURVE",
"110 -10 OFFCURVE",
"248 -10 CURVE SMOOTH",
"280 -10 LINE SMOOTH",
"458 -10 OFFCURVE",
"587 123 OFFCURVE",
"587 312 CURVE SMOOTH",
"587 437 OFFCURVE",
"518 563 OFFCURVE",
"420 649 CURVE",
"483 677 LINE",
"435 728 LINE",
"359 695 LINE",
"331 713 OFFCURVE",
"302 728 OFFCURVE",
"272 739 CURVE"
);
},
{
closed = 1;
nodes = (
"354 400 OFFCURVE",
"382 375 OFFCURVE",
"382 341 CURVE SMOOTH",
"382 321 OFFCURVE",
"376 281 OFFCURVE",
"360 181 CURVE SMOOTH",
"354 142 OFFCURVE",
"319 111 OFFCURVE",
"280 111 CURVE SMOOTH",
"241 111 OFFCURVE",
"222 137 OFFCURVE",
"222 176 CURVE SMOOTH",
"222 206 OFFCURVE",
"234 280 OFFCURVE",
"243 330 CURVE SMOOTH",
"250 369 OFFCURVE",
"276 400 OFFCURVE",
"319 400 CURVE SMOOTH"
);
}
);
width = 613;
}
);
leftKerningGroup = eth;
note = eth;
rightKerningGroup = eth;
unicode = 00F0;
},
{
glyphname = dcaron;
layers = (
{
background = {
paths = (
{
closed = 1;
nodes = (
"466 720 LINE",
"427 446 LINE",
"403 490 OFFCURVE",
"353 521 OFFCURVE",
"284 521 CURVE SMOOTH",
"153 521 OFFCURVE",
"42 405 OFFCURVE",
"42 190 CURVE SMOOTH",
"42 52 OFFCURVE",
"116 -10 OFFCURVE",
"216 -10 CURVE SMOOTH",
"285 -10 OFFCURVE",
"338 18 OFFCURVE",
"381 65 CURVE",
"381 24 OFFCURVE",
"398 -10 OFFCURVE",
"457 -10 CURVE SMOOTH",
"493 -10 OFFCURVE",
"521 2 OFFCURVE",
"534 10 CURVE",
"543 79 LINE",
"532 72 OFFCURVE",
"511 65 OFFCURVE",
"496 65 CURVE SMOOTH",
"483 65 OFFCURVE",
"472 73 OFFCURVE",
"472 92 CURVE SMOOTH",
"472 121 OFFCURVE",
"517 424 OFFCURVE",
"560 720 CURVE"
);
},
{
closed = 1;
nodes = (
"707 686 LINE",
"606 686 LINE",
"590 575 LINE",
"631 575 LINE",
"587 451 LINE",
"639 451 LINE",
"695 601 LINE"
);
},
{
closed = 1;
nodes = (
"362 446 OFFCURVE",
"406 414 OFFCURVE",
"406 318 CURVE SMOOTH",
"406 179 OFFCURVE",
"356 65 OFFCURVE",
"244 65 CURVE SMOOTH",
"177 65 OFFCURVE",
"135 97 OFFCURVE",
"135 193 CURVE SMOOTH",
"135 295 OFFCURVE",
"166 446 OFFCURVE",
"297 446 CURVE SMOOTH"
);
}
);
};
layerId = "8F3315DA-A8CB-43B6-A496-83A18984EDD5";
paths = (
{
closed = 1;
nodes = (
"153 521 OFFCURVE",
"42 405 OFFCURVE",
"42 190 CURVE SMOOTH",
"42 52 OFFCURVE",
"116 -10 OFFCURVE",
"216 -10 CURVE SMOOTH",
"285 -10 OFFCURVE",
"338 18 OFFCURVE",
"381 65 CURVE",
"381 24 OFFCURVE",
"398 -10 OFFCURVE",
"457 -10 CURVE SMOOTH",
"493 -10 OFFCURVE",
"521 2 OFFCURVE",
"534 10 CURVE",
"543 79 LINE",
"532 72 OFFCURVE",
"511 65 OFFCURVE",
"496 65 CURVE SMOOTH",
"483 65 OFFCURVE",
"472 73 OFFCURVE",
"472 92 CURVE SMOOTH",
"472 121 OFFCURVE",
"517 424 OFFCURVE",
"560 720 CURVE",
"466 720 LINE",
"427 446 LINE",
"403 490 OFFCURVE",
"353 521 OFFCURVE",
"284 521 CURVE SMOOTH"
);
},
{
closed = 1;
nodes = (
"380 446 OFFCURVE",
"406 393 OFFCURVE",
"406 315 CURVE SMOOTH",
"406 287 OFFCURVE",
"403 255 OFFCURVE",
"397 222 CURVE SMOOTH",
"381 132 OFFCURVE",
"329 65 OFFCURVE",
"244 65 CURVE SMOOTH",
"163 65 OFFCURVE",
"135 114 OFFCURVE",
"135 193 CURVE SMOOTH",
"135 216 OFFCURVE",
"137 242 OFFCURVE",
"141 269 CURVE SMOOTH",
"154 356 OFFCURVE",
"196 446 OFFCURVE",
"297 446 CURVE SMOOTH"
);
},
{
closed = 1;
nodes = (
"639 449 LINE",
"696 599 LINE",
"708 684 LINE",
"607 684 LINE",
"591 573 LINE",
"632 573 LINE",
"587 449 LINE"
);
}
);
width = 627;
},
{
background = {
paths = (
{
closed = 1;
nodes = (
"410 21 OFFCURVE",
"424 -10 OFFCURVE",
"468 -10 CURVE SMOOTH",
"491 -10 OFFCURVE",
"512 -3 OFFCURVE",
"531 9 CURVE",
"537 52 LINE",
"520 43 OFFCURVE",
"499 36 OFFCURVE",
"484 36 CURVE SMOOTH",
"471 36 OFFCURVE",
"461 43 OFFCURVE",
"461 61 CURVE SMOOTH",
"461 73 OFFCURVE",
"553 720 OFFCURVE",
"553 720 CURVE SMOOTH",
"502 720 LINE",
"462 440 LINE",
"436 490 OFFCURVE",
"383 521 OFFCURVE",
"311 521 CURVE SMOOTH",
"136 521 OFFCURVE",
"66 344 OFFCURVE",
"66 190 CURVE SMOOTH",
"66 50 OFFCURVE",
"139 -10 OFFCURVE",
"236 -10 CURVE SMOOTH",
"308 -10 OFFCURVE",
"366 15 OFFCURVE",
"411 69 CURVE",
"410 64 OFFCURVE",
"410 60 OFFCURVE",
"410 55 CURVE SMOOTH"
);
},
{
closed = 1;
nodes = (
"644 516 LINE",
"689 628 LINE",
"697 686 LINE",
"632 686 LINE",
"623 617 LINE",
"647 617 LINE",
"647 617 OFFCURVE",
"611 516 OFFCURVE",
"610 516 CURVE"
);
},
{
closed = 1;
nodes = (
"173 36 OFFCURVE",
"117 77 OFFCURVE",
"117 193 CURVE SMOOTH",
"117 316 OFFCURVE",
"166 475 OFFCURVE",
"309 475 CURVE SMOOTH",
"385 475 OFFCURVE",
"442 428 OFFCURVE",
"442 321 CURVE SMOOTH",
"442 187 OFFCURVE",
"392 36 OFFCURVE",
"248 36 CURVE SMOOTH"
);
}
);
};
layerId = "4BBFD287-7A5F-4332-B846-65FFBCBF0D57";
paths = (
{
closed = 1;
nodes = (
"136 521 OFFCURVE",
"66 344 OFFCURVE",
"66 190 CURVE SMOOTH",
"66 50 OFFCURVE",
"139 -10 OFFCURVE",
"236 -10 CURVE SMOOTH",
"308 -10 OFFCURVE",
"366 15 OFFCURVE",
"411 69 CURVE",
"403 30 OFFCURVE",
"422 -10 OFFCURVE",
"468 -10 CURVE SMOOTH",
"491 -10 OFFCURVE",
"512 -3 OFFCURVE",
"531 9 CURVE",
"537 52 LINE",
"520 43 OFFCURVE",
"499 36 OFFCURVE",
"484 36 CURVE SMOOTH",
"471 36 OFFCURVE",
"461 43 OFFCURVE",
"461 61 CURVE SMOOTH",
"461 73 OFFCURVE",
"553 720 OFFCURVE",
"553 720 CURVE SMOOTH",
"502 720 LINE",
"462 440 LINE",
"436 490 OFFCURVE",
"383 521 OFFCURVE",
"311 521 CURVE SMOOTH"
);
},
{
closed = 1;
nodes = (
"401 475 OFFCURVE",
"442 412 OFFCURVE",
"442 315 CURVE SMOOTH",
"442 283 OFFCURVE",
"438 248 OFFCURVE",
"429 210 CURVE SMOOTH",
"406 113 OFFCURVE",
"354 36 OFFCURVE",
"248 36 CURVE SMOOTH",
"151 36 OFFCURVE",
"117 104 OFFCURVE",
"117 197 CURVE SMOOTH",
"117 222 OFFCURVE",
"120 249 OFFCURVE",
"124 277 CURVE SMOOTH",
"138 378 OFFCURVE",
"197 475 OFFCURVE",
"309 475 CURVE SMOOTH"
);
},
{
closed = 1;
nodes = (
"643 516 LINE",
"689 628 LINE",
"697 686 LINE",
"632 686 LINE",
"622 617 LINE",
"646 617 LINE",
"609 516 LINE"
);
}
);
width = 616;
},
{
background = {
paths = (
{
closed = 1;
nodes = (
"434 720 LINE",
"396 452 LINE",
"376 485 OFFCURVE",
"333 521 OFFCURVE",
"263 521 CURVE SMOOTH",
"86 521 OFFCURVE",
"23 326 OFFCURVE",
"23 192 CURVE SMOOTH",
"23 54 OFFCURVE",
"100 -10 OFFCURVE",
"203 -10 CURVE SMOOTH",
"267 -10 OFFCURVE",
"315 19 OFFCURVE",
"353 59 CURVE",
"360 14 OFFCURVE",
"393 -10 OFFCURVE",
"458 -10 CURVE SMOOTH",
"492 -10 OFFCURVE",
"527 0 OFFCURVE",
"548 11 CURVE",
"562 104 LINE",
"552 97 OFFCURVE",
"534 90 OFFCURVE",
"520 90 CURVE SMOOTH",
"504 90 OFFCURVE",
"495 100 OFFCURVE",
"495 117 CURVE SMOOTH",
"495 127 OFFCURVE",
"580 720 OFFCURVE",
"580 720 CURVE SMOOTH"
);
},
{
closed = 1;
nodes = (
"623 395 LINE",
"696 395 LINE",
"762 563 LINE",
"779 686 LINE",
"633 686 LINE",
"612 539 LINE",
"675 539 LINE"
);
},
{
closed = 1;
nodes = (
"350 130 OFFCURVE",
"303 90 OFFCURVE",
"249 90 CURVE SMOOTH",
"201 90 OFFCURVE",
"168 121 OFFCURVE",
"168 183 CURVE SMOOTH",
"168 192 OFFCURVE",
"169 201 OFFCURVE",
"182 294 CURVE SMOOTH",
"194 375 OFFCURVE",
"240 415 OFFCURVE",
"295 415 CURVE SMOOTH",
"342 415 OFFCURVE",
"376 384 OFFCURVE",
"376 322 CURVE SMOOTH",
"376 313 OFFCURVE",
"375 304 OFFCURVE",
"362 211 CURVE SMOOTH"
);
}
);
};
layerId = "B761BB45-E103-41B9-A767-1F2A3FFB8B31";
paths = (
{
closed = 1;
nodes = (
"86 521 OFFCURVE",
"23 326 OFFCURVE",
"23 192 CURVE SMOOTH",
"23 54 OFFCURVE",
"100 -10 OFFCURVE",
"203 -10 CURVE SMOOTH",
"267 -10 OFFCURVE",
"315 19 OFFCURVE",
"353 59 CURVE",
"360 14 OFFCURVE",
"393 -10 OFFCURVE",
"458 -10 CURVE SMOOTH",
"492 -10 OFFCURVE",
"527 0 OFFCURVE",
"548 11 CURVE",
"562 104 LINE",
"552 97 OFFCURVE",
"534 90 OFFCURVE",
"520 90 CURVE SMOOTH",
"504 90 OFFCURVE",
"495 100 OFFCURVE",
"495 117 CURVE SMOOTH",
"495 127 OFFCURVE",
"580 720 OFFCURVE",
"580 720 CURVE SMOOTH",
"434 720 LINE",
"396 452 LINE",
"376 485 OFFCURVE",
"333 521 OFFCURVE",
"263 521 CURVE SMOOTH"
);
},
{
closed = 1;
nodes = (
"342 415 OFFCURVE",
"376 384 OFFCURVE",
"376 322 CURVE SMOOTH",
"376 313 OFFCURVE",
"375 304 OFFCURVE",
"362 211 CURVE SMOOTH",
"350 130 OFFCURVE",
"303 90 OFFCURVE",
"249 90 CURVE SMOOTH",
"201 90 OFFCURVE",
"168 121 OFFCURVE",
"168 183 CURVE SMOOTH",
"168 192 OFFCURVE",
"169 201 OFFCURVE",
"182 294 CURVE SMOOTH",
"194 375 OFFCURVE",
"240 415 OFFCURVE",
"295 415 CURVE SMOOTH"
);
},
{
closed = 1;
nodes = (
"697 393 LINE",
"762 561 LINE",
"779 684 LINE",
"633 684 LINE",
"613 537 LINE",
"676 537 LINE",
"624 393 LINE"
);
}
);
width = 685;
},
{
background = {
paths = (
{
closed = 1;
nodes = (
"611 720 LINE",
"413 720 LINE",
"376 458 LINE",
"360 493 OFFCURVE",
"324 521 OFFCURVE",
"253 521 CURVE SMOOTH",
"137 521 OFFCURVE",
"18 413 OFFCURVE",
"18 193 CURVE SMOOTH",
"18 56 OFFCURVE",
"89 -10 OFFCURVE",
"197 -10 CURVE SMOOTH",
"271 -10 OFFCURVE",
"310 24 OFFCURVE",
"342 59 CURVE",
"360 -1 OFFCURVE",
"418 -10 OFFCURVE",
"475 -10 CURVE SMOOTH",
"507 -10 OFFCURVE",
"549 -2 OFFCURVE",
"578 13 CURVE",
"593 123 LINE",
"582 116 OFFCURVE",
"569 110 OFFCURVE",
"556 110 CURVE SMOOTH",
"533 110 OFFCURVE",
"531 127 OFFCURVE",
"531 146 CURVE",
"530 158 OFFCURVE",
"551 302 OFFCURVE",
"571 442 CURVE SMOOTH"
);
},
{
closed = 1;
nodes = (
"844 686 LINE",
"653 686 LINE",
"627 503 LINE",
"711 503 LINE",
"651 338 LINE",
"745 338 LINE",
"821 525 LINE"
);
},
{
closed = 1;
nodes = (
"336 396 OFFCURVE",
"358 377 OFFCURVE",
"358 338 CURVE SMOOTH",
"358 329 OFFCURVE",
"352 290 OFFCURVE",
"347 253 CURVE SMOOTH",
"337 181 LINE SMOOTH",
"331 142 OFFCURVE",
"308 111 OFFCURVE",
"265 111 CURVE SMOOTH",
"234 111 OFFCURVE",
"212 135 OFFCURVE",
"212 170 CURVE SMOOTH",
"212 174 OFFCURVE",
"212 178 OFFCURVE",
"233 326 CURVE SMOOTH",
"238 365 OFFCURVE",
"268 396 OFFCURVE",
"305 396 CURVE SMOOTH"
);
}
);
};
layerId = "4FDE33F5-0064-4818-A7C2-FB87252213B5";
paths = (
{
closed = 1;
nodes = (
"137 521 OFFCURVE",
"18 413 OFFCURVE",
"18 193 CURVE SMOOTH",
"18 56 OFFCURVE",
"89 -10 OFFCURVE",
"197 -10 CURVE SMOOTH",
"271 -10 OFFCURVE",
"310 24 OFFCURVE",
"342 59 CURVE",
"360 -1 OFFCURVE",
"418 -10 OFFCURVE",
"475 -10 CURVE SMOOTH",
"507 -10 OFFCURVE",
"549 -2 OFFCURVE",
"578 13 CURVE",
"593 123 LINE",
"582 116 OFFCURVE",
"569 110 OFFCURVE",
"556 110 CURVE SMOOTH",
"533 110 OFFCURVE",
"531 127 OFFCURVE",
"531 146 CURVE",
"530 155 OFFCURVE",
"535 190 OFFCURVE",
"611 720 CURVE",
"413 720 LINE",
"376 458 LINE",
"360 493 OFFCURVE",
"324 521 OFFCURVE",
"253 521 CURVE SMOOTH"
);
},
{
closed = 1;
nodes = (
"336 396 OFFCURVE",
"358 377 OFFCURVE",
"358 338 CURVE SMOOTH",
"358 330 OFFCURVE",
"352 290 OFFCURVE",
"337 181 CURVE SMOOTH",
"331 142 OFFCURVE",
"308 111 OFFCURVE",
"265 111 CURVE SMOOTH",
"234 111 OFFCURVE",
"212 135 OFFCURVE",
"212 170 CURVE SMOOTH",
"212 174 OFFCURVE",
"212 178 OFFCURVE",
"233 326 CURVE SMOOTH",
"238 365 OFFCURVE",
"268 396 OFFCURVE",
"305 396 CURVE SMOOTH"
);
},
{
closed = 1;
nodes = (
"748 338 LINE",
"824 525 LINE",
"846 686 LINE",
"655 686 LINE",
"630 503 LINE",
"714 503 LINE",
"654 338 LINE"
);
}
);
width = 729;
}
);
leftKerningGroup = o;
note = dcaron;
rightKerningGroup = a;
unicode = 010F;
},
{
glyphname = e;
layers = (
{
anchors = (
{
name = bottom;
position = "{245, 0}";
},
{
name = ogonek;
position = "{283, 0}";
},
{
name = top;
position = "{313, 511}";
}
);
layerId = "8F3315DA-A8CB-43B6-A496-83A18984EDD5";
paths = (
{
closed = 1;
nodes = (
"314 521 LINE SMOOTH",
"129 521 OFFCURVE",
"41 366 OFFCURVE",
"41 193 CURVE SMOOTH",
"41 62 OFFCURVE",
"121 -10 OFFCURVE",
"242 -10 CURVE SMOOTH",
"246 -10 LINE SMOOTH",
"383 -10 OFFCURVE",
"471 66 OFFCURVE",
"488 190 CURVE",
"399 190 LINE",
"393 157 OFFCURVE",
"369 65 OFFCURVE",
"256 65 CURVE SMOOTH",
"168 65 OFFCURVE",
"135 123 OFFCURVE",
"135 202 CURVE SMOOTH",
"135 213 OFFCURVE",
"136 223 OFFCURVE",
"137 234 CURVE",
"494 234 LINE",
"502 280 OFFCURVE",
"507 317 OFFCURVE",
"507 344 CURVE SMOOTH",
"507 455 OFFCURVE",
"434 521 OFFCURVE",
"321 521 CURVE SMOOTH"
);
},
{
closed = 1;
nodes = (
"369 446 OFFCURVE",
"415 411 OFFCURVE",
"415 343 CURVE SMOOTH",
"415 335 OFFCURVE",
"415 327 OFFCURVE",
"412 307 CURVE",
"150 307 LINE",
"173 400 OFFCURVE",
"230 446 OFFCURVE",
"306 446 CURVE SMOOTH"
);
}
);
width = 556;
},
{
anchors = (
{
name = bottom;
position = "{256, 0}";
},
{
name = ogonek;
position = "{284, 0}";
},
{
name = top;
position = "{324, 511}";
}
);
background = {
paths = (
{
closed = 1;
nodes = (
"425 189 LINE",
"410 84 OFFCURVE",
"341 36 OFFCURVE",
"255 36 CURVE SMOOTH",
"175 36 OFFCURVE",
"117 87 OFFCURVE",
"117 192 CURVE SMOOTH",
"117 208 OFFCURVE",
"118 224 OFFCURVE",
"122 250 CURVE",
"484 250 LINE",
"491 280 OFFCURVE",
"495 339 OFFCURVE",
"495 351 CURVE SMOOTH",
"495 461 OFFCURVE",
"423 521 OFFCURVE",
"322 521 CURVE SMOOTH",
"143 521 OFFCURVE",
"66 348 OFFCURVE",
"66 191 CURVE SMOOTH",
"66 62 OFFCURVE",
"137 -10 OFFCURVE",
"248 -10 CURVE SMOOTH",
"367 -10 OFFCURVE",
"457 61 OFFCURVE",
"475 189 CURVE"
);
},
{
closed = 1;
nodes = (
"388 475 OFFCURVE",
"445 433 OFFCURVE",
"445 346 CURVE SMOOTH",
"445 336 OFFCURVE",
"445 325 OFFCURVE",
"440 296 CURVE",
"129 296 LINE",
"154 416 OFFCURVE",
"229 475 OFFCURVE",
"315 475 CURVE SMOOTH"
);
}
);
};
layerId = "4BBFD287-7A5F-4332-B846-65FFBCBF0D57";
paths = (
{
closed = 1;
nodes = (
"321 521 LINE SMOOTH",
"144 521 OFFCURVE",
"66 348 OFFCURVE",
"66 191 CURVE SMOOTH",
"66 62 OFFCURVE",
"137 -10 OFFCURVE",
"247 -10 CURVE SMOOTH",
"252 -10 LINE SMOOTH",
"367 -10 OFFCURVE",
"457 63 OFFCURVE",
"475 189 CURVE",
"425 189 LINE",
"410 84 OFFCURVE",
"341 36 OFFCURVE",
"255 36 CURVE SMOOTH",
"175 36 OFFCURVE",
"117 87 OFFCURVE",
"117 192 CURVE SMOOTH",
"117 208 OFFCURVE",
"118 224 OFFCURVE",
"122 250 CURVE",
"484 250 LINE",
"491 280 OFFCURVE",
"495 339 OFFCURVE",
"495 351 CURVE SMOOTH",
"495 459 OFFCURVE",
"423 521 OFFCURVE",
"326 521 CURVE SMOOTH"
);
},
{
closed = 1;
nodes = (
"388 475 OFFCURVE",
"445 433 OFFCURVE",
"445 346 CURVE SMOOTH",
"445 336 OFFCURVE",
"445 325 OFFCURVE",
"440 296 CURVE",
"129 296 LINE",
"154 416 OFFCURVE",
"229 475 OFFCURVE",
"315 475 CURVE SMOOTH"
);
}
);
width = 556;
},
{
anchors = (
{
name = bottom;
position = "{261, 0}";
},
{
name = ogonek;
position = "{301, 0}";
},
{
name = top;
position = "{329, 511}";
}
);
layerId = "B761BB45-E103-41B9-A767-1F2A3FFB8B31";
paths = (
{
closed = 1;
nodes = (
"330 521 LINE SMOOTH",
"148 521 OFFCURVE",
"37 385 OFFCURVE",
"37 197 CURVE SMOOTH",
"37 65 OFFCURVE",
"127 -10 OFFCURVE",
"255 -10 CURVE SMOOTH",
"271 -10 LINE SMOOTH",
"389 -10 OFFCURVE",
"511 50 OFFCURVE",
"530 191 CURVE",
"390 191 LINE",
"381 123 OFFCURVE",
"337 90 OFFCURVE",
"277 90 CURVE SMOOTH",
"215 90 OFFCURVE",
"182 131 OFFCURVE",
"182 186 CURVE SMOOTH",
"182 193 OFFCURVE",
"184 219 OFFCURVE",
"187 231 CURVE",
"537 231 LINE",
"545 282 OFFCURVE",
"550 319 OFFCURVE",
"550 340 CURVE SMOOTH",
"550 456 OFFCURVE",
"458 521 OFFCURVE",
"346 521 CURVE SMOOTH"
);
},
{
closed = 1;
nodes = (
"379 421 OFFCURVE",
"402 387 OFFCURVE",
"402 338 CURVE SMOOTH",
"402 329 OFFCURVE",
"401 320 OFFCURVE",
"400 311 CURVE",
"198 311 LINE",
"212 373 OFFCURVE",
"257 421 OFFCURVE",
"317 421 CURVE SMOOTH"
);
}
);
width = 584;
},
{
anchors = (
{
name = bottom;
position = "{270, 0}";
},
{
name = ogonek;
position = "{308, 0}";
},
{
name = top;
position = "{338, 511}";
}
);
layerId = "4FDE33F5-0064-4818-A7C2-FB87252213B5";
paths = (
{
closed = 1;
nodes = (
"332 521 LINE SMOOTH",
"148 521 OFFCURVE",
"16 401 OFFCURVE",
"16 200 CURVE SMOOTH",
"16 67 OFFCURVE",
"120 -10 OFFCURVE",
"264 -10 CURVE SMOOTH",
"279 -10 LINE SMOOTH",
"436 -10 OFFCURVE",
"541 79 OFFCURVE",
"557 192 CURVE",
"374 192 LINE",
"367 143 OFFCURVE",
"338 111 OFFCURVE",
"290 111 CURVE SMOOTH",
"251 111 OFFCURVE",
"222 131 OFFCURVE",
"222 170 CURVE SMOOTH",
"222 186 OFFCURVE",
"226 207 OFFCURVE",
"230 229 CURVE",
"563 229 LINE",
"570 271 OFFCURVE",
"574 293 OFFCURVE",
"574 330 CURVE SMOOTH",
"574 438 OFFCURVE",
"500 521 OFFCURVE",
"357 521 CURVE SMOOTH"
);
},
{
closed = 1;
nodes = (
"358 400 OFFCURVE",
"382 374 OFFCURVE",
"382 339 CURVE SMOOTH",
"382 327 OFFCURVE",
"380 320 OFFCURVE",
"380 316 CURVE",
"242 316 LINE",
"249 371 OFFCURVE",
"280 400 OFFCURVE",
"323 400 CURVE SMOOTH"
);
}
);
width = 600;
}
);
leftKerningGroup = o;
note = e;
rightKerningGroup = e;
unicode = 0065;
},
{
glyphname = schwa;
layers = (
{
layerId = "4BBFD287-7A5F-4332-B846-65FFBCBF0D57";
paths = (
{
closed = 1;
nodes = (
"235 -10 LINE SMOOTH",
"412 -10 OFFCURVE",
"490 163 OFFCURVE",
"490 320 CURVE SMOOTH",
"490 449 OFFCURVE",
"419 521 OFFCURVE",
"309 521 CURVE SMOOTH",
"304 521 LINE SMOOTH",
"189 521 OFFCURVE",
"99 448 OFFCURVE",
"81 322 CURVE",
"131 322 LINE",
"146 427 OFFCURVE",
"215 475 OFFCURVE",
"301 475 CURVE SMOOTH",
"381 475 OFFCURVE",
"439 424 OFFCURVE",
"439 319 CURVE SMOOTH",
"439 303 OFFCURVE",
"438 287 OFFCURVE",
"434 261 CURVE",
"72 261 LINE",
"65 231 OFFCURVE",
"61 172 OFFCURVE",
"61 160 CURVE SMOOTH",
"61 52 OFFCURVE",
"133 -10 OFFCURVE",
"230 -10 CURVE SMOOTH"
);
},
{
closed = 1;
nodes = (
"168 36 OFFCURVE",
"111 78 OFFCURVE",
"111 165 CURVE SMOOTH",
"111 175 OFFCURVE",
"111 186 OFFCURVE",
"116 215 CURVE",
"427 215 LINE",
"402 95 OFFCURVE",
"327 36 OFFCURVE",
"241 36 CURVE SMOOTH"
);
}
);
width = 556;
},
{
layerId = "B761BB45-E103-41B9-A767-1F2A3FFB8B31";
paths = (
{
closed = 1;
nodes = (
"254 -10 LINE SMOOTH",
"436 -10 OFFCURVE",
"547 126 OFFCURVE",
"547 314 CURVE SMOOTH",
"547 446 OFFCURVE",
"457 521 OFFCURVE",
"329 521 CURVE SMOOTH",
"313 521 LINE SMOOTH",
"195 521 OFFCURVE",
"73 461 OFFCURVE",
"54 320 CURVE",
"194 320 LINE",
"203 388 OFFCURVE",
"247 421 OFFCURVE",
"307 421 CURVE SMOOTH",
"369 421 OFFCURVE",
"402 380 OFFCURVE",
"402 325 CURVE SMOOTH",
"402 318 OFFCURVE",
"400 292 OFFCURVE",
"397 280 CURVE",
"47 280 LINE",
"39 229 OFFCURVE",
"34 192 OFFCURVE",
"34 171 CURVE SMOOTH",
"34 55 OFFCURVE",
"126 -10 OFFCURVE",
"238 -10 CURVE SMOOTH"
);
},
{
closed = 1;
nodes = (
"205 90 OFFCURVE",
"182 124 OFFCURVE",
"182 173 CURVE SMOOTH",
"182 182 OFFCURVE",
"183 191 OFFCURVE",
"184 200 CURVE",
"386 200 LINE",
"372 138 OFFCURVE",
"327 90 OFFCURVE",
"267 90 CURVE SMOOTH"
);
}
);
width = 584;
},
{
layerId = "8F3315DA-A8CB-43B6-A496-83A18984EDD5";
paths = (
{
closed = 1;
nodes = (
"242 -10 LINE SMOOTH",
"427 -10 OFFCURVE",
"515 145 OFFCURVE",
"515 318 CURVE SMOOTH",
"515 449 OFFCURVE",
"435 521 OFFCURVE",
"314 521 CURVE SMOOTH",
"310 521 LINE SMOOTH",
"173 521 OFFCURVE",
"85 445 OFFCURVE",
"68 321 CURVE",
"157 321 LINE",
"163 354 OFFCURVE",
"187 446 OFFCURVE",
"300 446 CURVE SMOOTH",
"388 446 OFFCURVE",
"421 388 OFFCURVE",
"421 309 CURVE SMOOTH",
"421 298 OFFCURVE",
"420 288 OFFCURVE",
"419 277 CURVE",
"62 277 LINE",
"54 231 OFFCURVE",
"49 194 OFFCURVE",
"49 167 CURVE SMOOTH",
"49 56 OFFCURVE",
"122 -10 OFFCURVE",
"235 -10 CURVE SMOOTH"
);
},
{
closed = 1;
nodes = (
"187 65 OFFCURVE",
"141 100 OFFCURVE",
"141 168 CURVE SMOOTH",
"141 176 OFFCURVE",
"141 184 OFFCURVE",
"144 204 CURVE",
"406 204 LINE",
"383 111 OFFCURVE",
"326 65 OFFCURVE",
"250 65 CURVE SMOOTH"
);
}
);
width = 556;
},
{
layerId = "4FDE33F5-0064-4818-A7C2-FB87252213B5";
paths = (
{
closed = 1;
nodes = (
"268 -10 LINE SMOOTH",
"452 -10 OFFCURVE",
"584 110 OFFCURVE",
"584 311 CURVE SMOOTH",
"584 444 OFFCURVE",
"480 521 OFFCURVE",
"336 521 CURVE SMOOTH",
"321 521 LINE SMOOTH",
"164 521 OFFCURVE",
"59 432 OFFCURVE",
"43 319 CURVE",
"226 319 LINE",
"233 368 OFFCURVE",
"262 400 OFFCURVE",
"310 400 CURVE SMOOTH",
"349 400 OFFCURVE",
"378 380 OFFCURVE",
"378 341 CURVE SMOOTH",
"378 325 OFFCURVE",
"374 304 OFFCURVE",
"370 282 CURVE",
"37 282 LINE",
"30 240 OFFCURVE",
"26 218 OFFCURVE",
"26 181 CURVE SMOOTH",
"26 73 OFFCURVE",
"100 -10 OFFCURVE",
"243 -10 CURVE SMOOTH"
);
},
{
closed = 1;
nodes = (
"242 111 OFFCURVE",
"218 137 OFFCURVE",
"218 172 CURVE SMOOTH",
"218 184 OFFCURVE",
"220 191 OFFCURVE",
"220 195 CURVE",
"358 195 LINE",
"351 140 OFFCURVE",
"320 111 OFFCURVE",
"277 111 CURVE SMOOTH"
);
}
);
width = 600;
}
);
leftKerningGroup = schwa;
rightKerningGroup = o;
unicode = 0259;
},
{
glyphname = f;
layers = (
{
layerId = "8F3315DA-A8CB-43B6-A496-83A18984EDD5";
paths = (
{
closed = 1;
nodes = (
"214 728 OFFCURVE",
"160 691 OFFCURVE",
"147 602 CURVE SMOOTH",
"134 511 LINE",
"76 511 LINE",
"66 436 LINE",
"125 436 LINE",
"54 -46 LINE SMOOTH",
"45 -104 OFFCURVE",
"15 -110 OFFCURVE",
"-11 -110 CURVE SMOOTH",
"-26 -110 OFFCURVE",
"-57 -103 OFFCURVE",
"-72 -96 CURVE",
"-80 -165 LINE",
"-61 -177 OFFCURVE",
"-24 -184 OFFCURVE",
"4 -184 CURVE SMOOTH",
"77 -184 OFFCURVE",
"134 -147 OFFCURVE",
"147 -58 CURVE SMOOTH",
"218 436 LINE",
"338 436 LINE",
"347 511 LINE",
"227 511 LINE",
"239 590 LINE SMOOTH",
"248 648 OFFCURVE",
"276 654 OFFCURVE",
"305 654 CURVE SMOOTH",
"320 654 OFFCURVE",
"350 647 OFFCURVE",
"365 640 CURVE",
"374 709 LINE",
"354 721 OFFCURVE",
"318 728 OFFCURVE",
"290 728 CURVE SMOOTH"
);
}
);
width = 340;
},
{
layerId = "4BBFD287-7A5F-4332-B846-65FFBCBF0D57";
paths = (
{
closed = 1;
nodes = (
"228 728 OFFCURVE",
"180 694 OFFCURVE",
"169 617 CURVE SMOOTH",
"154 511 LINE",
"98 511 LINE",
"92 465 LINE",
"148 465 LINE",
"72 -73 LINE SMOOTH",
"64 -132 OFFCURVE",
"34 -140 OFFCURVE",
"6 -140 CURVE SMOOTH",
"-9 -140 OFFCURVE",
"-39 -131 OFFCURVE",
"-54 -124 CURVE",
"-60 -169 LINE",
"-45 -179 OFFCURVE",
"-20 -186 OFFCURVE",
"5 -186 CURVE SMOOTH",
"71 -186 OFFCURVE",
"112 -152 OFFCURVE",
"123 -75 CURVE SMOOTH",
"199 465 LINE",
"318 465 LINE",
"324 511 LINE",
"205 511 LINE",
"220 615 LINE SMOOTH",
"228 674 OFFCURVE",
"258 682 OFFCURVE",
"286 682 CURVE SMOOTH",
"301 682 OFFCURVE",
"331 673 OFFCURVE",
"346 666 CURVE",
"352 711 LINE",
"337 721 OFFCURVE",
"312 728 OFFCURVE",
"287 728 CURVE SMOOTH"
);
}
);
width = 340;
},
{
layerId = "B761BB45-E103-41B9-A767-1F2A3FFB8B31";
paths = (
{
closed = 1;
nodes = (
"194 728 OFFCURVE",
"130 685 OFFCURVE",
"114 574 CURVE SMOOTH",
"105 511 LINE",
"44 511 LINE",
"31 411 LINE",
"91 411 LINE",
"30 -21 LINE SMOOTH",
"23 -70 OFFCURVE",
"0 -87 OFFCURVE",
"-36 -87 CURVE SMOOTH",
"-52 -87 OFFCURVE",
"-81 -81 OFFCURVE",
"-96 -74 CURVE",
"-108 -165 LINE",
"-85 -178 OFFCURVE",
"-41 -185 OFFCURVE",
"-9 -185 CURVE SMOOTH",
"94 -185 OFFCURVE",
"162 -132 OFFCURVE",
"180 -1 CURVE SMOOTH",
"237 411 LINE",
"356 411 LINE",
"371 511 LINE",
"251 511 LINE",
"258 557 LINE SMOOTH",
"265 606 OFFCURVE",
"279 630 OFFCURVE",
"325 630 CURVE SMOOTH",
"341 630 OFFCURVE",
"370 623 OFFCURVE",
"385 618 CURVE",
"397 707 LINE",
"371 721 OFFCURVE",
"320 728 OFFCURVE",
"290 728 CURVE SMOOTH"
);
}
);
width = 363;
},
{
layerId = "4FDE33F5-0064-4818-A7C2-FB87252213B5";
paths = (
{
closed = 1;
nodes = (
"229 728 OFFCURVE",
"144 689 OFFCURVE",
"129 577 CURVE SMOOTH",
"120 511 LINE",
"56 511 LINE",
"36 369 LINE",
"100 369 LINE",
"49 4 LINE SMOOTH",
"42 -36 OFFCURVE",
"26 -65 OFFCURVE",
"-18 -65 CURVE SMOOTH",
"-35 -65 OFFCURVE",
"-62 -60 OFFCURVE",
"-78 -53 CURVE",
"-94 -165 LINE",
"-62 -181 OFFCURVE",
"1 -187 OFFCURVE",
"37 -187 CURVE SMOOTH",
"143 -187 OFFCURVE",
"228 -136 OFFCURVE",
"243 -26 CURVE SMOOTH",
"298 369 LINE",
"418 369 LINE",
"438 511 LINE",
"318 511 LINE",
"323 544 LINE SMOOTH",
"328 579 OFFCURVE",
"340 606 OFFCURVE",
"388 606 CURVE SMOOTH",
"407 606 OFFCURVE",
"432 601 OFFCURVE",
"449 596 CURVE",
"464 706 LINE",
"433 722 OFFCURVE",
"368 728 OFFCURVE",
"334 728 CURVE SMOOTH"
);
}
);
width = 418;
}
);
leftKerningGroup = f;
note = f;
rightKerningGroup = f;
unicode = 0066;
},
{
glyphname = g;
layers = (
{
anchors = (
{
name = top;
position = "{292, 511}";
}
);
background = {
paths = (
{
closed = 1;
nodes = (
"366 446 OFFCURVE",
"409 417 OFFCURVE",
"409 326 CURVE SMOOTH",
"409 284 OFFCURVE",
"402 239 OFFCURVE",
"387 200 CURVE SMOOTH",
"364 141 OFFCURVE",
"321 95 OFFCURVE",
"250 95 CURVE SMOOTH",
"184 95 OFFCURVE",
"140 127 OFFCURVE",
"140 217 CURVE SMOOTH",
"140 252 OFFCURVE",
"143 282 OFFCURVE",
"149 308 CURVE SMOOTH",
"171 413 OFFCURVE",
"235 446 OFFCURVE",
"300 446 CURVE SMOOTH"
);
}
);
};
layerId = "8F3315DA-A8CB-43B6-A496-83A18984EDD5";
paths = (
{
closed = 1;
nodes = (
"124 521 OFFCURVE",
"44 368 OFFCURVE",
"44 208 CURVE SMOOTH",
"44 85 OFFCURVE",
"117 20 OFFCURVE",
"215 20 CURVE SMOOTH",
"287 20 OFFCURVE",
"344 52 OFFCURVE",
"379 95 CURVE",
"368 15 LINE SMOOTH",
"358 -54 OFFCURVE",
"305 -111 OFFCURVE",
"223 -111 CURVE SMOOTH",
"154 -111 OFFCURVE",
"114 -75 OFFCURVE",
"114 -19 CURVE",
"21 -19 LINE",
"21 -111 OFFCURVE",
"81 -186 OFFCURVE",
"213 -186 CURVE SMOOTH",
"375 -186 OFFCURVE",
"449 -89 OFFCURVE",
"465 34 CURVE SMOOTH",
"532 511 LINE",
"496 511 LINE",
"451 430 LINE",
"422 491 OFFCURVE",
"369 521 OFFCURVE",
"292 521 CURVE SMOOTH"
);
},
{
closed = 1;
nodes = (
"378 446 OFFCURVE",
"409 400 OFFCURVE",
"409 330 CURVE SMOOTH",
"409 291 OFFCURVE",
"402 250 OFFCURVE",
"389 207 CURVE SMOOTH",
"371 148 OFFCURVE",
"321 95 OFFCURVE",
"250 95 CURVE SMOOTH",
"168 95 OFFCURVE",
"140 144 OFFCURVE",
"140 221 CURVE SMOOTH",
"140 247 OFFCURVE",
"143 276 OFFCURVE",
"149 308 CURVE SMOOTH",
"168 413 OFFCURVE",
"235 446 OFFCURVE",
"300 446 CURVE SMOOTH"
);
}
);
width = 583;
},
{
anchors = (
{
name = top;
position = "{324, 511}";
}
);
background = {
paths = (
{
closed = 1;
nodes = (
"390 475 OFFCURVE",
"449 437 OFFCURVE",
"449 319 CURVE SMOOTH",
"449 279 OFFCURVE",
"444 237 OFFCURVE",
"432 198 CURVE SMOOTH",
"406 119 OFFCURVE",
"352 56 OFFCURVE",
"255 56 CURVE SMOOTH",
"179 56 OFFCURVE",
"123 101 OFFCURVE",
"123 199 CURVE SMOOTH",
"123 234 OFFCURVE",
"127 270 OFFCURVE",
"135 304 CURVE SMOOTH",
"157 396 OFFCURVE",
"213 475 OFFCURVE",
"316 475 CURVE SMOOTH"
);
}
);
};
layerId = "4BBFD287-7A5F-4332-B846-65FFBCBF0D57";
paths = (
{
closed = 1;
nodes = (
"144 521 OFFCURVE",
"71 349 OFFCURVE",
"71 196 CURVE SMOOTH",
"71 77 OFFCURVE",
"144 10 OFFCURVE",
"243 10 CURVE SMOOTH",
"315 10 OFFCURVE",
"380 41 OFFCURVE",
"421 91 CURVE",
"409 8 LINE SMOOTH",
"395 -91 OFFCURVE",
"322 -139 OFFCURVE",
"240 -139 CURVE SMOOTH",
"171 -139 OFFCURVE",
"98 -106 OFFCURVE",
"98 -22 CURVE",
"46 -22 LINE",
"46 -96 OFFCURVE",
"97 -186 OFFCURVE",
"233 -186 CURVE SMOOTH",
"374 -186 OFFCURVE",
"443 -103 OFFCURVE",
"460 17 CURVE SMOOTH",
"530 511 LINE",
"509 511 LINE",
"478 426 LINE",
"449 490 OFFCURVE",
"396 521 OFFCURVE",
"318 521 CURVE SMOOTH"
);
},
{
closed = 1;
nodes = (
"413 475 OFFCURVE",
"449 409 OFFCURVE",
"449 320 CURVE SMOOTH",
"449 284 OFFCURVE",
"443 241 OFFCURVE",
"432 201 CURVE SMOOTH",
"410 121 OFFCURVE",
"352 56 OFFCURVE",
"255 56 CURVE SMOOTH",
"160 56 OFFCURVE",
"123 119 OFFCURVE",
"123 207 CURVE SMOOTH",
"123 237 OFFCURVE",
"127 270 OFFCURVE",
"135 304 CURVE SMOOTH",
"156 396 OFFCURVE",
"213 475 OFFCURVE",
"316 475 CURVE SMOOTH"
);
}
);
width = 583;
},
{
anchors = (
{
name = top;
position = "{312, 511}";
}
);
layerId = "B761BB45-E103-41B9-A767-1F2A3FFB8B31";
paths = (
{
closed = 1;
nodes = (
"127 521 OFFCURVE",
"50 362 OFFCURVE",
"50 212 CURVE SMOOTH",
"50 98 OFFCURVE",
"110 19 OFFCURVE",
"216 19 CURVE SMOOTH",
"279 19 OFFCURVE",
"333 48 OFFCURVE",
"369 88 CURVE",
"361 26 LINE SMOOTH",
"354 -28 OFFCURVE",
"332 -87 OFFCURVE",
"257 -87 CURVE SMOOTH",
"202 -87 OFFCURVE",
"174 -55 OFFCURVE",
"174 -19 CURVE",
"28 -19 LINE",
"28 -129 OFFCURVE",
"120 -186 OFFCURVE",
"248 -186 CURVE SMOOTH",
"398 -186 OFFCURVE",
"489 -102 OFFCURVE",
"508 37 CURVE SMOOTH",
"575 511 LINE",
"522 511 LINE",
"460 433 LINE",
"429 492 OFFCURVE",
"373 521 OFFCURVE",
"303 521 CURVE SMOOTH"
);
},
{
closed = 1;
nodes = (
"371 421 OFFCURVE",
"402 390 OFFCURVE",
"402 326 CURVE SMOOTH",
"402 303 OFFCURVE",
"394 259 OFFCURVE",
"390 231 CURVE SMOOTH",
"379 156 OFFCURVE",
"331 119 OFFCURVE",
"276 119 CURVE SMOOTH",
"228 119 OFFCURVE",
"194 148 OFFCURVE",
"194 206 CURVE SMOOTH",
"194 214 OFFCURVE",
"195 222 OFFCURVE",
"208 309 CURVE SMOOTH",
"220 384 OFFCURVE",
"268 421 OFFCURVE",
"322 421 CURVE SMOOTH"
);
}
);
width = 572;
},
{
anchors = (
{
name = top;
position = "{315, 511}";
}
);
layerId = "4FDE33F5-0064-4818-A7C2-FB87252213B5";
paths = (
{
closed = 1;
nodes = (
"92 521 OFFCURVE",
"18 355 OFFCURVE",
"18 216 CURVE SMOOTH",
"18 112 OFFCURVE",
"64 19 OFFCURVE",
"179 19 CURVE SMOOTH",
"234 19 OFFCURVE",
"284 43 OFFCURVE",
"321 82 CURVE",
"312 7 LINE SMOOTH",
"307 -21 OFFCURVE",
"298 -63 OFFCURVE",
"252 -63 CURVE SMOOTH",
"211 -63 OFFCURVE",
"196 -36 OFFCURVE",
"196 -19 CURVE",
"-3 -19 LINE",
"-3 -147 OFFCURVE",
"121 -186 OFFCURVE",
"245 -186 CURVE SMOOTH",
"381 -186 OFFCURVE",
"491 -116 OFFCURVE",
"513 40 CURVE SMOOTH",
"579 511 LINE",
"509 511 LINE",
"430 436 LINE",
"398 495 OFFCURVE",
"340 521 OFFCURVE",
"275 521 CURVE SMOOTH"
);
},
{
closed = 1;
nodes = (
"334 400 OFFCURVE",
"356 381 OFFCURVE",
"356 342 CURVE SMOOTH",
"356 325 OFFCURVE",
"347 270 OFFCURVE",
"339 214 CURVE SMOOTH",
"334 175 OFFCURVE",
"310 144 OFFCURVE",
"267 144 CURVE SMOOTH",
"236 144 OFFCURVE",
"214 168 OFFCURVE",
"214 203 CURVE SMOOTH",
"214 211 OFFCURVE",
"222 271 OFFCURVE",
"231 330 CURVE SMOOTH",
"237 371 OFFCURVE",
"267 400 OFFCURVE",
"303 400 CURVE SMOOTH"
);
}
);
width = 600;
}
);
leftKerningGroup = o;
note = g;
rightKerningGroup = g;
unicode = 0067;
},
{
glyphname = h;
layers = (
{
anchors = (
{
name = bottom;
position = "{256, 0}";
},
{
name = center;
position = "{221, 607}";
},
{
name = top;
position = "{185, 686}";
}
);
layerId = "8F3315DA-A8CB-43B6-A496-83A18984EDD5";
paths = (
{
closed = 1;
nodes = (
"310 521 OFFCURVE",
"251 500 OFFCURVE",
"199 447 CURVE",
"237 720 LINE",
"143 720 LINE",
"42 0 LINE",
"136 0 LINE",
"179 304 LINE SMOOTH",
"190 384 OFFCURVE",
"264 446 OFFCURVE",
"335 446 CURVE SMOOTH",
"391 446 OFFCURVE",
"428 420 OFFCURVE",
"428 361 CURVE SMOOTH",
"428 330 OFFCURVE",
"406 184 OFFCURVE",
"380 0 CURVE",
"474 0 LINE",
"515 289 OFFCURVE",
"525 361 OFFCURVE",
"525 380 CURVE SMOOTH",
"525 478 OFFCURVE",
"458 521 OFFCURVE",
"367 521 CURVE SMOOTH"
);
}
);
width = 593;
},
{
anchors = (
{
name = bottom;
position = "{264, 0}";
},
{
name = center;
position = "{225, 607}";
},
{
name = top;
position = "{183, 686}";
}
);
layerId = "4BBFD287-7A5F-4332-B846-65FFBCBF0D57";
paths = (
{
closed = 1;
nodes = (
"289 521 OFFCURVE",
"217 493 OFFCURVE",
"175 439 CURVE",
"214 720 LINE",
"163 720 LINE",
"62 0 LINE",
"113 0 LINE",
"157 314 LINE SMOOTH",
"170 406 OFFCURVE",
"247 475 OFFCURVE",
"337 475 CURVE SMOOTH",
"415 475 OFFCURVE",
"461 437 OFFCURVE",
"461 354 CURVE SMOOTH",
"461 329 OFFCURVE",
"448 242 OFFCURVE",
"414 0 CURVE",
"465 0 LINE",
"499 237 OFFCURVE",
"514 335 OFFCURVE",
"514 368 CURVE SMOOTH",
"514 473 OFFCURVE",
"443 521 OFFCURVE",
"348 521 CURVE SMOOTH"
);
}
);
width = 595;
},
{
anchors = (
{
name = bottom;
position = "{246, 0}";
},
{
name = center;
position = "{211, 607}";
},
{
name = top;
position = "{181, 686}";
}
);
layerId = "B761BB45-E103-41B9-A767-1F2A3FFB8B31";
paths = (
{
closed = 1;
nodes = (
"312 521 OFFCURVE",
"262 494 OFFCURVE",
"226 461 CURVE",
"262 720 LINE",
"116 720 LINE",
"15 0 LINE",
"161 0 LINE",
"205 314 LINE SMOOTH",
"213 371 OFFCURVE",
"263 415 OFFCURVE",
"314 415 CURVE SMOOTH",
"356 415 OFFCURVE",
"383 389 OFFCURVE",
"383 345 CURVE SMOOTH",
"383 329 OFFCURVE",
"369 229 OFFCURVE",
"336 0 CURVE",
"482 0 LINE",
"519 255 OFFCURVE",
"534 366 OFFCURVE",
"534 386 CURVE SMOOTH",
"534 477 OFFCURVE",
"465 521 OFFCURVE",
"376 521 CURVE SMOOTH"
);
}
);
width = 598;
},
{
anchors = (
{
name = bottom;
position = "{256, 0}";
},
{
name = center;
position = "{234, 607}";
},
{
name = top;
position = "{197, 686}";
}
);
layerId = "4FDE33F5-0064-4818-A7C2-FB87252213B5";
paths = (
{
closed = 1;
nodes = (
"335 521 OFFCURVE",
"288 478 OFFCURVE",
"269 451 CURVE",
"307 720 LINE",
"109 720 LINE",
"9 0 LINE",
"206 0 LINE",
"251 320 LINE SMOOTH",
"256 353 OFFCURVE",
"277 380 OFFCURVE",
"312 380 CURVE SMOOTH",
"343 380 OFFCURVE",
"358 358 OFFCURVE",
"358 333 CURVE SMOOTH",
"358 313 OFFCURVE",
"345 227 OFFCURVE",
"312 0 CURVE",
"510 0 LINE",
"549 273 OFFCURVE",
"563 357 OFFCURVE",
"563 392 CURVE SMOOTH",
"563 428 OFFCURVE",
"548 521 OFFCURVE",
"420 521 CURVE SMOOTH"
);
}
);
width = 597;
}
);
leftKerningGroup = h;
note = h;
rightKerningGroup = n;
unicode = 0068;
},
{
glyphname = i;
layers = (
{
anchors = (
{
name = bottom;
position = "{89, 0}";
},
{
name = ogonek;
position = "{77, 0}";
}
);
layerId = "8F3315DA-A8CB-43B6-A496-83A18984EDD5";
paths = (
{
closed = 1;
nodes = (
"141 720 LINE",
"129 633 LINE",
"227 633 LINE",
"239 720 LINE"
);
},
{
closed = 1;
nodes = (
"114 511 LINE",
"42 0 LINE",
"136 0 LINE",
"208 511 LINE"
);
}
);
width = 260;
},
{
anchors = (
{
name = bottom;
position = "{86, 0}";
},
{
name = ogonek;
position = "{74, 0}";
}
);
layerId = "4BBFD287-7A5F-4332-B846-65FFBCBF0D57";
paths = (
{
closed = 1;
nodes = (
"159 720 LINE",
"152 666 LINE",
"211 666 LINE",
"218 720 LINE"
);
},
{
closed = 1;
nodes = (
"134 511 LINE",
"62 0 LINE",
"113 0 LINE",
"185 511 LINE"
);
}
);
width = 260;
},
{
anchors = (
{
name = bottom;
position = "{88, 0}";
},
{
name = ogonek;
position = "{67, 0}";
}
);
layerId = "B761BB45-E103-41B9-A767-1F2A3FFB8B31";
paths = (
{
closed = 1;
nodes = (
"115 720 LINE",
"99 605 LINE",
"247 605 LINE",
"263 720 LINE"
);
},
{
closed = 1;
nodes = (
"87 511 LINE",
"15 0 LINE",
"161 0 LINE",
"233 511 LINE"
);
}
);
width = 278;
},
{
anchors = (
{
name = bottom;
position = "{105, 0}";
},
{
name = ogonek;
position = "{82, 0}";
}
);
layerId = "4FDE33F5-0064-4818-A7C2-FB87252213B5";
paths = (
{
closed = 1;
nodes = (
"109 720 LINE",
"89 577 LINE",
"286 577 LINE",
"306 720 LINE"
);
},
{
closed = 1;
nodes = (
"80 511 LINE",
"9 0 LINE",
"205 0 LINE",
"277 511 LINE"
);
}
);
width = 296;
}
);
leftKerningGroup = i;
note = i;
rightKerningGroup = i;
unicode = 0069;
},
{
glyphname = idotless;
layers = (
{
anchors = (
{
name = bottom;
position = "{90, 0}";
},
{
name = top;
position = "{162, 511}";
}
);
layerId = "8F3315DA-A8CB-43B6-A496-83A18984EDD5";
paths = (
{
closed = 1;
nodes = (
"43 0 LINE",
"137 0 LINE",
"208 511 LINE",
"114 511 LINE"
);
}
);
width = 261;
},
{
anchors = (
{
name = bottom;
position = "{82, 0}";
},
{
name = top;
position = "{154, 511}";
}
);
layerId = "4BBFD287-7A5F-4332-B846-65FFBCBF0D57";
paths = (
{
closed = 1;
nodes = (
"58 0 LINE",
"109 0 LINE",
"180 511 LINE",
"129 511 LINE"
);
}
);
width = 252;
},
{
anchors = (
{
name = bottom;
position = "{102, 0}";
},
{
name = top;
position = "{174, 511}";
}
);
layerId = "B761BB45-E103-41B9-A767-1F2A3FFB8B31";
paths = (
{
closed = 1;
nodes = (
"30 0 LINE",
"176 0 LINE",
"247 511 LINE",
"101 511 LINE"
);
}
);
width = 278;
},
{
anchors = (
{
name = bottom;
position = "{105, 0}";
},
{
name = top;
position = "{177, 511}";
}
);
layerId = "4FDE33F5-0064-4818-A7C2-FB87252213B5";
paths = (
{
closed = 1;
nodes = (
"9 0 LINE",
"206 0 LINE",
"277 511 LINE",
"80 511 LINE"
);
}
);
width = 296;
}
);
leftKerningGroup = i;
note = dotlessi;
rightKerningGroup = i;
unicode = 0131;
},
{
glyphname = j;
layers = (
{
layerId = "8F3315DA-A8CB-43B6-A496-83A18984EDD5";
paths = (
{
closed = 1;
nodes = (
"141 720 LINE",
"129 633 LINE",
"227 633 LINE",
"239 720 LINE"
);
},
{
closed = 1;
nodes = (
"114 511 LINE",
"36 -44 LINE SMOOTH",
"28 -103 OFFCURVE",
"-3 -112 OFFCURVE",
"-29 -112 CURVE SMOOTH",
"-44 -112 OFFCURVE",
"-72 -104 OFFCURVE",
"-87 -97 CURVE",
"-96 -167 LINE",
"-77 -179 OFFCURVE",
"-42 -186 OFFCURVE",
"-14 -186 CURVE SMOOTH",
"78 -186 OFFCURVE",
"117 -134 OFFCURVE",
"134 -15 CURVE SMOOTH",
"208 511 LINE"
);
}
);
width = 260;
},
{
layerId = "4BBFD287-7A5F-4332-B846-65FFBCBF0D57";
paths = (
{
closed = 1;
nodes = (
"163 720 LINE",
"156 666 LINE",
"215 666 LINE",
"222 720 LINE"
);
},
{
closed = 1;
nodes = (
"138 511 LINE",
"56 -73 LINE SMOOTH",
"48 -132 OFFCURVE",
"16 -140 OFFCURVE",
"-10 -140 CURVE SMOOTH",
"-25 -140 OFFCURVE",
"-54 -131 OFFCURVE",
"-69 -124 CURVE",
"-76 -169 LINE",
"-60 -179 OFFCURVE",
"-35 -186 OFFCURVE",
"-10 -186 CURVE SMOOTH",
"49 -186 OFFCURVE",
"95 -152 OFFCURVE",
"106 -75 CURVE SMOOTH",
"189 511 LINE"
);
}
);
width = 260;
},
{
layerId = "B761BB45-E103-41B9-A767-1F2A3FFB8B31";
paths = (
{
closed = 1;
nodes = (
"129 720 LINE",
"113 605 LINE",
"261 605 LINE",
"277 720 LINE"
);
},
{
closed = 1;
nodes = (
"101 510 LINE",
"26 -18 LINE SMOOTH",
"18 -77 OFFCURVE",
"-10 -86 OFFCURVE",
"-38 -86 CURVE SMOOTH",
"-53 -86 OFFCURVE",
"-83 -80 OFFCURVE",
"-97 -73 CURVE",
"-110 -166 LINE",
"-85 -179 OFFCURVE",
"-35 -186 OFFCURVE",
"-4 -186 CURVE SMOOTH",
"96 -186 OFFCURVE",
"156 -133 OFFCURVE",
"172 -20 CURVE SMOOTH",
"247 510 LINE"
);
}
);
width = 280;
},
{
layerId = "4FDE33F5-0064-4818-A7C2-FB87252213B5";
paths = (
{
closed = 1;
nodes = (
"109 720 LINE",
"89 577 LINE",
"288 577 LINE",
"308 720 LINE"
);
},
{
closed = 1;
nodes = (
"80 511 LINE",
"9 4 LINE SMOOTH",
"1 -55 OFFCURVE",
"-28 -65 OFFCURVE",
"-56 -65 CURVE SMOOTH",
"-71 -65 OFFCURVE",
"-101 -60 OFFCURVE",
"-116 -53 CURVE",
"-132 -165 LINE",
"-100 -178 OFFCURVE",
"-37 -187 OFFCURVE",
"-2 -187 CURVE SMOOTH",
"107 -187 OFFCURVE",
"188 -134 OFFCURVE",
"203 -26 CURVE SMOOTH",
"279 511 LINE"
);
}
);
width = 298;
}
);
leftKerningGroup = j;
note = j;
rightKerningGroup = j;
unicode = 006A;
},
{
glyphname = jdotless;
layers = (
{
anchors = (
{
name = top;
position = "{144, 511}";
}
);
layerId = "4BBFD287-7A5F-4332-B846-65FFBCBF0D57";
paths = (
{
closed = 1;
nodes = (
"118 511 LINE",
"36 -73 LINE SMOOTH",
"28 -132 OFFCURVE",
"-4 -140 OFFCURVE",
"-30 -140 CURVE SMOOTH",
"-45 -140 OFFCURVE",
"-74 -131 OFFCURVE",
"-89 -124 CURVE",
"-96 -169 LINE",
"-80 -179 OFFCURVE",
"-55 -186 OFFCURVE",
"-30 -186 CURVE SMOOTH",
"29 -186 OFFCURVE",
"75 -152 OFFCURVE",
"86 -75 CURVE SMOOTH",
"169 511 LINE"
);
}
);
width = 260;
},
{
anchors = (
{
name = top;
position = "{174, 511}";
}
);
layerId = "B761BB45-E103-41B9-A767-1F2A3FFB8B31";
paths = (
{
closed = 1;
nodes = (
"101 510 LINE",
"26 -18 LINE SMOOTH",
"18 -77 OFFCURVE",
"-10 -86 OFFCURVE",
"-38 -86 CURVE SMOOTH",
"-53 -86 OFFCURVE",
"-83 -80 OFFCURVE",
"-97 -73 CURVE",
"-110 -166 LINE",
"-85 -179 OFFCURVE",
"-35 -186 OFFCURVE",
"-4 -186 CURVE SMOOTH",
"96 -186 OFFCURVE",
"156 -133 OFFCURVE",
"172 -20 CURVE SMOOTH",
"247 510 LINE"
);
}
);
width = 280;
},
{
anchors = (
{
name = top;
position = "{160, 511}";
}
);
layerId = "8F3315DA-A8CB-43B6-A496-83A18984EDD5";
paths = (
{
closed = 1;
nodes = (
"114 511 LINE",
"36 -44 LINE SMOOTH",
"28 -103 OFFCURVE",
"-3 -112 OFFCURVE",
"-29 -112 CURVE SMOOTH",
"-44 -112 OFFCURVE",
"-72 -104 OFFCURVE",
"-87 -97 CURVE",
"-96 -167 LINE",
"-77 -179 OFFCURVE",
"-42 -186 OFFCURVE",
"-14 -186 CURVE SMOOTH",
"78 -186 OFFCURVE",
"117 -134 OFFCURVE",
"134 -15 CURVE SMOOTH",
"208 511 LINE"
);
}
);
width = 260;
},
{
anchors = (
{
name = top;
position = "{174, 511}";
}
);
layerId = "4FDE33F5-0064-4818-A7C2-FB87252213B5";
paths = (
{
closed = 1;
nodes = (
"80 511 LINE",
"9 4 LINE SMOOTH",
"1 -55 OFFCURVE",
"-28 -65 OFFCURVE",
"-56 -65 CURVE SMOOTH",
"-71 -65 OFFCURVE",
"-101 -60 OFFCURVE",
"-116 -53 CURVE",
"-132 -165 LINE",
"-100 -178 OFFCURVE",
"-37 -187 OFFCURVE",
"-2 -187 CURVE SMOOTH",
"107 -187 OFFCURVE",
"188 -134 OFFCURVE",
"203 -26 CURVE SMOOTH",
"279 511 LINE"
);
}
);
width = 298;
}
);
leftKerningGroup = j;
rightKerningGroup = j;
unicode = 0237;
},
{
glyphname = k;
layers = (
{
anchors = (
{
name = bottom;
position = "{234, 0}";
}
);
layerId = "8F3315DA-A8CB-43B6-A496-83A18984EDD5";
paths = (
{
closed = 1;
nodes = (
"143 720 LINE",
"42 0 LINE",
"136 0 LINE",
"151 110 LINE",
"240 190 LINE",
"366 0 LINE",
"480 0 LINE",
"307 263 LINE",
"539 511 LINE",
"436 511 LINE",
"168 226 LINE",
"237 720 LINE"
);
}
);
width = 534;
},
{
anchors = (
{
name = bottom;
position = "{249, 0}";
}
);
layerId = "4BBFD287-7A5F-4332-B846-65FFBCBF0D57";
paths = (
{
closed = 1;
nodes = (
"163 720 LINE",
"62 0 LINE",
"113 0 LINE",
"131 127 LINE",
"250 232 LINE",
"417 0 LINE",
"483 0 LINE",
"289 270 LINE",
"538 511 LINE",
"475 511 LINE",
"139 186 LINE",
"214 720 LINE"
);
}
);
width = 534;
},
{
anchors = (
{
name = bottom;
position = "{237, 0}";
}
);
layerId = "B761BB45-E103-41B9-A767-1F2A3FFB8B31";
paths = (
{
closed = 1;
nodes = (
"116 720 LINE",
"15 0 LINE",
"161 0 LINE",
"177 112 LINE",
"241 167 LINE",
"339 0 LINE",
"513 0 LINE",
"355 271 LINE",
"577 511 LINE",
"412 511 LINE",
"199 273 LINE",
"262 720 LINE"
);
}
);
width = 562;
},
{
anchors = (
{
name = bottom;
position = "{261, 0}";
}
);
layerId = "4FDE33F5-0064-4818-A7C2-FB87252213B5";
paths = (
{
closed = 1;
nodes = (
"109 720 LINE",
"9 0 LINE",
"206 0 LINE",
"222 114 LINE",
"262 145 LINE",
"332 0 LINE",
"565 0 LINE",
"422 280 LINE",
"634 511 LINE",
"408 511 LINE",
"251 321 LINE",
"307 720 LINE"
);
}
);
width = 601;
}
);
leftKerningGroup = h;
note = k;
rightKerningGroup = k;
unicode = 006B;
},
{
glyphname = kgreenlandic;
layers = (
{
layerId = "4BBFD287-7A5F-4332-B846-65FFBCBF0D57";
paths = (
{
closed = 1;
nodes = (
"134 512 LINE",
"62 0 LINE",
"113 0 LINE",
"131 127 LINE",
"250 232 LINE",
"417 0 LINE",
"483 0 LINE",
"289 270 LINE",
"538 511 LINE",
"475 511 LINE",
"139 186 LINE",
"185 512 LINE"
);
}
);
width = 534;
},
{
layerId = "B761BB45-E103-41B9-A767-1F2A3FFB8B31";
paths = (
{
closed = 1;
nodes = (
"87 511 LINE",
"15 0 LINE",
"161 0 LINE",
"177 112 LINE",
"241 167 LINE",
"339 0 LINE",
"513 0 LINE",
"355 271 LINE",
"577 511 LINE",
"412 511 LINE",
"199 273 LINE",
"233 511 LINE"
);
}
);
width = 562;
},
{
layerId = "8F3315DA-A8CB-43B6-A496-83A18984EDD5";
paths = (
{
closed = 1;
nodes = (
"114 511 LINE",
"42 0 LINE",
"136 0 LINE",
"151 110 LINE",
"240 190 LINE",
"366 0 LINE",
"480 0 LINE",
"307 263 LINE",
"539 511 LINE",
"436 511 LINE",
"168 226 LINE",
"208 511 LINE"
);
}
);
width = 534;
},
{
layerId = "4FDE33F5-0064-4818-A7C2-FB87252213B5";
paths = (
{
closed = 1;
nodes = (
"80 511 LINE",
"9 0 LINE",
"206 0 LINE",
"222 114 LINE",
"262 145 LINE",
"332 0 LINE",
"565 0 LINE",
"422 280 LINE",
"634 511 LINE",
"408 511 LINE",
"251 321 LINE",
"278 511 LINE"
);
}
);
width = 601;
}
);
leftKerningGroup = n;
rightKerningGroup = k;
unicode = 0138;
},
{
glyphname = l;
layers = (
{
anchors = (
{
name = bottom;
position = "{90, 0}";
},
{
name = center;
position = "{141, 359}";
},
{
name = top;
position = "{186, 686}";
},
{
name = topright;
position = "{60, 400}";
}
);
layerId = "8F3315DA-A8CB-43B6-A496-83A18984EDD5";
paths = (
{
closed = 1;
nodes = (
"46 0 LINE",
"140 0 LINE",
"241 720 LINE",
"147 720 LINE"
);
}
);
width = 268;
},
{
anchors = (
{
name = bottom;
position = "{86, 0}";
},
{
name = center;
position = "{137, 359}";
},
{
name = top;
position = "{178, 686}";
},
{
name = topright;
position = "{57, 471}";
}
);
layerId = "4BBFD287-7A5F-4332-B846-65FFBCBF0D57";
paths = (
{
closed = 1;
nodes = (
"62 0 LINE",
"113 0 LINE",
"214 720 LINE",
"163 720 LINE"
);
}
);
width = 256;
},
{
anchors = (
{
name = bottom;
position = "{87, 0}";
},
{
name = center;
position = "{138, 359}";
},
{
name = top;
position = "{176, 686}";
},
{
name = topright;
position = "{60, 335}";
}
);
layerId = "B761BB45-E103-41B9-A767-1F2A3FFB8B31";
paths = (
{
closed = 1;
nodes = (
"15 0 LINE",
"161 0 LINE",
"262 720 LINE",
"116 720 LINE"
);
}
);
width = 279;
},
{
anchors = (
{
name = bottom;
position = "{106, 0}";
},
{
name = center;
position = "{157, 359}";
},
{
name = top;
position = "{192, 686}";
},
{
name = topright;
position = "{55, 288}";
}
);
layerId = "4FDE33F5-0064-4818-A7C2-FB87252213B5";
paths = (
{
closed = 1;
nodes = (
"9 0 LINE",
"206 0 LINE",
"307 720 LINE",
"109 720 LINE"
);
}
);
width = 297;
}
);
leftKerningGroup = h;
note = l;
rightKerningGroup = l;
unicode = 006C;
},
{
glyphname = lcaron;
layers = (
{
background = {
paths = (
{
closed = 1;
nodes = (
"241 720 LINE",
"147 720 LINE",
"46 0 LINE",
"140 0 LINE"
);
},
{
closed = 1;
nodes = (
"393 686 LINE",
"292 686 LINE",
"276 575 LINE",
"317 575 LINE",
"273 451 LINE",
"325 451 LINE",
"381 601 LINE"
);
}
);
};
layerId = "8F3315DA-A8CB-43B6-A496-83A18984EDD5";
paths = (
{
closed = 1;
nodes = (
"46 0 LINE",
"140 0 LINE",
"241 720 LINE",
"147 720 LINE"
);
},
{
closed = 1;
nodes = (
"324 450 LINE",
"381 600 LINE",
"393 685 LINE",
"292 685 LINE",
"276 574 LINE",
"317 574 LINE",
"272 450 LINE"
);
}
);
width = 308;
},
{
background = {
paths = (
{
closed = 1;
nodes = (
"62 0 LINE",
"113 0 LINE",
"214 720 LINE",
"163 720 LINE"
);
},
{
closed = 1;
nodes = (
"290 516 LINE",
"335 628 LINE",
"343 686 LINE",
"278 686 LINE",
"269 617 LINE",
"293 617 LINE",
"293 617 OFFCURVE",
"257 516 OFFCURVE",
"256 516 CURVE"
);
}
);
};
layerId = "4BBFD287-7A5F-4332-B846-65FFBCBF0D57";
paths = (
{
closed = 1;
nodes = (
"62 0 LINE",
"113 0 LINE",
"214 720 LINE",
"163 720 LINE"
);
},
{
closed = 1;
nodes = (
"290 516 LINE",
"336 628 LINE",
"344 686 LINE",
"279 686 LINE",
"269 617 LINE",
"293 617 LINE",
"256 516 LINE"
);
}
);
width = 274;
},
{
background = {
paths = (
{
closed = 1;
nodes = (
"15 0 LINE",
"161 0 LINE",
"262 720 LINE",
"116 720 LINE"
);
},
{
closed = 1;
nodes = (
"342 395 LINE",
"415 395 LINE",
"481 563 LINE",
"498 686 LINE",
"352 686 LINE",
"331 539 LINE",
"394 539 LINE"
);
}
);
};
layerId = "B761BB45-E103-41B9-A767-1F2A3FFB8B31";
paths = (
{
closed = 1;
nodes = (
"15 0 LINE",
"161 0 LINE",
"262 720 LINE",
"116 720 LINE"
);
},
{
closed = 1;
nodes = (
"376 395 LINE",
"441 563 LINE",
"458 686 LINE",
"312 686 LINE",
"292 539 LINE",
"355 539 LINE",
"303 395 LINE"
);
}
);
width = 369;
},
{
background = {
paths = (
{
closed = 1;
nodes = (
"307 720 LINE",
"109 720 LINE",
"9 0 LINE",
"206 0 LINE"
);
},
{
closed = 1;
nodes = (
"549 686 LINE",
"358 686 LINE",
"332 503 LINE",
"416 503 LINE",
"356 338 LINE",
"450 338 LINE",
"526 525 LINE"
);
}
);
};
layerId = "4FDE33F5-0064-4818-A7C2-FB87252213B5";
paths = (
{
closed = 1;
nodes = (
"9 0 LINE",
"206 0 LINE",
"307 720 LINE",
"109 720 LINE"
);
},
{
closed = 1;
nodes = (
"450 338 LINE",
"526 525 LINE",
"548 686 LINE",
"357 686 LINE",
"332 503 LINE",
"416 503 LINE",
"356 338 LINE"
);
}
);
width = 467;
}
);
leftKerningGroup = h;
note = lcaron;
rightKerningGroup = l;
unicode = 013E;
},
{
glyphname = ldot;
layers = (
{
layerId = "4BBFD287-7A5F-4332-B846-65FFBCBF0D57";
paths = (
{
closed = 1;
nodes = (
"61 0 LINE",
"112 0 LINE",
"214 720 LINE",
"163 720 LINE"
);
},
{
closed = 1;
nodes = (
"247 410 LINE",
"237 341 LINE",
"302 341 LINE",
"312 410 LINE"
);
}
);
width = 272;
},
{
layerId = "8F3315DA-A8CB-43B6-A496-83A18984EDD5";
paths = (
{
closed = 1;
nodes = (
"45 0 LINE",
"139 0 LINE",
"241 720 LINE",
"147 720 LINE"
);
},
{
closed = 1;
nodes = (
"258 431 LINE",
"242 320 LINE",
"343 320 LINE",
"359 431 LINE"
);
}
);
width = 309;
},
{
layerId = "B761BB45-E103-41B9-A767-1F2A3FFB8B31";
paths = (
{
closed = 1;
nodes = (
"14 0 LINE",
"160 0 LINE",
"262 720 LINE",
"116 720 LINE"
);
},
{
closed = 1;
nodes = (
"273 449 LINE",
"252 302 LINE",
"398 302 LINE",
"419 449 LINE"
);
}
);
width = 389;
},
{
layerId = "4FDE33F5-0064-4818-A7C2-FB87252213B5";
paths = (
{
closed = 1;
nodes = (
"7 0 LINE",
"205 0 LINE",
"307 720 LINE",
"109 720 LINE"
);
},
{
closed = 1;
nodes = (
"305 469 LINE",
"280 286 LINE",
"471 286 LINE",
"496 469 LINE"
);
}
);
width = 453;
}
);
leftKerningGroup = h;
rightKerningGroup = l;
unicode = 0140;
},
{
glyphname = m;
layers = (
{
layerId = "8F3315DA-A8CB-43B6-A496-83A18984EDD5";
paths = (
{
closed = 1;
nodes = (
"294 521 OFFCURVE",
"236 497 OFFCURVE",
"184 436 CURVE",
"184 511 LINE",
"114 511 LINE",
"42 0 LINE",
"136 0 LINE",
"179 304 LINE SMOOTH",
"190 384 OFFCURVE",
"255 446 OFFCURVE",
"319 446 CURVE SMOOTH",
"367 446 OFFCURVE",
"397 422 OFFCURVE",
"397 361 CURVE",
"396 347 OFFCURVE",
"380 230 OFFCURVE",
"348 0 CURVE",
"442 0 LINE",
"485 304 LINE SMOOTH",
"496 384 OFFCURVE",
"561 446 OFFCURVE",
"625 446 CURVE SMOOTH",
"673 446 OFFCURVE",
"702 428 OFFCURVE",
"702 361 CURVE SMOOTH",
"702 340 OFFCURVE",
"686 219 OFFCURVE",
"654 0 CURVE",
"748 0 LINE",
"788 279 OFFCURVE",
"799 362 OFFCURVE",
"799 384 CURVE SMOOTH",
"799 479 OFFCURVE",
"740 521 OFFCURVE",
"657 521 CURVE SMOOTH",
"601 521 OFFCURVE",
"544 505 OFFCURVE",
"485 436 CURVE",
"466 495 OFFCURVE",
"418 521 OFFCURVE",
"351 521 CURVE SMOOTH"
);
}
);
width = 867;
},
{
layerId = "4BBFD287-7A5F-4332-B846-65FFBCBF0D57";
paths = (
{
closed = 1;
nodes = (
"266 521 OFFCURVE",
"207 489 OFFCURVE",
"169 435 CURVE",
"169 511 LINE",
"134 511 LINE",
"62 0 LINE",
"113 0 LINE",
"157 314 LINE SMOOTH",
"170 406 OFFCURVE",
"236 475 OFFCURVE",
"316 475 CURVE SMOOTH",
"384 475 OFFCURVE",
"422 439 OFFCURVE",
"422 361 CURVE SMOOTH",
"422 329 OFFCURVE",
"401 191 OFFCURVE",
"374 0 CURVE",
"425 0 LINE",
"469 314 LINE SMOOTH",
"482 406 OFFCURVE",
"548 475 OFFCURVE",
"628 475 CURVE SMOOTH",
"696 475 OFFCURVE",
"734 439 OFFCURVE",
"734 361 CURVE SMOOTH",
"734 325 OFFCURVE",
"717 212 OFFCURVE",
"686 0 CURVE",
"737 0 LINE",
"771 239 OFFCURVE",
"786 333 OFFCURVE",
"786 371 CURVE SMOOTH",
"786 474 OFFCURVE",
"722 521 OFFCURVE",
"638 521 CURVE SMOOTH",
"562 521 OFFCURVE",
"501 479 OFFCURVE",
"468 434 CURVE",
"446 493 OFFCURVE",
"392 521 OFFCURVE",
"326 521 CURVE SMOOTH"
);
}
);
width = 867;
},
{
layerId = "B761BB45-E103-41B9-A767-1F2A3FFB8B31";
paths = (
{
closed = 1;
nodes = (
"318 521 OFFCURVE",
"261 494 OFFCURVE",
"216 436 CURVE",
"211 511 LINE",
"101 511 LINE",
"29 0 LINE",
"175 0 LINE",
"219 317 LINE SMOOTH",
"227 374 OFFCURVE",
"269 415 OFFCURVE",
"315 415 CURVE SMOOTH",
"351 415 OFFCURVE",
"373 392 OFFCURVE",
"373 349 CURVE SMOOTH",
"373 338 OFFCURVE",
"373 335 OFFCURVE",
"326 0 CURVE",
"472 0 LINE",
"516 317 LINE SMOOTH",
"524 374 OFFCURVE",
"567 415 OFFCURVE",
"613 415 CURVE SMOOTH",
"649 415 OFFCURVE",
"670 392 OFFCURVE",
"670 349 CURVE SMOOTH",
"670 338 OFFCURVE",
"650 192 OFFCURVE",
"623 0 CURVE",
"769 0 LINE",
"803 235 OFFCURVE",
"821 354 OFFCURVE",
"821 386 CURVE SMOOTH",
"821 474 OFFCURVE",
"758 521 OFFCURVE",
"675 521 CURVE SMOOTH",
"615 521 OFFCURVE",
"560 497 OFFCURVE",
"515 439 CURVE",
"494 493 OFFCURVE",
"442 521 OFFCURVE",
"378 521 CURVE SMOOTH"
);
}
);
width = 870;
},
{
layerId = "4FDE33F5-0064-4818-A7C2-FB87252213B5";
paths = (
{
closed = 1;
nodes = (
"313 521 OFFCURVE",
"256 463 OFFCURVE",
"238 437 CURVE",
"228 511 LINE",
"80 511 LINE",
"8 0 LINE",
"202 0 LINE",
"247 324 LINE SMOOTH",
"251 357 OFFCURVE",
"273 379 OFFCURVE",
"303 379 CURVE SMOOTH",
"326 379 OFFCURVE",
"344 361 OFFCURVE",
"344 334 CURVE SMOOTH",
"344 310 OFFCURVE",
"318 154 OFFCURVE",
"298 0 CURVE",
"492 0 LINE",
"537 324 LINE SMOOTH",
"541 357 OFFCURVE",
"563 379 OFFCURVE",
"593 379 CURVE SMOOTH",
"616 379 OFFCURVE",
"634 361 OFFCURVE",
"634 334 CURVE SMOOTH",
"634 312 OFFCURVE",
"610 154 OFFCURVE",
"588 0 CURVE",
"782 0 LINE",
"811 205 OFFCURVE",
"835 373 OFFCURVE",
"835 392 CURVE SMOOTH",
"835 465 OFFCURVE",
"788 521 OFFCURVE",
"692 521 CURVE SMOOTH",
"613 521 OFFCURVE",
"568 488 OFFCURVE",
"535 443 CURVE",
"516 490 OFFCURVE",
"478 521 OFFCURVE",
"402 521 CURVE SMOOTH"
);
}
);
width = 869;
}
);
leftKerningGroup = n;
note = m;
rightKerningGroup = n;
unicode = 006D;
},
{
glyphname = n;
layers = (
{
anchors = (
{
name = bottom;
position = "{265, 0}";
},
{
name = top;
position = "{329, 511}";
},
{
name = topright;
position = "{148, 511}";
}
);
layerId = "8F3315DA-A8CB-43B6-A496-83A18984EDD5";
paths = (
{
closed = 1;
nodes = (
"304 521 OFFCURVE",
"240 497 OFFCURVE",
"184 436 CURVE",
"184 511 LINE",
"114 511 LINE",
"42 0 LINE",
"136 0 LINE",
"179 304 LINE SMOOTH",
"190 384 OFFCURVE",
"264 446 OFFCURVE",
"335 446 CURVE SMOOTH",
"391 446 OFFCURVE",
"428 420 OFFCURVE",
"428 356 CURVE SMOOTH",
"428 334 OFFCURVE",
"417 267 OFFCURVE",
"380 0 CURVE",
"474 0 LINE",
"513 273 OFFCURVE",
"525 362 OFFCURVE",
"525 380 CURVE SMOOTH",
"525 478 OFFCURVE",
"458 521 OFFCURVE",
"367 521 CURVE SMOOTH"
);
}
);
width = 593;
},
{
anchors = (
{
name = bottom;
position = "{269, 0}";
},
{
name = top;
position = "{333, 511}";
},
{
name = topright;
position = "{152, 511}";
}
);
layerId = "4BBFD287-7A5F-4332-B846-65FFBCBF0D57";
paths = (
{
closed = 1;
nodes = (
"281 521 OFFCURVE",
"211 489 OFFCURVE",
"168 435 CURVE",
"168 511 LINE",
"134 511 LINE",
"62 0 LINE",
"113 0 LINE",
"157 314 LINE SMOOTH",
"170 406 OFFCURVE",
"247 475 OFFCURVE",
"337 475 CURVE SMOOTH",
"415 475 OFFCURVE",
"461 437 OFFCURVE",
"461 354 CURVE SMOOTH",
"461 342 OFFCURVE",
"460 328 OFFCURVE",
"414 0 CURVE",
"464 0 LINE",
"512 343 OFFCURVE",
"513 345 OFFCURVE",
"513 368 CURVE SMOOTH",
"513 473 OFFCURVE",
"443 521 OFFCURVE",
"348 521 CURVE SMOOTH"
);
}
);
width = 593;
},
{
anchors = (
{
name = bottom;
position = "{264, 0}";
},
{
name = top;
position = "{338, 511}";
},
{
name = topright;
position = "{145, 511}";
}
);
layerId = "B761BB45-E103-41B9-A767-1F2A3FFB8B31";
paths = (
{
closed = 1;
nodes = (
"311 521 OFFCURVE",
"253 479 OFFCURVE",
"215 436 CURVE",
"210 511 LINE",
"101 511 LINE",
"29 0 LINE",
"175 0 LINE",
"219 314 LINE SMOOTH",
"227 371 OFFCURVE",
"277 415 OFFCURVE",
"328 415 CURVE SMOOTH",
"370 415 OFFCURVE",
"397 384 OFFCURVE",
"397 340 CURVE SMOOTH",
"397 331 OFFCURVE",
"397 330 OFFCURVE",
"350 0 CURVE",
"496 0 LINE",
"547 367 OFFCURVE",
"548 362 OFFCURVE",
"548 386 CURVE SMOOTH",
"548 477 OFFCURVE",
"479 521 OFFCURVE",
"390 521 CURVE SMOOTH"
);
}
);
width = 597;
},
{
anchors = (
{
name = bottom;
position = "{260, 0}";
},
{
name = top;
position = "{343, 511}";
},
{
name = topright;
position = "{141, 511}";
}
);
layerId = "4FDE33F5-0064-4818-A7C2-FB87252213B5";
paths = (
{
closed = 1;
nodes = (
"303 521 OFFCURVE",
"254 458 OFFCURVE",
"238 437 CURVE",
"229 511 LINE",
"80 511 LINE",
"8 0 LINE",
"206 0 LINE",
"251 320 LINE SMOOTH",
"256 353 OFFCURVE",
"277 380 OFFCURVE",
"312 380 CURVE SMOOTH",
"343 380 OFFCURVE",
"358 358 OFFCURVE",
"358 330 CURVE SMOOTH",
"358 306 OFFCURVE",
"352 270 OFFCURVE",
"312 0 CURVE",
"510 0 LINE",
"551 286 OFFCURVE",
"563 375 OFFCURVE",
"563 392 CURVE SMOOTH",
"563 465 OFFCURVE",
"515 521 OFFCURVE",
"419 521 CURVE SMOOTH"
);
}
);
width = 597;
}
);
leftKerningGroup = n;
note = n;
rightKerningGroup = n;
unicode = 006E;
},
{
glyphname = eng;
layers = (
{
layerId = "4BBFD287-7A5F-4332-B846-65FFBCBF0D57";
paths = (
{
closed = 1;
nodes = (
"113 0 LINE",
"157 314 LINE SMOOTH",
"170 406 OFFCURVE",
"247 475 OFFCURVE",
"337 475 CURVE SMOOTH",
"415 475 OFFCURVE",
"461 437 OFFCURVE",
"461 354 CURVE SMOOTH",
"461 339 OFFCURVE",
"450 257 OFFCURVE",
"404 -73 CURVE SMOOTH",
"396 -132 OFFCURVE",
"363 -140 OFFCURVE",
"337 -140 CURVE SMOOTH",
"322 -140 OFFCURVE",
"293 -131 OFFCURVE",
"278 -124 CURVE",
"271 -169 LINE",
"287 -179 OFFCURVE",
"312 -186 OFFCURVE",
"337 -186 CURVE SMOOTH",
"396 -186 OFFCURVE",
"442 -152 OFFCURVE",
"453 -75 CURVE SMOOTH",
"511 341 OFFCURVE",
"513 347 OFFCURVE",
"513 368 CURVE SMOOTH",
"513 473 OFFCURVE",
"443 521 OFFCURVE",
"348 521 CURVE SMOOTH",
"281 521 OFFCURVE",
"211 489 OFFCURVE",
"168 435 CURVE",
"168 511 LINE",
"134 511 LINE",
"62 0 LINE"
);
}
);
width = 593;
},
{
layerId = "B761BB45-E103-41B9-A767-1F2A3FFB8B31";
paths = (
{
closed = 1;
nodes = (
"175 0 LINE",
"219 314 LINE SMOOTH",
"227 371 OFFCURVE",
"277 415 OFFCURVE",
"328 415 CURVE SMOOTH",
"370 415 OFFCURVE",
"397 384 OFFCURVE",
"397 340 CURVE SMOOTH",
"397 326 OFFCURVE",
"397 330 OFFCURVE",
"347 -18 CURVE SMOOTH",
"339 -77 OFFCURVE",
"311 -86 OFFCURVE",
"283 -86 CURVE SMOOTH",
"268 -86 OFFCURVE",
"238 -80 OFFCURVE",
"224 -73 CURVE",
"211 -166 LINE",
"236 -179 OFFCURVE",
"286 -186 OFFCURVE",
"317 -186 CURVE SMOOTH",
"417 -186 OFFCURVE",
"477 -133 OFFCURVE",
"493 -20 CURVE SMOOTH",
"547 366 OFFCURVE",
"548 361 OFFCURVE",
"548 386 CURVE SMOOTH",
"548 477 OFFCURVE",
"479 521 OFFCURVE",
"390 521 CURVE SMOOTH",
"311 521 OFFCURVE",
"253 479 OFFCURVE",
"215 436 CURVE",
"210 511 LINE",
"101 511 LINE",
"29 0 LINE"
);
}
);
width = 597;
},
{
layerId = "8F3315DA-A8CB-43B6-A496-83A18984EDD5";
paths = (
{
closed = 1;
nodes = (
"136 0 LINE",
"179 304 LINE SMOOTH",
"190 384 OFFCURVE",
"264 446 OFFCURVE",
"335 446 CURVE SMOOTH",
"391 446 OFFCURVE",
"428 420 OFFCURVE",
"428 356 CURVE SMOOTH",
"428 336 OFFCURVE",
"417 267 OFFCURVE",
"374 -44 CURVE SMOOTH",
"366 -103 OFFCURVE",
"335 -112 OFFCURVE",
"309 -112 CURVE SMOOTH",
"294 -112 OFFCURVE",
"266 -104 OFFCURVE",
"251 -97 CURVE",
"242 -167 LINE",
"261 -179 OFFCURVE",
"296 -186 OFFCURVE",
"324 -186 CURVE SMOOTH",
"416 -186 OFFCURVE",
"455 -134 OFFCURVE",
"472 -15 CURVE SMOOTH",
"510 250 OFFCURVE",
"525 360 OFFCURVE",
"525 380 CURVE SMOOTH",
"525 478 OFFCURVE",
"458 521 OFFCURVE",
"367 521 CURVE SMOOTH",
"304 521 OFFCURVE",
"240 497 OFFCURVE",
"184 436 CURVE",
"184 511 LINE",
"114 511 LINE",
"42 0 LINE"
);
}
);
width = 593;
},
{
layerId = "4FDE33F5-0064-4818-A7C2-FB87252213B5";
paths = (
{
closed = 1;
nodes = (
"206 0 LINE",
"251 320 LINE SMOOTH",
"256 353 OFFCURVE",
"277 380 OFFCURVE",
"312 380 CURVE SMOOTH",
"343 380 OFFCURVE",
"358 358 OFFCURVE",
"358 330 CURVE SMOOTH",
"358 317 OFFCURVE",
"351 264 OFFCURVE",
"312 0 CURVE SMOOTH",
"304 -55 OFFCURVE",
"275 -65 OFFCURVE",
"248 -65 CURVE SMOOTH",
"233 -65 OFFCURVE",
"203 -60 OFFCURVE",
"188 -53 CURVE",
"172 -165 LINE",
"204 -178 OFFCURVE",
"267 -187 OFFCURVE",
"302 -187 CURVE SMOOTH",
"411 -187 OFFCURVE",
"492 -134 OFFCURVE",
"507 -26 CURVE SMOOTH",
"556 329 OFFCURVE",
"563 377 OFFCURVE",
"563 392 CURVE SMOOTH",
"563 465 OFFCURVE",
"515 521 OFFCURVE",
"419 521 CURVE SMOOTH",
"303 521 OFFCURVE",
"254 458 OFFCURVE",
"238 437 CURVE",
"229 511 LINE",
"80 511 LINE",
"8 0 LINE"
);
}
);
width = 597;
}
);
leftKerningGroup = n;
rightKerningGroup = n;
unicode = 014B;
},
